<svg width="135" height="241" viewBox="0 0 135 241" fill="none" xmlns="http://www.w3.org/2000/svg">
<g clip-path="url(#clip0)">
<path d="M67.5 72.1629C83.5161 72.1629 98.6335 80.386 110.157 95.3563C115.918 102.841 120.411 111.539 123.583 121.291C126.913 131.464 128.551 142.27 128.551 153.392C128.551 164.515 126.86 175.321 123.583 185.494C120.411 195.246 115.918 203.943 110.157 211.428C98.6335 226.399 83.5161 234.622 67.5 234.622C51.4839 234.622 36.3665 226.399 24.8434 211.428C19.0818 203.943 14.5889 195.246 11.4174 185.494C8.08732 175.321 6.44871 164.515 6.44871 153.392C6.44871 142.217 8.14018 131.464 11.4174 121.291C14.5889 111.539 19.0818 102.841 24.8434 95.3563C36.3136 80.386 51.4839 72.1629 67.5 72.1629ZM67.5 66.0483C30.3406 66.0483 0.264297 105.161 0.264297 153.392C0.264297 201.624 30.3406 240.736 67.5 240.736C104.659 240.736 134.736 201.624 134.736 153.392C134.736 105.161 104.606 66.0483 67.5 66.0483Z" stroke="#231F20" stroke-miterlimit="10"/>
<path d="M67.5 4.11155C68.6385 4.11155 69.5615 3.19115 69.5615 2.05577C69.5615 0.920401 68.6385 0 67.5 0C66.3615 0 65.4385 0.920401 65.4385 2.05577C65.4385 3.19115 66.3615 4.11155 67.5 4.11155Z" fill="#111010"/>
<path d="M66.9714 2.05566L116.341 93.3531" stroke="#231F20" stroke-miterlimit="10"/>
<path d="M67.9229 2.05566L18.4475 93.6167" stroke="#231F20" stroke-miterlimit="10"/>
<line x1="84.6926" y1="117.025" x2="47.4207" y2="163.959" stroke="black"/>
<line x1="88.3624" y1="150.663" x2="51.0905" y2="197.597" stroke="black"/>
</g>
<defs>
<clipPath id="clip0">
<rect width="135" height="241" fill="white"/>
</clipPath>
</defs>
</svg>
