<svg width="305" height="234" viewBox="0 0 305 234" fill="none" stroke="none"  xmlns="http://www.w3.org/2000/svg">

<path d="M240.772 52.1219L300.77 57.9686C302.983 58.1702 304.61 60.0519 304.61 62.3368V192.913C304.61 195.332 302.722 197.348 300.315 197.348H270.901C268.884 197.348 267.192 195.937 266.737 193.921L236.217 57.5654C235.566 54.6085 237.909 51.8531 240.772 52.1219Z"  stroke-miterlimit="10"/>
<path d="M275.392 118.384V66.2346C275.392 64.2857 274.025 62.6056 272.138 62.2696L233.875 58.3718L220.469 109.379L275.392 118.384Z"  stroke-miterlimit="10"/>
<path d="M0.325439 110.185V19.0578C0.325439 10.9262 1.50605 3.57068 13.1728 2.99626C15.1994 2.89648 17.3097 2.86185 18.546 2.99625C94.2267 9.78378 164.962 9.85098 230.621 3.06346C232.899 2.79465 235.176 2.99626 237.389 3.60108C244.286 5.61718 249.232 11.7999 249.232 19.0578V93.183V117.242L0.325439 110.185Z"  stroke-linejoin="round"/>
<path d="M241.098 197.886L240.122 231.017C240.057 232.227 239.146 233.235 237.909 233.235H232.378C231.272 233.235 230.296 232.361 230.166 231.151L227.172 198.02"  stroke-linejoin="round"/>
<path d="M199.451 198.087L199.32 201.716C199.255 202.926 198.344 203.934 197.108 203.934H191.577C190.47 203.934 189.494 203.06 189.364 201.851L189.039 198.087"  stroke-linejoin="round"/>
<path d="M0.325439 197.886H266.542C271.552 197.886 275.587 193.719 275.587 188.544V163.545C275.587 158.37 271.552 154.204 266.542 154.204H0.325439V197.886Z"  stroke-linejoin="round"/>
<path d="M250.924 112.941C250.924 112.941 227.172 115.83 218.127 110.857C209.081 105.884 203.876 94.863 209.212 84.5137C214.548 74.1644 224.179 75.3741 230.491 75.5085C236.803 75.6429 250.143 74.7021 255.154 75.9117"  stroke-miterlimit="10"/>
<path d="M251.77 113.21C261.833 113.21 269.991 104.785 269.991 94.3926C269.991 84.0003 261.833 75.5757 251.77 75.5757C241.707 75.5757 233.549 84.0003 233.549 94.3926C233.549 104.785 241.707 113.21 251.77 113.21Z"  stroke-linejoin="round"/>
<path d="M0.325439 154.002H266.542C271.552 154.002 275.587 149.835 275.587 144.661V119.661C275.587 114.486 271.552 110.32 266.542 110.32H0.325439V154.002Z"  stroke-linejoin="round"/>

</svg>
