<?xml version="1.0" encoding="UTF-8"?>
<svg fill="none" viewBox="0 0 185 301" xmlns="http://www.w3.org/2000/svg">
<path d="m68.242 120.01-2.6493 100.86-25.308 31.105 14.556 36.593 56.392 0.075 17.902-40.137-35.56-126.3-25.332-2.195z" clip-rule="evenodd" fill-rule="evenodd" stroke="#494848"/>
<path d="m72.611 119.55s-13.928-54.17 18.293-76.628l17.361-12.342" stroke="#0C0C0C"/>
<path d="m59.977 28.148s-7.7848 29.704 23.78 62.305c8.772 8.2873 3.8471 30.418 3.8471 30.418" stroke="#0C0C0C"/>
<path d="m124.55 27.373s11.691 19.71-19.069 50.267c-21.185 22.292-23.392 42.615-23.392 42.615" stroke="#0C0C0C"/>
<path d="m136.02 59.271s-3.242 24.55-23.102 38.055c-19.86 13.505-22.839 24.265-22.839 24.265" stroke="#0C0C0C"/>
<path d="m59.756 52.196s-7.4092-11.033-17.418 1.1512c9.4438 9.0295 17.418-1.1512 17.418-1.1512z" clip-rule="evenodd" fill-rule="evenodd" stroke="#0C0C0C"/>
<path d="m88.32 44.351s6.0296-11.285-10.026-14.498c-3.1893 12.148 10.026 14.498 10.026 14.498z" clip-rule="evenodd" fill-rule="evenodd" stroke="#0C0C0C"/>
<path d="m109.68 72.383s6.029-11.285-10.026-14.498c-3.1892 12.148 10.026 14.498 10.026 14.498z" clip-rule="evenodd" fill-rule="evenodd" stroke="#0C0C0C"/>
<path d="m119.38 90.272s9.492-8.878-4.136-16.892c-7.184 10.576 4.136 16.892 4.136 16.892z" clip-rule="evenodd" fill-rule="evenodd" stroke="#0C0C0C"/>
<path d="m121.69 57.7s6.029-11.286-10.026-14.498c-3.189 12.148 10.026 14.498 10.026 14.498z" clip-rule="evenodd" fill-rule="evenodd" stroke="#0C0C0C"/>
<path d="m131.04 73.718s6.029-11.286-10.026-14.498c-3.189 12.148 10.026 14.498 10.026 14.498z" clip-rule="evenodd" fill-rule="evenodd" stroke="#0C0C0C"/>
<path d="m134.82 59.14s13.16-2.4331 6.916-16.13c-12.309 5.0348-6.916 16.13-6.916 16.13z" clip-rule="evenodd" fill-rule="evenodd" stroke="#0C0C0C"/>
<path d="m131.36 76.385s5.476 11.945 17.997 2.1325c-7.933-10.404-17.997-2.1325-17.997-2.1325z" clip-rule="evenodd" fill-rule="evenodd" stroke="#0C0C0C"/>
<path d="m116.33 95.012s2.617 13.234 17.424 6.5684c-5.429-12.308-17.424-6.5684-17.424-6.5684z" clip-rule="evenodd" fill-rule="evenodd" stroke="#0C0C0C"/>
<path d="m66.43 72.219s-7.4092-11.033-17.418 1.1512c9.4438 9.0295 17.418-1.1512 17.418-1.1512z" clip-rule="evenodd" fill-rule="evenodd" stroke="#0C0C0C"/>
<path d="m69.744 107.9s0.7438-12.34-15.035-9.5475c2.1706 12.112 15.035 9.5475 15.035 9.5475z" clip-rule="evenodd" fill-rule="evenodd" stroke="#0C0C0C"/>
<path d="m69.744 93.22s0.744-12.34-15.035-9.5476c2.1708 12.112 15.035 9.5476 15.035 9.5476z" clip-rule="evenodd" fill-rule="evenodd" stroke="#0C0C0C"/>
<path d="m59.913 28.464s12.83-1.7994 7.3011-16.196c-12.105 4.5179-7.3011 16.196-7.3011 16.196z" clip-rule="evenodd" fill-rule="evenodd" stroke="#0C0C0C"/>
<path d="m63.918 60.501s12.83-1.8002 7.301-16.196c-12.105 4.5171-7.301 16.196-7.301 16.196z" clip-rule="evenodd" fill-rule="evenodd" stroke="#0C0C0C"/>
<path d="m82.606 87.199s12.83-1.8002 7.301-16.196c-12.105 4.5178-7.301 16.196-7.301 16.196z" clip-rule="evenodd" fill-rule="evenodd" stroke="#0C0C0C"/>
<path d="m97.24 39.152s-4.8344 11.94 10.934 14.338c2.018-12.668-10.934-14.338-10.934-14.338z" clip-rule="evenodd" fill-rule="evenodd" stroke="#0C0C0C"/>
<path d="m107.97 31.134s12.83-1.8002 7.301-16.196c-12.104 4.5177-7.301 16.196-7.301 16.196z" clip-rule="evenodd" fill-rule="evenodd" stroke="#0C0C0C"/>
<path d="m126.82 46.199s10.406 7.2798 16.371-7.0915c-11.76-4.7802-16.371 7.0915-16.371 7.0915z" clip-rule="evenodd" fill-rule="evenodd" stroke="#0C0C0C"/>
<path d="m124.93 28.193s12.025-4.1428 3.816-16.939c-10.783 6.6185-3.816 16.939-3.816 16.939z" clip-rule="evenodd" fill-rule="evenodd" stroke="#0C0C0C"/>
</svg>
