<svg width="185" height="301" viewBox="0 0 185 301" fill="none" xmlns="http://www.w3.org/2000/svg">
<path fill-rule="evenodd" clip-rule="evenodd" d="M68.2417 120.006L65.5924 220.864L40.2842 251.969L54.8399 288.562L111.232 288.637L129.134 248.5L93.574 122.201L68.2417 120.006Z" stroke="#494848"/>
<path d="M72.6113 119.551C72.6113 119.551 58.6829 65.3805 90.904 42.9225L108.265 30.5802" stroke="#0C0C0C"/>
<path d="M59.9774 28.1476C59.9774 28.1476 52.1926 57.8517 83.7579 90.4523C92.5299 98.7396 87.605 120.87 87.605 120.87" stroke="#0C0C0C"/>
<path d="M124.548 27.3726C124.548 27.3726 136.239 47.083 105.479 77.6393C84.2942 99.9318 82.087 120.254 82.087 120.254" stroke="#0C0C0C"/>
<path d="M136.021 59.271C136.021 59.271 132.779 83.8208 112.919 97.3257C93.0586 110.831 90.08 121.591 90.08 121.591" stroke="#0C0C0C"/>
<path fill-rule="evenodd" clip-rule="evenodd" d="M59.7556 52.1957C59.7556 52.1957 52.3464 41.1626 42.3375 53.3469C51.7813 62.3764 59.7556 52.1957 59.7556 52.1957Z" stroke="#0C0C0C"/>
<path fill-rule="evenodd" clip-rule="evenodd" d="M88.3196 44.3509C88.3196 44.3509 94.3492 33.0657 78.294 29.853C75.1047 42.0006 88.3196 44.3509 88.3196 44.3509Z" stroke="#0C0C0C"/>
<path fill-rule="evenodd" clip-rule="evenodd" d="M109.678 72.3834C109.678 72.3834 115.707 61.0982 99.6521 57.8855C96.4629 70.0339 109.678 72.3834 109.678 72.3834Z" stroke="#0C0C0C"/>
<path fill-rule="evenodd" clip-rule="evenodd" d="M119.38 90.2724C119.38 90.2724 128.872 81.3944 115.244 73.3806C108.06 83.9568 119.38 90.2724 119.38 90.2724Z" stroke="#0C0C0C"/>
<path fill-rule="evenodd" clip-rule="evenodd" d="M121.692 57.6998C121.692 57.6998 127.721 46.4143 111.666 43.202C108.477 55.3497 121.692 57.6998 121.692 57.6998Z" stroke="#0C0C0C"/>
<path fill-rule="evenodd" clip-rule="evenodd" d="M131.036 73.7184C131.036 73.7184 137.065 62.4329 121.01 59.2205C117.821 71.3682 131.036 73.7184 131.036 73.7184Z" stroke="#0C0C0C"/>
<path fill-rule="evenodd" clip-rule="evenodd" d="M134.821 59.1404C134.821 59.1404 147.981 56.7073 141.737 43.0106C129.428 48.0454 134.821 59.1404 134.821 59.1404Z" stroke="#0C0C0C"/>
<path fill-rule="evenodd" clip-rule="evenodd" d="M131.365 76.3851C131.365 76.3851 136.841 88.3305 149.362 78.5176C141.429 68.1139 131.365 76.3851 131.365 76.3851Z" stroke="#0C0C0C"/>
<path fill-rule="evenodd" clip-rule="evenodd" d="M116.327 95.0116C116.327 95.0116 118.944 108.246 133.751 101.58C128.322 89.2716 116.327 95.0116 116.327 95.0116Z" stroke="#0C0C0C"/>
<path fill-rule="evenodd" clip-rule="evenodd" d="M66.43 72.2189C66.43 72.2189 59.0208 61.1858 49.0119 73.3701C58.4557 82.3996 66.43 72.2189 66.43 72.2189Z" stroke="#0C0C0C"/>
<path fill-rule="evenodd" clip-rule="evenodd" d="M69.7437 107.903C69.7437 107.903 70.4875 95.5628 54.7091 98.3555C56.8797 110.467 69.7437 107.903 69.7437 107.903Z" stroke="#0C0C0C"/>
<path fill-rule="evenodd" clip-rule="evenodd" d="M69.7437 93.2195C69.7437 93.2195 70.4877 80.88 54.7091 83.6719C56.8799 95.7839 69.7437 93.2195 69.7437 93.2195Z" stroke="#0C0C0C"/>
<path fill-rule="evenodd" clip-rule="evenodd" d="M59.9134 28.464C59.9134 28.464 72.7434 26.6646 67.2145 12.2679C55.1099 16.7858 59.9134 28.464 59.9134 28.464Z" stroke="#0C0C0C"/>
<path fill-rule="evenodd" clip-rule="evenodd" d="M63.9181 60.5011C63.9181 60.5011 76.7478 58.7009 71.2191 44.305C59.1144 48.8221 63.9181 60.5011 63.9181 60.5011Z" stroke="#0C0C0C"/>
<path fill-rule="evenodd" clip-rule="evenodd" d="M82.6064 87.1986C82.6064 87.1986 95.4361 85.3984 89.9074 71.0025C77.8028 75.5203 82.6064 87.1986 82.6064 87.1986Z" stroke="#0C0C0C"/>
<path fill-rule="evenodd" clip-rule="evenodd" d="M97.2405 39.1518C97.2405 39.1518 92.4061 51.0921 108.174 53.4896C110.192 40.8219 97.2405 39.1518 97.2405 39.1518Z" stroke="#0C0C0C"/>
<path fill-rule="evenodd" clip-rule="evenodd" d="M107.969 31.1337C107.969 31.1337 120.799 29.3335 115.27 14.9376C103.166 19.4553 107.969 31.1337 107.969 31.1337Z" stroke="#0C0C0C"/>
<path fill-rule="evenodd" clip-rule="evenodd" d="M126.822 46.199C126.822 46.199 137.228 53.4788 143.193 39.1075C131.433 34.3273 126.822 46.199 126.822 46.199Z" stroke="#0C0C0C"/>
<path fill-rule="evenodd" clip-rule="evenodd" d="M124.926 28.1926C124.926 28.1926 136.951 24.0498 128.742 11.254C117.959 17.8725 124.926 28.1926 124.926 28.1926Z" stroke="#0C0C0C"/>
</svg>
