<?xml version="1.0" encoding="UTF-8"?>
<svg width="75px" height="60px" viewBox="0 0 75 60" version="1.1" 
    xmlns="http://www.w3.org/2000/svg" 
    xmlns:xlink="http://www.w3.org/1999/xlink">
    <circle className="iconCircle" cx="25" cy="30" r="25"></circle>
    <g transform="translate(26.000000, 0.000000)">
        <rect x="0" y="0" width="48" height="48" fill="none" fill-rule="evenodd"></rect>
        <g >
            <path d="M24,48 C10.745166,48 0,37.254834 0,24 C0,10.745166 10.745166,0 24,0 C37.254834,0 48,10.745166 48,24 C48,30.3651958 45.4714358,36.4696897 40.9705627,40.9705627 C36.4696897,45.4714358 30.3651958,48 24,48 Z M24,1 C11.2974508,1 1,11.2974508 1,24 C1,36.7025492 11.2974508,47 24,47 C36.7025492,47 47,36.7025492 47,24 C47,11.2974508 36.7025492,1 24,1 Z" id="Shape" fill="#231F20" fill-rule="nonzero"></path>
            <path d="M24,43 C13.5065898,43 5,34.4934102 5,24 C5,13.5065898 13.5065898,5 24,5 C34.4934102,5 43,13.5065898 43,24 C43,29.0391133 40.99822,33.8718377 37.4350288,37.4350288 C33.8718377,40.99822 29.0391133,43 24,43 Z M24,6 C14.0588745,6 6,14.0588745 6,24 C6,33.9411255 14.0588745,42 24,42 C33.9411255,42 42,33.9411255 42,24 C42,14.0588745 33.9411255,6 24,6 Z" id="Shape" fill="#231F20" fill-rule="nonzero"></path>
            <path d="M24,38 C16.2680135,38 10,31.7319865 10,24 C10,16.2680135 16.2680135,10 24,10 C31.7319865,10 38,16.2680135 38,24 C38,31.7319865 31.7319865,38 24,38 L24,38 Z M24,11 C16.8202983,11 11,16.8202983 11,24 C11,31.1797017 16.8202983,37 24,37 C31.1797017,37 37,31.1797017 37,24 C37,20.5521856 35.6303611,17.2455848 33.1923882,14.8076118 C30.7544152,12.3696389 27.4478144,11 24,11 Z" id="Shape" fill="#231F20" fill-rule="nonzero"></path>
            <path d="M24,33 C19.0294373,33 15,28.9705627 15,24 C15,19.0294373 19.0294373,15 24,15 C28.9705627,15 33,19.0294373 33,24 C33,26.3869484 32.0517884,28.6761336 30.363961,30.363961 C28.6761336,32.0517884 26.3869484,33 24,33 Z M24,16 C19.581722,16 16,19.581722 16,24 C16,28.418278 19.581722,32 24,32 C28.418278,32 32,28.418278 32,24 C32,21.8782681 31.1571453,19.8434368 29.6568542,18.3431458 C28.1565632,16.8428547 26.1217319,16 24,16 Z" id="Shape" fill="#231F20" fill-rule="nonzero"></path>
            <path d="M24,25.83 C23.2598341,25.83 22.5925497,25.3841348 22.3093005,24.7003107 C22.0260512,24.0164865 22.1826183,23.2293709 22.7059946,22.7059946 C23.2293709,22.1826183 24.0164865,22.0260512 24.7003107,22.3093005 C25.3841348,22.5925497 25.83,23.2598341 25.83,24 C25.83,25.0106811 25.0106811,25.83 24,25.83 L24,25.83 Z M24,23.17 C23.5416037,23.17 23.17,23.5416037 23.17,24 C23.17,24.4583963 23.5416037,24.83 24,24.83 C24.4583963,24.83 24.83,24.4583963 24.83,24 C24.83,23.5416037 24.4583963,23.17 24,23.17 L24,23.17 Z" id="Shape" fill="#231F20" fill-rule="nonzero"></path>
        </g>
    </g>

</svg>