<?xml version="1.0" encoding="UTF-8"?>
<svg width="75px" height="60px" viewBox="0 0 75 60" version="1.1" 
    xmlns="http://www.w3.org/2000/svg" 
    xmlns:xlink="http://www.w3.org/1999/xlink">
    <circle className="iconCircle" cx="25" cy="30" r="25"></circle>
    <g transform="translate(23.000000, 0.000000)">
        <rect x="0" y="0" width="48" height="48" fill="none" fill-rule="evenodd"></rect>
        <g transform="translate(0.000000, 5.000000)" fill="#231F20" fill-rule="nonzero">
            <path d="M39,28 L39,2 C39,1.17157288 38.3284271,0.5 37.5,0.5 L1.5,0.5 C0.671572875,0.5 0,1.17157288 0,2 L0,28 C0,28.8284271 0.671572875,29.5 1.5,29.5 L37.5,29.5 C38.3284271,29.5 39,28.8284271 39,28 Z M1,28 L1,2 C1,1.72385763 1.22385763,1.5 1.5,1.5 L37.5,1.5 C37.7761424,1.5 38,1.72385763 38,2 L38,28 C38,28.2761424 37.7761424,28.5 37.5,28.5 L1.5,28.5 C1.22385763,28.5 1,28.2761424 1,28 Z" id="Shape"></path>
            <path d="M44,32.3 L44,5 C44,4.72385763 43.7761424,4.5 43.5,4.5 C43.2238576,4.5 43,4.72385763 43,5 L43,32.28 C42.7147118,32.4523095 42.3819908,32.5293607 42.05,32.5 L4.5,32.5 C4.22385763,32.5 4,32.7238576 4,33 C4,33.2761424 4.22385763,33.5 4.5,33.5 L42.06,33.5 C43.24,33.5 44,33 44,32.3 Z" id="Path"></path>
            <path d="M47.5,8.5 C47.2238576,8.5 47,8.72385763 47,9 L47,36.28 C46.7147118,36.4523095 46.3819908,36.5293607 46.05,36.5 L8.5,36.5 C8.22385763,36.5 8,36.7238576 8,37 C8,37.2761424 8.22385763,37.5 8.5,37.5 L46.06,37.5 C47.24,37.5 48,37 48,36.3 L48,9 C48,8.72385763 47.7761424,8.5 47.5,8.5 Z" id="Path"></path>
        </g>
    </g>
</svg>