<?xml version="1.0" encoding="UTF-8"?>
<svg width="75px" height="57px" viewBox="0 0 75 57" version="1.1">
    <circle className="iconCircle" cx="25" cy="30" r="25"></circle>
    <g transform="translate(27.000000, 0.000000)">
        <rect x="0" y="0" width="48" height="48" fill="none" fill-rule="evenodd"></rect>
        <path d="M24,0 C10.745166,0 0,10.745166 0,24 C0,37.254834 10.745166,48 24,48 C37.254834,48 48,37.254834 48,24 C48,17.6348042 45.4714358,11.5303103 40.9705627,7.02943725 C36.4696897,2.52856417 30.3651958,0 24,0 Z M24,47 C11.2974508,47 1,36.7025492 1,24 C1,11.2974508 11.2974508,1 24,1 C36.7025492,1 47,11.2974508 47,24 C47,36.7025492 36.7025492,47 24,47 Z" id="Shape" fill="#231F20" fill-rule="nonzero"></path>
        <path d="M24,4.7 C16.1839703,4.7 9.13793526,9.409338 6.14874199,16.6311829 C3.15954873,23.8530278 4.81615491,32.1644712 10.3457839,37.6883759 C15.8754129,43.2122806 24.1885676,44.8602775 31.4073126,41.8636059 C38.6260576,38.8669344 43.3280911,31.8160255 43.3200104,24 C43.2924791,13.34452 34.6555028,4.71648464 24,4.7 Z M24,42.34 C13.8847482,42.34 5.68368906,34.1419105 5.68001089,24.0266594 C5.67633519,13.9114083 13.8714321,5.70736474 23.9866812,5.69999989 C34.1019303,5.69264496 42.3089571,13.8847542 42.32,24 C42.32,34.121097 34.1210909,42.3289628 24,42.34 Z" id="Shape" fill="#231F20" fill-rule="nonzero"></path>
        <path d="M24.5,23.09 L24.5,12.09 L23.5,12.09 L23.5,23.09 C23.1533398,23.2598219 22.9353804,23.6140059 22.939928,24 C22.9454251,24.5831599 23.4168401,25.0545749 24,25.060072 C24.3859941,25.0646196 24.7401781,24.8466602 24.91,24.5 L31.4,24.5 L31.4,23.5 L24.91,23.5 C24.8223048,23.3218461 24.6781539,23.1776952 24.5,23.09 L24.5,23.09 Z M24,24.09 L24,23.97 C24.0331371,23.97 24.06,23.9968629 24.06,24.03 L24,24.09 Z" id="Shape" fill="#231F20" fill-rule="nonzero"></path>
    </g>

</svg>