<?xml version="1.0" encoding="UTF-8"?>
<svg width="75px" height="57px" viewBox="0 0 75 57" version="1.1">
    <circle className="iconCircle" cx="25" cy="30" r="25"></circle>
    <g transform="translate(7.000000, -20.000000) scale(1.4)" >
        <path d="M22.2595 37.5457C21.6734 37.5457 21.1568 37.4514 20.7097 37.2626C20.2726 37.0639 19.9348 36.8155 19.6964 36.5175C19.4679 36.2195 19.3536 35.9164 19.3536 35.6085C19.3536 35.2707 19.453 35.0025 19.6516 34.8038C19.8603 34.5951 20.1335 34.4908 20.4713 34.4908C20.5507 34.4908 20.6302 34.5008 20.7097 34.5206C20.7892 34.5306 20.8438 34.5355 20.8736 34.5355L21.0673 34.5653V36.9497L21.3505 37.0689C21.5293 37.1384 21.733 37.1732 21.9615 37.1732C22.4483 37.1732 22.8457 37.044 23.1536 36.7857C23.4616 36.5274 23.7 36.0506 23.8689 35.3551C24.0378 34.6597 24.1223 33.6762 24.1223 32.4045C24.0328 32.5536 23.8938 32.7026 23.705 32.8516C23.3275 33.1496 22.8953 33.2987 22.4085 33.2987C21.6833 33.2987 21.0475 33.1645 20.5011 32.8963C19.9646 32.6181 19.5523 32.2356 19.2642 31.7488C18.9761 31.262 18.832 30.7107 18.832 30.0947C18.832 29.0317 19.1599 28.1972 19.8156 27.5912C20.4812 26.9752 21.42 26.6672 22.6321 26.6672C23.8838 26.6672 24.8674 27.1143 25.5827 28.0084C26.298 28.9025 26.6556 30.2686 26.6556 32.1065C26.6556 33.8947 26.2632 35.2508 25.4783 36.1748C24.7034 37.0887 23.6305 37.5457 22.2595 37.5457ZM22.7066 32.9261C23.1139 32.9261 23.4368 32.7274 23.6752 32.33C23.9236 31.9326 24.0477 31.3117 24.0477 30.4673C24.0477 29.2056 23.9087 28.3065 23.6305 27.77C23.3623 27.2335 23.0294 26.9653 22.6321 26.9653C22.4334 26.9653 22.2347 27.0646 22.036 27.2633C21.8472 27.462 21.6883 27.7849 21.5591 28.232C21.43 28.679 21.3654 29.2503 21.3654 29.9457C21.3654 30.6411 21.43 31.2124 21.5591 31.6594C21.6982 32.1065 21.8671 32.4294 22.0658 32.6281C22.2744 32.8268 22.488 32.9261 22.7066 32.9261Z" fill="#E24C1A" stroke="none"/>
        <path d="M32.4467 37.5457C31.8605 37.5457 31.3439 37.4514 30.8969 37.2626C30.4597 37.0639 30.122 36.8155 29.8835 36.5175C29.655 36.2195 29.5408 35.9164 29.5408 35.6085C29.5408 35.2707 29.6401 35.0025 29.8388 34.8038C30.0475 34.5951 30.3207 34.4908 30.6584 34.4908C30.7379 34.4908 30.8174 34.5008 30.8969 34.5206C30.9763 34.5306 31.031 34.5355 31.0608 34.5355L31.2545 34.5653V36.9497L31.5377 37.0689C31.7165 37.1384 31.9201 37.1732 32.1486 37.1732C32.6354 37.1732 33.0328 37.044 33.3408 36.7857C33.6488 36.5274 33.8872 36.0506 34.0561 35.3551C34.225 34.6597 34.3094 33.6762 34.3094 32.4045C34.22 32.5536 34.0809 32.7026 33.8922 32.8516C33.5147 33.1496 33.0825 33.2987 32.5957 33.2987C31.8705 33.2987 31.2347 33.1645 30.6882 32.8963C30.1518 32.6181 29.7395 32.2356 29.4514 31.7488C29.1633 31.262 29.0192 30.7107 29.0192 30.0947C29.0192 29.0317 29.3471 28.1972 30.0027 27.5912C30.6684 26.9752 31.6072 26.6672 32.8192 26.6672C34.071 26.6672 35.0545 27.1143 35.7698 28.0084C36.4851 28.9025 36.8428 30.2686 36.8428 32.1065C36.8428 33.8947 36.4504 35.2508 35.6655 36.1748C34.8906 37.0887 33.8177 37.5457 32.4467 37.5457ZM32.8937 32.9261C33.3011 32.9261 33.6239 32.7274 33.8624 32.33C34.1107 31.9326 34.2349 31.3117 34.2349 30.4673C34.2349 29.2056 34.0958 28.3065 33.8177 27.77C33.5494 27.2335 33.2166 26.9653 32.8192 26.9653C32.6205 26.9653 32.4218 27.0646 32.2232 27.2633C32.0344 27.462 31.8754 27.7849 31.7463 28.232C31.6171 28.679 31.5526 29.2503 31.5526 29.9457C31.5526 30.6411 31.6171 31.2124 31.7463 31.6594C31.8854 32.1065 32.0543 32.4294 32.253 32.6281C32.4616 32.8268 32.6752 32.9261 32.8937 32.9261Z" fill="#E24C1A" stroke="none"/>
        <path d="M42.8574 37.5457C42.1818 37.5358 41.5361 37.3719 40.9201 37.054C40.6817 36.9248 40.4582 36.7659 40.2495 36.5771C40.1105 36.8056 39.9366 37.0093 39.728 37.1881C39.5491 37.3172 39.4498 37.3868 39.4299 37.3967H39.0574V34.5653H39.6535C39.8025 35.0521 40.0111 35.4893 40.2793 35.8767C40.8854 36.741 41.6702 37.1732 42.6339 37.1732C42.7531 37.1732 42.8276 37.1682 42.8574 37.1583V33.3583L42.1719 32.9559C41.5261 32.5784 41.0046 32.2456 40.6072 31.9575C40.2197 31.6594 39.8869 31.2918 39.6087 30.8547C39.3405 30.4077 39.2064 29.8811 39.2064 29.2751C39.2064 28.7883 39.3405 28.3512 39.6087 27.9637C39.8869 27.5663 40.2992 27.2534 40.8456 27.0249C41.392 26.7865 42.0626 26.6672 42.8574 26.6672V25.6986H43.3045V26.7119C43.8608 26.8113 44.3277 26.9852 44.7053 27.2335C44.9039 27.3527 45.0828 27.4869 45.2417 27.6359C45.4106 27.3776 45.5845 27.1739 45.7633 27.0249C45.9421 26.8957 46.0415 26.8262 46.0613 26.8163H46.4339V29.6477H45.8378C45.6987 29.1708 45.5149 28.7535 45.2864 28.3959C45.0579 28.0283 44.7748 27.7203 44.437 27.472C44.1092 27.2236 43.7316 27.0845 43.3045 27.0547V30.7504C43.5826 30.9292 43.8807 31.1081 44.1986 31.2869C44.8145 31.6346 45.3063 31.9475 45.6739 32.2257C46.0514 32.5039 46.3693 32.8417 46.6276 33.239C46.8959 33.6364 47.03 34.1034 47.03 34.6398C47.03 35.1465 46.8909 35.6134 46.6127 36.0406C46.3345 36.4678 45.9123 36.8155 45.346 37.0838C44.7897 37.3421 44.1092 37.4911 43.3045 37.5308V38.5144H42.8574V37.5457ZM42.8574 27.0845C42.5296 27.164 42.2613 27.3478 42.0527 27.6359C41.8441 27.924 41.7397 28.2717 41.7397 28.679C41.7397 29.0367 41.8341 29.3595 42.0229 29.6477C42.2216 29.9258 42.4997 30.1941 42.8574 30.4524V27.0845ZM43.3045 37.0689C43.672 36.9497 43.9601 36.7361 44.1688 36.4281C44.3873 36.1201 44.4966 35.7476 44.4966 35.3104C44.4966 34.9826 44.3923 34.6845 44.1837 34.4163C43.975 34.1381 43.682 33.8749 43.3045 33.6265V37.0689Z" stroke="none" fill="#E24C1A"/>
  </g>

</svg>