<svg width="61" height="56" viewBox="0 0 61 56" fill="none" 
    xmlns="http://www.w3.org/2000/svg">
    <circle className="iconCircle" cx="25" cy="30" r="25"></circle>
    <path fill-rule="evenodd" clip-rule="evenodd" d="M19.8001 7.05036C29.1726 -2.32147 44.3677 -2.32147 53.7401 7.05036C62.7001 16.0004 62.7201 30.2704 53.7701 41.0004C50.0301 45.4304 44.8001 48.0004 40.1701 48.0004C38.4771 48.0244 36.8032 47.6402 35.2901 46.8804C31.1001 44.7104 29.6401 39.8504 31.2901 33.5404C31.6628 32.5347 31.5637 31.4149 31.0201 30.4904C29.8201 28.8104 26.5501 28.5504 23.3801 28.3004L23.3281 28.2961C20.5575 28.0677 17.952 27.853 16.6501 26.6704C14.7001 24.8947 13.577 22.3876 13.5501 19.7504C13.4801 16.8804 14.5001 12.3504 19.8001 7.05036ZM35.7601 45.9904C40.7401 48.5604 48.1501 46.1104 53.0001 40.3104C61.6001 30.0004 61.6201 16.3404 53.0001 7.76036C44.038 -1.18162 29.5343 -1.19949 20.5501 7.72036C15.4701 12.8104 14.4801 17.0504 14.5501 19.7204C14.5752 22.0843 15.578 24.3323 17.3201 25.9304C18.3801 26.8904 20.9601 27.1004 23.4601 27.2904L23.5327 27.2964C26.8809 27.5745 30.3806 27.8651 31.8301 29.9104C32.5637 31.072 32.7222 32.5065 32.2601 33.8004C30.7601 39.6104 32.0201 44.0604 35.7601 45.9904Z" fill="#231F20"/>
    <path fill-rule="evenodd" clip-rule="evenodd" d="M49.5804 22.1501C49.0977 22.1486 48.6195 22.057 48.1704 21.8801C47.2122 21.534 46.4336 20.8168 46.0104 19.8901C45.6209 18.9453 45.6209 17.8849 46.0104 16.9401C46.5807 15.4927 47.968 14.5324 49.5236 14.5083C51.0791 14.4842 52.4955 15.401 53.1104 16.8301C53.9257 18.7632 53.034 20.9925 51.1104 21.8301C50.6288 22.0439 50.1073 22.153 49.5804 22.1501ZM49.5804 15.4601C48.416 15.4667 47.3719 16.1786 46.9404 17.2601V17.2201C46.3668 18.6808 47.0821 20.3304 48.5404 20.9101C49.2336 21.2052 50.0171 21.2052 50.7104 20.9101C51.4068 20.6165 51.955 20.0539 52.2304 19.3501C52.798 17.8895 52.0846 16.244 50.6304 15.6601C50.2957 15.5294 49.9397 15.4616 49.5804 15.4601Z" fill="#231F20"/>
    <path fill-rule="evenodd" clip-rule="evenodd" d="M38.4116 37.8011C38.0403 36.0123 38.9806 34.2096 40.66 33.4905V33.5405C41.9362 32.8187 43.5121 32.8867 44.7214 33.7156C45.9308 34.5445 46.5626 35.9898 46.3497 37.4404C46.1369 38.8911 45.1165 40.0939 43.72 40.5405C43.2378 40.7523 42.7167 40.8613 42.19 40.8605C40.3631 40.8694 38.783 39.5899 38.4116 37.8011ZM40.4652 39.3278C41.2939 39.9344 42.3855 40.0463 43.32 39.6205C44.5627 39.0876 45.2573 37.7524 44.9804 36.429C44.7036 35.1055 43.5321 34.1607 42.18 34.1705C41.7941 34.1722 41.4127 34.2539 41.06 34.4105C40.1106 34.802 39.4465 35.6755 39.3231 36.695C39.1998 37.7146 39.6365 38.7213 40.4652 39.3278Z" fill="#231F20"/>
    <path fill-rule="evenodd" clip-rule="evenodd" d="M27.1172 11.6922C26.7472 9.90762 27.6792 8.10811 29.3503 7.38064C30.7864 6.75543 32.4582 7.06263 33.5783 8.15758C34.6984 9.25252 35.0434 10.9169 34.451 12.3669C33.8585 13.8169 32.4466 14.7634 30.8803 14.7606C29.0577 14.7575 27.4871 13.4768 27.1172 11.6922ZM28.2653 12.0356C28.8866 13.4771 30.5588 14.142 32.0003 13.5206C33.2411 12.9884 33.9357 11.6561 33.6616 10.334C33.3875 9.01198 32.2204 8.06568 30.8703 8.07064C30.4849 8.0677 30.1033 8.14607 29.7503 8.30064C28.3088 8.92196 27.6439 10.5942 28.2653 12.0356Z" fill="#231F20"/>
    <path fill-rule="evenodd" clip-rule="evenodd" d="M41.7599 14.5801C41.2772 14.5796 40.7988 14.488 40.3499 14.3101H40.3399C38.364 13.5256 37.398 11.288 38.1821 9.31196C38.9662 7.33589 41.2035 6.36935 43.1798 7.15296C45.156 7.93658 46.1231 10.1737 45.3399 12.1501C44.7532 13.6139 43.3369 14.5752 41.7599 14.5801ZM42.8046 8.09653C41.347 7.5199 39.6979 8.23314 39.1199 9.69015C38.8417 10.3916 38.854 11.1749 39.1542 11.8672C39.4544 12.5595 40.0178 13.1039 40.7199 13.3801C42.1786 13.9541 43.8263 13.2378 44.4016 11.7797C44.9769 10.3216 44.2621 8.67317 42.8046 8.09653Z" fill="#231F20"/>
    <path fill-rule="evenodd" clip-rule="evenodd" d="M21.7701 15.1982C22.708 14.7911 23.7695 14.7738 24.7202 15.1503H24.6702C26.6437 15.9382 27.6092 18.1732 26.8302 20.1503C26.2434 21.614 24.8271 22.5753 23.2502 22.5803C21.7172 22.5765 20.3318 21.6659 19.7202 20.2603C19.3257 19.32 19.3257 18.2606 19.7202 17.3203C20.0945 16.3687 20.8321 15.6052 21.7701 15.1982ZM24.4302 21.3403C25.1235 21.0455 25.6681 20.4828 25.9402 19.7803H25.9002C26.1817 19.0804 26.1722 18.297 25.8737 17.6041C25.5751 16.9113 25.0123 16.3663 24.3102 16.0903C23.9923 15.9616 23.6531 15.8938 23.3102 15.8903C22.1572 15.8904 21.1188 16.5876 20.6821 17.6547C20.2455 18.7217 20.4972 19.9469 21.3193 20.7552C22.1414 21.5636 23.3706 21.7948 24.4302 21.3403Z" fill="#231F20"/>
    <path fill-rule="evenodd" clip-rule="evenodd" d="M47.369 26.187C48.4439 25.3328 49.8929 25.1168 51.1701 25.6206C52.1209 25.9929 52.8843 26.7285 53.2915 27.6649C53.6987 28.6013 53.7162 29.6613 53.3401 30.6106C52.7533 32.0743 51.337 33.0357 49.7601 33.0406C49.2772 33.041 48.7987 32.9494 48.3501 32.7706C47.0729 32.2668 46.1614 31.12 45.959 29.762C45.7567 28.404 46.2942 27.0412 47.369 26.187ZM49.0523 31.9407C50.4371 32.2977 51.8713 31.5693 52.4001 30.2406C52.9747 28.7826 52.2644 27.1343 50.8101 26.5506C50.4762 26.4169 50.1197 26.349 49.7601 26.3506C48.33 26.3512 47.1234 27.4151 46.9438 28.8338C46.7642 30.2526 47.6675 31.5836 49.0523 31.9407Z" fill="#231F20"/>
</svg>
