<?xml version="1.0" encoding="UTF-8"?>
<svg width="75px" height="57px" viewBox="0 0 76 52" version="1.1">
    <circle className="iconCircle" fill="#F7DFD7" cx="25" cy="30" r="25"></circle>
    <g transform="translate(28.000000, 0.000000)">
        <rect x="0" y="0" width="48" height="48" fill="none" fill-rule="evenodd"></rect>
        <path d="M34.15,12.83 C30.7,9.37 25.15,7.11 18.94,7.11 C8.5,7.11 0,13.42 0,21.18 C0,25.1 2.11,28.74 6,31.43 C6.44,31.78 6.49,34.84 6.11,37.99 C6.08430561,38.1971646 6.19268216,38.397862 6.38,38.49 C6.56211819,38.5904567 6.78821324,38.5621948 6.94,38.42 C9.1,36.5 11.8,34.42 12.35,34.36 C14.5127424,34.9563565 16.7465512,35.2557676 18.99,35.25 C19.48,35.25 19.99,35.25 20.45,35.25 C23.6709663,37.0537076 27.3086201,37.9812231 31,37.94 C32.9967223,37.9460842 34.9849786,37.6803105 36.91,37.15 C37.45,37.15 39.85,39.06 41.76,40.76 C41.8529739,40.8445134 41.9743584,40.8909252 42.1,40.8900136 C42.1805992,40.8904956 42.2599139,40.8698048 42.33,40.83 C42.5131142,40.7335553 42.6197877,40.5360117 42.6,40.33 C42.27,37.57 42.31,34.84 42.67,34.5 C46.1,32.08 48,28.81 48,25.27 C48,19.19 42.18,14 34.15,12.83 Z M12.56,33.4 C11.71,33.16 9.34,34.98 7.19,36.83 C7.39,34.58 7.5,31.29 6.53,30.61 C3,28.12 1,24.77 1,21.18 C1,14 9.05,8.11 18.94,8.11 C28.83,8.11 36.88,14 36.88,21.18 C36.88,28.36 28.88,34.25 18.94,34.25 C16.7845514,34.2584798 14.6380449,33.9725032 12.56,33.4 L12.56,33.4 Z M42.07,33.68 C41.19,34.29 41.27,37.15 41.44,39.17 C38.91,37 37.31,35.99 36.67,36.17 C34.8135103,36.6818963 32.8957555,36.9375969 30.97,36.93 C27.9470536,36.9364701 24.9597279,36.2775514 22.22,35 C31.11,33.84 37.88,28.08 37.88,21.15 C37.8403334,18.5337446 36.9050142,16.0101476 35.23,14 C42.12,15.41 47,20 47,25.27 C47,28.47 45.25,31.45 42.07,33.68 Z" id="_99.8" fill="#231F20" fill-rule="nonzero"></path>
    </g>
</svg>