<svg width="57" height="57" viewBox="0 0 57 57" fill="none" xmlns="http://www.w3.org/2000/svg">
<path d="M47.6352 9.67024C47.6287 9.56313 47.5813 9.46255 47.5027 9.38908C47.4241 9.31561 47.3202 9.2748 47.2124 9.27499H21.6707C21.6145 9.27527 21.5589 9.28669 21.5072 9.30858C21.4555 9.33048 21.4087 9.3624 21.3696 9.40249L9.48599 21.3875C9.44705 21.4258 9.41622 21.4715 9.39531 21.5219C9.37441 21.5722 9.36385 21.6263 9.36427 21.6807V47.1297C9.36427 47.2413 9.40882 47.3484 9.48811 47.4273C9.5674 47.5062 9.67495 47.5505 9.78708 47.5505H35.3288C35.384 47.5497 35.4384 47.5381 35.489 47.5162C35.5396 47.4943 35.5853 47.4626 35.6235 47.423L47.5135 35.4125C47.5524 35.3742 47.5833 35.3285 47.6042 35.2781C47.6251 35.2278 47.6356 35.1737 47.6352 35.1192V9.67024ZM35.7452 34.673V21.8784L46.796 10.6966V34.673H35.7452ZM46.2066 35.5145L35.7452 46.1034V35.5145H46.2066ZM21.2222 34.9216L10.2035 46.1034V22.127H21.2479L21.2222 34.9216ZM10.7929 21.2855L21.2479 10.6966V21.2855H10.7929ZM22.0935 22.127H34.906V34.673H22.0935V22.127ZM46.2066 10.091L35.1494 21.2855H22.0935V10.091H46.2066ZM10.7929 46.709L21.8436 35.5145H34.906V46.709H10.7929Z" fill="black"/>
</svg>
