<svg width="41" height="51" viewBox="0 0 41 51" fill="black"
    xmlns="http://www.w3.org/2000/svg">
    <path transform="translate(0.000000, 7.000000)" d="M39.6352 1.67024C39.6287 1.56313 39.5813 1.46255 39.5027 1.38908C39.4241 1.31561 39.3202 1.2748 39.2124 1.27499H13.6707C13.6145 1.27527 13.5589 1.28669 13.5072 1.30858C13.4555 1.33048 13.4087 1.3624 13.3696 1.40249L1.48599 13.3875C1.44705 13.4258 1.41622 13.4715 1.39531 13.5219C1.37441 13.5722 1.36385 13.6263 1.36427 13.6807V39.1297C1.36427 39.2413 1.40882 39.3484 1.48811 39.4273C1.5674 39.5062 1.67495 39.5505 1.78708 39.5505H27.3288C27.384 39.5497 27.4384 39.5381 27.489 39.5162C27.5396 39.4943 27.5853 39.4626 27.6235 39.423L39.5135 27.4125C39.5524 27.3742 39.5833 27.3285 39.6042 27.2781C39.6251 27.2278 39.6356 27.1737 39.6352 27.1192V1.67024ZM27.7452 26.673V13.8784L38.796 2.69662V26.673H27.7452ZM38.2066 27.5145L27.7452 38.1034V27.5145H38.2066ZM13.2222 26.9216L2.20349 38.1034V14.127H13.2479L13.2222 26.9216ZM2.79286 13.2855L13.2479 2.69662V13.2855H2.79286ZM14.0935 14.127H26.906V26.673H14.0935V14.127ZM38.2066 2.09099L27.1494 13.2855H14.0935V2.09099H38.2066ZM2.79286 38.709L13.8436 27.5145H26.906V38.709H2.79286Z" />
</svg>
