<svg width="50" height="62" viewBox="0 0 50 62" fill="black"
    xmlns="http://www.w3.org/2000/svg">
    <path transform="translate(0.000000, 7.000000)" d="M29.0002 13.4416V10.168H31.5502L29.9002 1.93445H20.1002L18.4502 10.1184H24.6002V17.36H6.4502C6.1502 17.36 5.9502 17.5584 5.9502 17.856V42.7552C5.9502 43.0528 6.1502 43.2512 6.4502 43.2512H9.5002V47.12H10.5002V43.2512H39.5002V47.12H40.5002V43.2512H43.5502C43.8502 43.2512 44.0502 43.0528 44.0502 42.7552V17.9056C44.0502 17.608 43.8502 17.4096 43.5502 17.4096H25.5502V10.168H28.0002V13.4416H29.0002ZM6.9502 26.3376H24.5002V42.3088H6.9502V26.3376ZM25.5002 42.3088V26.3376H43.0502V42.3088H25.5002ZM43.0502 25.3456H6.9502V18.4016H43.0502V25.3456ZM20.9002 2.92645H29.0502L30.3002 9.12645H19.6502L20.9002 2.92645Z" />
</svg>
