<svg width="66" height="66" viewBox="0 0 66 66" fill="black"
    xmlns="http://www.w3.org/2000/svg">
    <path d="M62.2378 48.6752H50.8858V26.568C50.8858 26.3712 50.8198 26.24 50.6218 26.1744L32.5378 16.0064C32.4058 15.9408 32.2078 15.9408 32.0758 16.0064L13.9918 26.1088C13.8598 26.1744 13.7278 26.3712 13.7278 26.5024V48.6096H3.7618C3.4978 48.6096 3.2998 48.8064 3.2998 49.0688C3.2998 49.3312 3.4978 49.528 3.7618 49.528H62.1718C62.4358 49.528 62.6338 49.3312 62.6338 49.0688C62.6998 48.872 62.5018 48.6752 62.2378 48.6752ZM14.7178 26.8304L32.3398 16.9904L49.8958 26.8304V48.6752H35.5738V40.8688C35.5738 40.6064 35.3758 40.4096 35.1118 40.4096H29.5678C29.3038 40.4096 29.1058 40.6064 29.1058 40.8688V48.6752H14.7178V26.8304ZM30.0298 48.6752V41.328H34.5838V48.6752H30.0298Z"/>
    <path d="M39.732 45.9856H44.418C44.682 45.9856 44.88 45.7888 44.88 45.5264V40.8688C44.88 40.6064 44.682 40.4096 44.418 40.4096H39.732C39.468 40.4096 39.27 40.6064 39.27 40.8688V45.5264C39.204 45.7232 39.468 45.9856 39.732 45.9856ZM40.194 41.328H43.89V45.0016H40.194V41.328Z" />
    <path d="M24.8824 40.344H20.1964C19.9324 40.344 19.7344 40.5408 19.7344 40.8032V45.4608C19.7344 45.7232 19.9324 45.92 20.1964 45.92H24.8824C25.1464 45.92 25.3444 45.7232 25.3444 45.4608V40.8032C25.4104 40.6064 25.2124 40.344 24.8824 40.344ZM24.4204 45.0016H20.7244V41.328H24.4204V45.0016Z" />
    <path d="M39.732 34.8991H44.418C44.682 34.8991 44.88 34.7023 44.88 34.4399V29.7823C44.88 29.5199 44.682 29.3231 44.418 29.3231H39.732C39.468 29.3231 39.27 29.5199 39.27 29.7823V34.4399C39.204 34.7023 39.468 34.8991 39.732 34.8991ZM40.194 30.3071H43.89V33.9807H40.194V30.3071Z" />
    <path d="M24.8824 29.3231H20.1964C19.9324 29.3231 19.7344 29.5199 19.7344 29.7823V34.4399C19.7344 34.7023 19.9324 34.8991 20.1964 34.8991H24.8824C25.1464 34.8991 25.3444 34.7023 25.3444 34.4399V29.7823C25.4104 29.5199 25.2124 29.3231 24.8824 29.3231ZM24.4204 33.9151H20.7244V30.2415H24.4204V33.9151Z" />
    <path d="M29.7003 34.8991H34.3863C34.6503 34.8991 34.8483 34.7023 34.8483 34.4399V29.7823C34.8483 29.5199 34.6503 29.3231 34.3863 29.3231H29.7003C29.4363 29.3231 29.2383 29.5199 29.2383 29.7823V34.4399C29.2383 34.7023 29.4363 34.8991 29.7003 34.8991ZM30.2283 30.3071H33.9243V33.9807H30.2283V30.3071Z" />
</svg>
