<svg width="57" height="57" viewBox="0 0 57 57" fill="none" xmlns="http://www.w3.org/2000/svg">
<path d="M54.6349 44.1363H44.497V21.7465C44.497 21.5471 44.438 21.4143 44.2612 21.3478L28.1112 11.0498C27.9933 10.9834 27.8165 10.9834 27.6986 11.0498L11.5486 21.2814C11.4307 21.3478 11.3128 21.5471 11.3128 21.68V44.0699H2.41259C2.17682 44.0699 2 44.2692 2 44.5349C2 44.8007 2.17682 45 2.41259 45H54.576C54.8117 45 54.9886 44.8007 54.9886 44.5349C55.0475 44.3356 54.8707 44.1363 54.6349 44.1363ZM12.1969 22.0122L27.9343 12.0464L43.6128 22.0122V44.1363H30.8225V36.2301C30.8225 35.9643 30.6457 35.765 30.4099 35.765H25.4588C25.223 35.765 25.0462 35.9643 25.0462 36.2301V44.1363H12.1969V22.0122ZM25.8714 44.1363V36.6952H29.9384V44.1363H25.8714Z" fill="black"/>
<path d="M35.4723 40.9855H40.1583C40.4223 40.9855 40.6203 40.7887 40.6203 40.5263V35.8687C40.6203 35.6063 40.4223 35.4095 40.1583 35.4095H35.4723C35.2083 35.4095 35.0103 35.6063 35.0103 35.8687V40.5263C34.9443 40.7231 35.2083 40.9855 35.4723 40.9855ZM35.9343 36.3279H39.6303V40.0015H35.9343V36.3279Z" fill="black"/>
<path d="M20.148 35.344H15.462C15.198 35.344 15 35.5408 15 35.8032V40.4608C15 40.7232 15.198 40.92 15.462 40.92H20.148C20.412 40.92 20.61 40.7232 20.61 40.4608V35.8032C20.676 35.6064 20.478 35.344 20.148 35.344ZM19.686 40.0016H15.99V36.328H19.686V40.0016Z" fill="black"/>
<path d="M35.4723 29.8991H40.1583C40.4223 29.8991 40.6203 29.7023 40.6203 29.4399V24.7823C40.6203 24.5199 40.4223 24.3231 40.1583 24.3231H35.4723C35.2083 24.3231 35.0103 24.5199 35.0103 24.7823V29.4399C34.9443 29.7023 35.2083 29.8991 35.4723 29.8991ZM35.9343 25.3071H39.6303V28.9807H35.9343V25.3071Z" fill="black"/>
<path d="M20.148 24.3231H15.462C15.198 24.3231 15 24.5199 15 24.7823V29.4399C15 29.7023 15.198 29.8991 15.462 29.8991H20.148C20.412 29.8991 20.61 29.7023 20.61 29.4399V24.7823C20.676 24.5199 20.478 24.3231 20.148 24.3231ZM19.686 28.9151H15.99V25.2415H19.686V28.9151Z" fill="black"/>
<path d="M25.7003 29.8991H30.3863C30.6503 29.8991 30.8483 29.7023 30.8483 29.4399V24.7823C30.8483 24.5199 30.6503 24.3231 30.3863 24.3231H25.7003C25.4363 24.3231 25.2383 24.5199 25.2383 24.7823V29.4399C25.2383 29.7023 25.4363 29.8991 25.7003 29.8991ZM26.2283 25.3071H29.9243V28.9807H26.2283V25.3071Z" fill="black"/>
</svg>
