<?xml version="1.0" encoding="UTF-8"?>
<svg width="75px" height="57px" viewBox="0 0 78 52" version="1.1">
    <circle className="iconCircle" fill="#F7DFD7" cx="25" cy="30" r="25"></circle>
    <g id="99.3" transform="translate(26.000000, 2.000000)">
        <rect id="Rectangle" x="2" y="0" width="48" height="48" fill="none" fill-rule="evenodd"></rect>
        <path d="M41.7191667,14.0449012 C37.2125,14.0449012 29.6075,20.161894 26.5525,22.7678857 L26.5525,22.7678857 L24.7,24.3380229 C22.3925,26.3225019 14.5166667,32.7993179 10.2808333,32.7993179 C5.36158893,32.8785912 1.29918411,28.9504195 1.18083333,24.0000072 C1.27571389,19.0324371 5.34504756,15.0780619 10.2808333,15.1570817 C14.4083333,15.1570817 22.1108333,21.4267268 24.3641667,23.3457834 C24.5209169,23.4801791 24.7369965,23.5201972 24.9310103,23.4507632 C25.1250241,23.3813292 25.2674968,23.2129918 25.3047603,23.0091621 C25.3420238,22.8053324 25.268417,22.5969769 25.1116667,22.4625812 C21.385,19.3004993 14.5058333,14.0012862 10.27,14.0012862 C4.69165589,13.9101945 0.0949413884,18.3854881 0,24.0000072 C0.0949761802,29.6058837 4.6783922,34.0776643 10.2483333,33.9987282 C14.7441667,33.9987282 22.36,27.8817353 25.415,25.2757437 L27.365,23.6510879 L27.365,23.6510879 C29.7808333,21.579379 37.505,15.266119 41.6866667,15.266119 C46.5938354,15.1681326 50.6658258,19.0623903 50.8191667,24.0000072 C50.7242861,28.9675774 46.6549524,32.9219526 41.7191667,32.8429328 C37.5916667,32.8429328 29.8783333,26.5732877 27.6358333,24.6433273 C27.4813022,24.4937741 27.256864,24.4433256 27.0538008,24.5124999 C26.8507376,24.5816743 26.7028756,24.7589485 26.6703524,24.9722226 C26.6378293,25.1854968 26.7260626,25.3992437 26.8991667,25.5265295 C29.8891667,28.0780025 37.3425,33.9987282 41.7408333,33.9987282 C47.3149765,34.0837375 51.905038,29.6102022 52,24.0000072 C51.8815094,18.3983135 47.2851152,13.9475467 41.7191667,14.0449012 Z" id="_99.3" fill="#231F20" fill-rule="nonzero"></path>
    </g>
</svg>