<?xml version="1.0" encoding="UTF-8"?>
<svg width="265px" height="529px" viewBox="0 0 265 529" version="1.1" xmlns="http://www.w3.org/2000/svg" xmlns:xlink="http://www.w3.org/1999/xlink">
    <!-- Generator: sketchtool 64 (101010) - https://sketch.com -->
    <title>0AFAE47E-A826-4551-8398-A0D7ADE2AFD4</title>
    <desc>Created with sketchtool.</desc>
    <g id="Page-1" stroke="none" stroke-width="1" fill="none" fill-rule="evenodd">
        <g id="Landing-Page" transform="translate(-1000.000000, -215.000000)" fill="#231F20">
            <g id="lamp" transform="translate(1000.000000, 215.000000)">
                <path d="M264.6,500.85 C264.6,489.15 239.94,479.52 208.26,478.8 L208.26,76.68 C208.26,50.49 202.05,30.69 189.72,17.82 C183.42,11.16 175.41,6.39 165.96,3.6 C157.86,1.8 150.03,0.81 142.65,0.72 C135.45,0.9 127.71,1.8 119.61,3.6 L119.52,3.6 C110.16,6.39 102.15,11.16 95.76,17.82 C83.61,30.6 77.4,50.13 77.31,75.96 L12.06,75.96 L0.36,168.66 L164.16,168.66 L153.45,76.41 L153.36,76.05 L86.31,76.05 C86.4,52.2 91.62,34.47 101.88,23.4 C110.07,14.49 121.59,9.45 137.07,8.1 C139.05,7.92 140.94,7.83 142.83,7.83 C144.72,7.83 146.61,7.92 148.59,8.1 C163.98,9.45 175.5,14.4 183.78,23.4 C194.13,34.65 199.35,52.56 199.35,76.77 C199.35,166.23 199.98,301.5 201.15,478.98 C169.65,479.7 144.99,489.33 144.99,501.03 C144.99,501.93 145.17,502.83 145.44,503.73 L145.44,503.73 C145.17,504.63 144.99,505.53 144.99,506.43 C144.99,518.58 171.81,528.48 204.84,528.48 C237.87,528.48 264.69,518.58 264.69,506.43 C264.69,505.53 264.51,504.63 264.24,503.73 C264.42,502.65 264.6,501.75 264.6,500.85 Z M163.17,167.76 L1.44,167.76 L12.87,76.86 L152.55,76.86 L163.17,167.76 Z M201.06,479.7 C201.06,485.91 201.15,492.21 201.15,498.6 L202.05,498.6 C200.79,311.4 200.16,169.47 200.16,76.68 C200.16,52.29 194.85,34.11 184.32,22.68 C175.95,13.59 164.25,8.46 148.59,7.11 C146.61,6.93 144.63,6.84 142.74,6.84 L142.74,7.29 L142.74,6.84 C140.85,6.84 138.87,6.93 136.89,7.11 C121.23,8.46 109.53,13.5 101.16,22.68 C90.81,34.02 85.5,51.93 85.41,75.96 L78.21,75.96 C78.3,50.31 84.42,30.96 96.48,18.45 C102.69,11.97 110.52,7.29 119.7,4.5 L119.79,4.5 C127.8,2.7 135.54,1.8 142.74,1.62 C150.03,1.8 157.86,2.7 165.78,4.5 C175.05,7.2 182.88,11.88 189.09,18.45 C201.24,31.14 207.36,50.67 207.36,76.68 L207.36,498.6 L208.26,498.6 L208.26,479.7 C239.4,480.33 263.7,489.6 263.7,500.85 C263.7,512.55 237.24,522 204.75,522 C172.26,522 145.8,512.55 145.8,500.85 C145.8,489.69 170.01,480.42 201.06,479.7 Z M263.7,506.25 C263.7,517.95 237.24,527.4 204.75,527.4 C172.26,527.4 145.8,517.95 145.8,506.25 C145.8,505.8 145.89,505.35 145.89,504.9 C151.11,515.16 175.5,522.9 204.75,522.9 C234,522.9 258.39,515.16 263.61,504.9 C263.7,505.35 263.7,505.8 263.7,506.25 Z" id="Shape"></path>
                <rect id="Rectangle" transform="translate(23.809464, 122.774004) rotate(-82.997934) translate(-23.809464, -122.774004) " x="-8.13919184" y="122.324023" width="63.8973117" height="1"></rect>
                <rect id="Rectangle" transform="translate(51.588187, 124.099450) rotate(-85.003147) translate(-51.588187, -124.099450) " x="20.9881711" y="123.64945" width="61.2000317" height="1"></rect>
                <rect id="Rectangle" x="80.91" y="95.31" width="1" height="59.4"></rect>
                <rect id="Rectangle" transform="translate(111.061727, 124.112978) rotate(-4.999958) translate(-111.061727, -124.112978) " x="110.611725" y="93.5128172" width="1" height="61.2003218"></rect>
                <rect id="Rectangle" transform="translate(140.756805, 122.842971) rotate(-7.002066) translate(-140.756805, -122.842971) " x="140.306824" y="90.8943152" width="1" height="63.8973117"></rect>
            </g>
        </g>
    </g>
</svg>