<?xml version="1.0" encoding="UTF-8"?>
<svg width="75px" height="60px" viewBox="0 0 75 60" version="1.1" 
    xmlns="http://www.w3.org/2000/svg" 
    xmlns:xlink="http://www.w3.org/1999/xlink">
    <circle className="iconCircle" fill="#F7DFD7" cx="25" cy="30" r="25"></circle>
    <g transform="translate(23.000000, 0.000000)">
        <rect id="Rectangle" x="2" y="0" width="48" height="48" fill="none" fill-rule="evenodd"></rect>
        <path d="M40.6,23.3 L33.6,0.3 C33.5,0.1 33.3,0 33.1,0 L14.1,0 C13.9,0 13.7,0.1 13.6,0.4 L6.6,23.4 C6.6,23.6 6.7,23.9 7,24 C7,24 7.1,24 7.2,24 L14.3,24 L14.3,31.4 C13,31.7 12.3,32.9 12.5,34.2 C12.7,35.5 14,36.2 15.3,36 C16.6,35.8 17.3,34.5 17.1,33.2 C16.9,32.3 16.2,31.6 15.3,31.4 L15.3,24 L21.3,24 L21.3,44 L11.8,44 C11.5,44 11.3,44.2 11.3,44.5 C11.3,44.5 11.3,44.5 11.3,44.5 L11.3,47.5 C11.3,47.8 11.5,48 11.8,48 C11.8,48 11.8,48 11.8,48 L34.8,48 C35.1,48 35.3,47.8 35.3,47.5 C35.3,47.5 35.3,47.5 35.3,47.5 L35.3,44.5 C35.3,44.2 35.1,44 34.8,44 C34.8,44 34.8,44 34.8,44 L25.3,44 L25.3,24 L40.2,24 C40.4,24 40.5,23.9 40.6,23.8 C40.6,23.7 40.6,23.5 40.6,23.3 Z M16.1,33.7 C16.1,34.4 15.5,35 14.8,35 C14.1,35 13.5,34.4 13.5,33.7 C13.5,33 14.1,32.4 14.8,32.4 C15.5,32.4 16.1,33 16.1,33.7 Z M14.5,1 L32.7,1 M34.2,47 L12.2,47 L12.2,45 L34.2,45 L34.2,47 Z M24.2,44 L22.2,44 L22.2,24 L24.2,24 L24.2,44 Z M24.7,23 L7.8,23 L14.5,1 L32.7,1 L39.4,23 L24.7,23 Z" id="Visual.4" fill="#231F20" fill-rule="nonzero"></path>
    </g>
</svg>