<?xml version="1.0" encoding="UTF-8"?>
<svg width="75px" height="60px" viewBox="0 0 75 60" version="1.1" 
    xmlns="http://www.w3.org/2000/svg" 
    xmlns:xlink="http://www.w3.org/1999/xlink">
    <circle className="iconCircle" cx="25" cy="30" r="25"></circle>
    <g id="3D.2" transform="translate(28.000000, 0.000000)">
        <rect x="0" y="0" width="48" height="48" fill="none" fill-rule="evenodd"></rect>
        <g fill="#231F20" fill-rule="nonzero">
            <path d="M19,39.9400146 C23.7898214,39.9471122 28.2070546,37.357038 30.5397227,33.1736065 C32.8723908,28.9901751 32.7538336,23.8709586 30.23,19.8 C26,12.67 25.39,8.58 25.33,8 L25.33,6.21 C25.3244941,2.78259491 22.5474051,0.00550588229 19.12,-6.90558721e-16 L18.88,-6.90558721e-16 C15.4525949,0.00550588229 12.6755059,2.78259491 12.67,6.21 L12.67,8 C12.67,8 12.34,12.16 7.76,19.84 C5.26345185,23.9115391 5.16096515,29.014085 7.49200873,33.1825882 C9.8230523,37.3510913 14.2240016,39.9352979 19,39.9400146 Z M13.67,6.21 C13.6755026,3.33487881 16.0048788,1.00550264 18.88,1 L19.12,1 C21.9951212,1.00550264 24.3244974,3.33487881 24.33,6.21 L24.33,7.48 L13.67,7.48 L13.67,6.21 Z M8.62,20.31 C12.5,13.81 13.4,9.79 13.62,8.48 L24.38,8.48 C24.58,9.79 25.49,13.81 29.38,20.32 C32.555704,25.4379972 31.5248063,32.1071973 26.9520046,36.0274621 C22.3792029,39.9477269 15.6307971,39.9477269 11.0579954,36.0274621 C6.48519372,32.1071973 5.45429597,25.4379972 8.63,20.32 L8.62,20.31 Z" id="Shape"></path>
            <path d="M19,43.28 C18.7238576,43.28 18.5,43.5038576 18.5,43.78 L18.5,47.5 C18.5,47.7761424 18.7238576,48 19,48 C19.2761424,48 19.5,47.7761424 19.5,47.5 L19.5,43.78 C19.5,43.5038576 19.2761424,43.28 19,43.28 Z" id="Path"></path>
            <path d="M0.23,33.9 C0.267130309,34.0273039 0.35331114,34.1346438 0.469583694,34.1984062 C0.585856249,34.2621686 0.722696085,34.2771303 0.85,34.24 L4.42,33.24 C4.69614236,33.2013401 4.8886599,32.9461424 4.84999997,32.67 C4.81134004,32.3938576 4.55614237,32.2013401 4.28,32.24 L4.14,32.24 L0.57,33.24 C0.431333297,33.2732739 0.314041359,33.3653054 0.248735389,33.4920758 C0.183429419,33.6188462 0.176589232,33.7677771 0.23,33.9 L0.23,33.9 Z" id="Path"></path>
            <path d="M29.05,39.91 C28.9535701,39.8001717 28.8160671,39.7350387 28.67,39.73 C28.5520543,39.7284275 28.4378293,39.7712619 28.35,39.85 C28.2469868,39.9356095 28.1826292,40.0589709 28.1713503,40.1924381 C28.1600714,40.3259052 28.2028143,40.4583174 28.29,40.56 L30.69,43.4 C30.8061113,43.5357609 30.9858302,43.5992646 31.1614583,43.5665897 C31.3370864,43.5339148 31.4819415,43.4100255 31.5414583,43.2415897 C31.600975,43.0731538 31.5661113,42.8857609 31.45,42.75 L29.05,39.91 Z" id="Path"></path>
            <path d="M9.33,39.73 C9.18393293,39.7350387 9.04642988,39.8001717 8.95,39.91 L6.55,42.75 C6.43388867,42.8857609 6.39902496,43.0731538 6.45854171,43.2415897 C6.51805846,43.4100255 6.66291365,43.5339148 6.83854173,43.5665897 C7.01416981,43.5992646 7.19388869,43.5357609 7.31,43.4 L9.71,40.56 C9.88853434,40.3489027 9.86635754,40.0339922 9.66,39.85 C9.56724143,39.7729466 9.45058649,39.7305266 9.33,39.73 L9.33,39.73 Z" id="Path"></path>
            <path d="M33.58,33.2 L37.15,34.2 C37.4150967,34.2773199 37.6926801,34.1250967 37.77,33.86 C37.8100032,33.732675 37.7963398,33.5945417 37.7321673,33.4775212 C37.6679947,33.3605007 37.5588662,33.2747192 37.43,33.24 L33.86,32.24 L33.72,32.24 C33.4438576,32.2013401 33.18866,32.3938576 33.15,32.67 C33.1113401,32.9461424 33.3038576,33.2013401 33.58,33.24 L33.58,33.2 Z" id="Path"></path>
        </g>
    </g>
</svg>