<?xml version="1.0" encoding="UTF-8"?>
<svg width="75px" height="57px" viewBox="0 0 75 57" version="1.1">
    <circle className="iconCircle" fill="#F7DFD7" cx="25" cy="30" r="25"></circle>
    <g transform="translate(25.000000, 0.000000)">
        <rect x="0" y="0" width="48" height="48" fill="none" fill-rule="evenodd"></rect>
        <g transform="translate(7.000000, 1.000000)" fill="#231F20" fill-rule="nonzero">
            <path d="M17,46 C16.3059997,45.9960149 15.6482868,45.6809953 15.1992316,45.1375 C10.6273326,39.6366667 0,25.9708333 0,18.02625 C0,8.08833333 7.66959385,0 17,0 C26.3304061,0 34,8.08833333 34,18.02625 C34,25.9995833 23.3726674,39.6366667 18.8007684,45.1375 C18.3517132,45.6809953 17.6940003,45.9960149 17,46 Z M17.0278581,1 C8.1919876,1 1,8.67580182 1,18.0306853 C1,25.8887874 12.4604789,40.2809158 15.9443898,44.5122016 C16.2120685,44.8224245 16.5962878,45 16.9998373,45 C17.4033869,45 17.7876062,44.8224245 18.0552849,44.5122016 C21.5672165,40.2809158 32.9996747,25.8887874 32.9996747,18.0306853 C33.0557162,8.61823331 25.8637286,1 17.0278581,1 Z" id="Shape"></path>
            <path d="M17.0011779,26 C13.3803518,26.0004223 10.2107192,23.568581 9.27340464,20.0710102 C8.33609006,16.5734395 9.86483912,12.8823569 13.0005957,11.0719071 C16.1363523,9.26145742 20.0971276,9.78312707 22.6572272,12.3437722 L22.6572272,12.3437722 C24.9446807,14.631713 25.6289032,18.0722856 24.3908913,21.0613991 C23.1528794,24.0505125 20.2363924,25.9996226 17.0011779,26 Z M16.9860386,11 C13.6488545,11.0067926 10.7805667,13.3685835 10.1335167,16.6424685 C9.48646681,19.9163536 11.2406248,23.1917366 14.3243116,24.4675669 C17.4079985,25.7433971 20.9635196,24.664816 22.8186777,21.8907679 C24.6738358,19.1167199 24.3126383,15.4187769 21.955754,13.0561469 L21.955754,13.0561469 C20.6362299,11.7427009 18.8478089,11.0090652 16.9860386,11.0174991 L16.9860386,11 Z" id="Shape"></path>
        </g>
    </g>
</svg>