<?xml version="1.0" encoding="UTF-8"?>
<svg width="75px" height="60px" viewBox="0 0 75 60" version="1.1" 
    xmlns="http://www.w3.org/2000/svg" 
    xmlns:xlink="http://www.w3.org/1999/xlink">
    <circle className="iconCircle" cx="25" cy="30" r="25"></circle>
    <g transform="translate(26.000000, 0.000000)">
        <rect x="0" y="0" width="48" height="48" fill="none" fill-rule="evenodd"></rect>
        <g fill="#231F20" fill-rule="nonzero">
            <path d="M42.11,6.84 C34.974722,-0.305337285 23.6256484,-0.992461768 15.6804277,5.23983359 C7.73520698,11.472129 5.69962873,22.6582825 10.94,31.29 L1.34,40.9 C-0.426438588,42.7963639 -0.359903373,45.7549631 1.49,47.57 C2.37960042,48.4440312 3.56372199,48.9540595 4.81,49.0004725 L5,49.0004725 C6.18881815,49.0173525 7.33471443,48.5561112 8.18,47.72 L17.82,38.08 C26.4631514,43.2201696 37.5812637,41.1200309 43.7538884,33.181258 C49.926513,25.242485 49.221762,13.9497294 42.11,6.84 Z M7.45,47 C6.75933545,47.6855332 5.81191471,48.0485297 4.84,48 C3.84561796,47.962847 2.90078542,47.5563907 2.19,46.86 C0.737429081,45.4403883 0.653847558,43.1308988 2,41.61 L11.45,32.16 C12.1534055,33.1998926 12.9536394,34.1708876 13.84,35.06 C14.7578381,35.9842822 15.7624655,36.818123 16.84,37.55 L7.45,47 Z M41.4,34.35 C33.9980105,41.746106 22.0022736,41.7429264 14.6042059,34.3428975 C7.20613819,26.9428687 7.20613819,14.9471313 14.6042059,7.54710247 C22.0022736,0.147073599 33.9980105,0.143894021 41.4,7.54 C48.7800124,14.9530398 48.7800124,26.9369602 41.4,34.35 L41.4,34.35 Z" id="Shape"></path>
            <path d="M38.08,10.87 C33.5167349,6.30371028 26.4550124,5.37259457 20.8641157,8.60001836 C15.273219,11.8274421 12.5478767,18.4082787 14.2199608,24.6435433 C15.8920449,30.878808 21.5444302,35.2130253 28,35.2100016 C33.7655549,35.2072981 38.9621973,31.7329929 41.1682141,26.4061626 C43.3742309,21.0793323 42.1555126,14.9482139 38.08,10.87 L38.08,10.87 Z M37.37,30.33 C32.1923946,35.4956368 23.8085343,35.4891693 18.6389049,30.3155503 C13.4692755,25.1419314 13.4692755,16.7580686 18.6389049,11.5844497 C23.8085343,6.41083075 32.1923946,6.40436322 37.37,11.57 C39.8813511,14.0451269 41.2952988,17.4239345 41.2952988,20.95 C41.2952988,24.4760655 39.8813511,27.8548731 37.37,30.33 Z" id="Shape"></path>
        </g>
    </g>
</svg>