<?xml version="1.0" encoding="UTF-8"?>
<svg width="75px" height="60px" viewBox="0 0 75 60" version="1.1" 
    xmlns="http://www.w3.org/2000/svg" 
    xmlns:xlink="http://www.w3.org/1999/xlink">
    <circle className="iconCircle" fill="#F7DFD7" cx="25" cy="30" r="25"></circle>
    <g transform="translate(23.000000, 0.000000)">
        <rect id="Rectangle" x="2" y="0" width="48" height="48" fill="none" fill-rule="evenodd"></rect>
        <g fill="#241F20" fill-rule="nonzero">
            <path d="M7.9,38.3 C6.8,38.3 5.8,39.2 5.8,40.4 C5.8,41.6 6.7,42.5 7.9,42.5 C9.1,42.5 10,41.6 10,40.4 C10,39.2 9,38.3 7.9,38.3 Z M7.9,41.4 C7.3,41.4 6.8,40.9 6.8,40.3 C6.8,39.7 7.3,39.2 7.9,39.2 C8.5,39.2 9,39.7 9,40.3 C9,40.9 8.5,41.4 7.9,41.4 Z" id="Shape"></path>
            <path d="M40.9,14.6 L36.9,10.6 C36.5,10.2 36,9.9 35.4,9.8 C35.1,9.3 34.8,8.9 34.3,8.6 L34.3,8.6 L29.5,5.5 C29,5.2 28.4,5 27.8,5 C27.5,4.6 27,4.2 26.5,4 L21.2,2 C20.6,1.8 20.1,1.7 19.5,1.8 C19.1,1.5 18.6,1.2 18,1.1 L12.4,0.2 C11.8,0.1 11.2,0.2 10.6,0.4 C10.1,0.1 9.6,0 9,0 L3.3,0.3 C1.5,0.5 0.1,2.2 0.1,4.1 L1.8,44.5 C1.8,45.5 2.3,46.4 3,47.1 C3.6,47.7 4.4,48 5.1,48 C5.2,48 5.2,48 5.3,48 L11,47.7 C12,47.6 12.9,47.1 13.5,46.2 C14,46 14.4,45.8 14.7,45.5 L40.9,19.3 C41.5,18.7 41.9,17.8 41.9,16.9 C41.9,16 41.5,15.2 40.9,14.6 Z M29,6.3 L33.8,9.4 L33.8,9.4 C34.2,9.6 34.4,10 34.6,10.4 C34.6,10.4 34.6,10.4 34.6,10.4 C34.8,10.8 34.8,11.1 34.8,11.5 C34.8,11.5 34.8,11.6 34.8,11.6 C34.8,11.7 34.8,11.9 34.7,12 C34.7,12 34.7,12.1 34.7,12.1 C34.6,12.3 34.6,12.4 34.5,12.6 L15.6,41.5 L28.5,8.3 C28.8,7.6 28.8,6.8 28.6,6.1 C28.7,6.1 28.8,6.2 29,6.3 Z M20.9,2.8 L26.2,4.8 C26.8,5 27.2,5.5 27.4,6 C27.6,6.6 27.6,7.2 27.4,7.8 L15.3,39.2 L20.8,4.8 C20.8,4.6 20.8,4.4 20.8,4.2 C20.8,4.1 20.8,4 20.8,4 C20.8,3.9 20.8,3.8 20.8,3.6 C20.8,3.5 20.8,3.4 20.7,3.3 C20.7,3.2 20.6,3.1 20.6,3 C20.6,2.9 20.5,2.8 20.5,2.7 C20.5,2.7 20.5,2.6 20.4,2.6 C20.5,2.7 20.7,2.8 20.9,2.8 Z M12.2,1.1 L17.8,2 C18.3,2.1 18.7,2.3 19,2.6 C19,2.6 19,2.6 19,2.6 C19.1,2.7 19.3,2.9 19.4,3 C19.4,3 19.4,3.1 19.4,3.1 C19.5,3.2 19.5,3.4 19.6,3.5 C19.6,3.5 19.6,3.6 19.6,3.6 C19.6,3.7 19.7,3.9 19.7,4 C19.7,4 19.7,4.1 19.7,4.1 C19.7,4.3 19.7,4.5 19.7,4.6 L14,40.3 L12.5,3.3 C12.5,2.4 12.1,1.6 11.6,1 C11.8,1.1 12,1.1 12.2,1.1 Z M11,46.7 L5.3,47 C4.7,47 4.2,46.8 3.7,46.4 C3.2,45.9 2.9,45.2 2.8,44.5 L1.1,4.1 C1.1,2.7 2.1,1.4 3.4,1.3 L9.1,1 C9.1,1 9.2,1 9.2,1 C9.7,1 10.2,1.2 10.7,1.6 C11.2,2.1 11.5,2.8 11.6,3.5 L13.3,43.9 C13.3,44 13.3,44.2 13.3,44.3 C13.3,44.4 13.3,44.6 13.2,44.7 C13.1,45 13,45.2 12.9,45.5 C12.9,45.5 12.9,45.5 12.9,45.5 C12.4,46.2 11.7,46.6 11,46.7 Z M40.2,18.6 L16.2,42.6 L35.4,13.1 C35.5,12.9 35.6,12.7 35.7,12.5 C35.7,12.4 35.7,12.4 35.8,12.3 C35.8,12.2 35.9,12 35.9,11.9 C35.9,11.8 35.9,11.7 35.9,11.7 C35.9,11.6 35.9,11.5 35.9,11.3 C35.9,11.2 35.9,11.1 35.9,11 C35.9,10.9 35.9,10.9 35.9,10.8 C36,10.9 36.1,11 36.2,11.1 L40.2,15.1 C40.6,15.5 40.9,16.1 40.9,16.8 C40.9,17.6 40.6,18.1 40.2,18.6 Z" id="Shape"></path>
        </g>
    </g>

</svg>