<?xml version="1.0" encoding="UTF-8"?>
<svg width="75px" height="60px" viewBox="0 0 75 60" version="1.1" 
    xmlns="http://www.w3.org/2000/svg" 
    xmlns:xlink="http://www.w3.org/1999/xlink">
    <circle className="iconCircle" cx="25" cy="30" r="25"></circle>
    <g transform="translate(23.000000, 2.000000)">
        <rect x="0" y="0" width="48" height="48" fill="none" fill-rule="evenodd"></rect>
        <path d="M41.28,27.22 C38.5480037,27.2145522 36.0160368,28.6516145 34.62,31 L17.39,25.67 C17.7224769,24.7528933 17.8949841,23.7855 17.9,22.81 C17.901645,21.0341277 17.3377345,19.3038681 16.29,17.87 L27.65,12.38 C28.8779267,14.3026281 31.3335848,15.028443 33.4094281,14.0823049 C35.4852714,13.1361668 36.5483222,10.8065774 35.9026761,8.61855459 C35.25703,6.43053178 33.099561,5.05125966 30.842612,5.38365046 C28.5856629,5.71604126 26.9174352,7.65874052 26.93,9.94 C26.934384,10.4664879 27.0325868,10.9879786 27.22,11.48 L15.64,17.07 C13.1277731,14.3582668 9.14453003,13.5942573 5.80725074,15.1840208 C2.46997145,16.7737843 0.553425497,20.3482475 1.07620233,24.0076854 C1.59897917,27.6671232 4.43971299,30.5619751 8.08863488,31.1537098 C11.7375568,31.7454446 15.3475475,29.8966874 17,26.59 L34.16,32 C33.7597744,32.9493173 33.5556831,33.9697742 33.56,35 C33.56,39.2636383 37.0163617,42.72 41.28,42.72 C45.5436383,42.72 49,39.2636383 49,35 C49,30.7363617 45.5436383,27.28 41.28,27.28 L41.28,27.22 Z M31.53,6.34 C33.5182251,6.34 35.13,7.9517749 35.13,9.94 C35.13,11.9282251 33.5182251,13.54 31.53,13.54 C29.5417749,13.54 27.93,11.9282251 27.93,9.94 C27.93,7.9517749 29.5417749,6.34 31.53,6.34 Z M9.45,30.25 C6.43584685,30.25 3.71867601,28.4337792 2.56614595,25.6486771 C1.41361589,22.863575 2.05284125,19.658414 4.18560029,17.5285178 C6.31835932,15.3986215 9.52437596,14.7637018 12.3079275,15.9199717 C15.091479,17.0762417 16.9040458,19.7958496 16.9000068,22.81 C16.8944824,26.9206156 13.5606193,30.25 9.45,30.25 Z M41.28,41.66 C38.5620137,41.66 36.1116579,40.0227246 35.0715295,37.5116327 C34.0314012,35.0005408 34.6063359,32.110149 36.5282424,30.1882424 C38.450149,28.2663359 41.3405408,27.6914012 43.8516327,28.7315295 C46.3627246,29.7716579 48,32.2220137 48,34.94 C47.9944928,38.64907 44.98907,41.6544928 41.28,41.66 Z" id="_3D.1" fill="#231F20" fill-rule="nonzero"></path>
    </g>
</svg>