<?xml version="1.0" encoding="UTF-8"?>
<svg width="75px" height="57px" viewBox="0 0 75 57" version="1.1">
    <circle className="iconCircle" fill="#F7DFD7" cx="25" cy="30" r="25"></circle>
    <g transform="translate(26.000000, 0.000000)">
        <rect x="0" y="0" width="48" height="48" fill="none" fill-rule="evenodd"></rect>
        <g fill="#231F20" fill-rule="nonzero">
            <path d="M47.5,0.61999999 L0.5,0.61999999 C0.365640819,0.61999999 0.236924593,0.674022041 0.14286357,0.769964285 C0.0488025471,0.865906528 -0.00268718636,0.995667691 -0.000100141479,1.13 L-0.000100141479,32.87 C-0.00268718636,33.0043323 0.0488025471,33.1340935 0.14286357,33.2300357 C0.236924593,33.325978 0.365640819,33.38 0.5,33.38 L47.5,33.38 C47.6343592,33.38 47.7630754,33.325978 47.8571364,33.2300357 C47.9511975,33.1340935 48.0026872,33.0043323 48.0001001,32.87 L48.0001001,1.13 C48.0026872,0.995667691 47.9511975,0.865906528 47.8571364,0.769964285 C47.7630754,0.674022041 47.6343592,0.61999999 47.5,0.61999999 Z M47,32.37 L1,32.37 L1,1.63 L47,1.63 L47,32.37 Z" id="Shape"></path>
            <path d="M12.49,8.68 L7.17,8.68 C6.34157288,8.68 5.67,9.35157288 5.67,10.18 L5.67,13.43 C5.67,14.2584271 6.34157288,14.93 7.17,14.93 L12.49,14.93 C13.3184271,14.93 13.99,14.2584271 13.99,13.43 L13.99,10.18 C13.99,9.35157288 13.3184271,8.68 12.49,8.68 L12.49,8.68 Z M12.99,13.43 C12.9846799,13.7039085 12.7639085,13.9246799 12.49,13.93 L7.17,13.93 C6.89385763,13.93 6.67,13.7061424 6.67,13.43 L6.67,10.18 C6.67,9.90385763 6.89385763,9.68 7.17,9.68 L12.49,9.68 C12.7661424,9.68 12.99,9.90385763 12.99,10.18 L12.99,13.43 Z" id="Shape"></path>
            <path d="M26.6,8.68 L21.28,8.68 C20.4515729,8.68 19.78,9.35157288 19.78,10.18 L19.78,13.43 C19.78,14.2584271 20.4515729,14.93 21.28,14.93 L26.6,14.93 C27.4284271,14.93 28.1,14.2584271 28.1,13.43 L28.1,10.18 C28.1,9.35157288 27.4284271,8.68 26.6,8.68 Z M27.1,13.43 C27.1,13.7061424 26.8761424,13.93 26.6,13.93 L21.28,13.93 C21.0060915,13.9246799 20.7853201,13.7039085 20.78,13.43 L20.78,10.18 C20.78,9.90385763 21.0038576,9.68 21.28,9.68 L26.6,9.68 C26.8761424,9.68 27.1,9.90385763 27.1,10.18 L27.1,13.43 Z" id="Shape"></path>
            <path d="M40.83,8.67996662 L35.52,8.67996662 C35.1195205,8.67733904 34.7343874,8.83388147 34.4493302,9.11518793 C34.164273,9.39649439 34.0026434,9.77952035 34,10.18 L34,13.43 C34.0054971,14.2600421 34.6799397,14.93 35.51,14.93 L40.82,14.93 C41.6484271,14.93 42.32,14.2584271 42.32,13.43 L42.32,10.18 C42.32,9.35546246 41.6545192,8.68549692 40.83,8.67996662 Z M41.33,13.43 C41.33,13.7061424 41.1061424,13.93 40.83,13.93 L35.52,13.93 C35.2438576,13.93 35.02,13.7061424 35.02,13.43 L35.02,10.18 C35.02,9.90385763 35.2438576,9.68 35.52,9.68 L40.83,9.68 C41.1061424,9.68 41.33,9.90385763 41.33,10.18 L41.33,13.43 Z" id="Shape"></path>
            <path d="M12.49,19.07 L7.17,19.07 C6.34157288,19.07 5.67,19.7415729 5.67,20.57 L5.67,23.82 C5.67,24.6484271 6.34157288,25.32 7.17,25.32 L12.49,25.32 C13.3184271,25.32 13.99,24.6484271 13.99,23.82 L13.99,20.57 C13.99,19.7415729 13.3184271,19.07 12.49,19.07 L12.49,19.07 Z M12.99,23.82 C12.99,24.0961424 12.7661424,24.32 12.49,24.32 L7.17,24.32 C6.89385763,24.32 6.67,24.0961424 6.67,23.82 L6.67,20.57 C6.67,20.2938576 6.89385763,20.07 7.17,20.07 L12.49,20.07 C12.7639085,20.0753201 12.9846799,20.2960915 12.99,20.57 L12.99,23.82 Z" id="Shape"></path>
            <path d="M26.6,19.07 L21.28,19.07 C20.4515729,19.07 19.78,19.7415729 19.78,20.57 L19.78,23.82 C19.78,24.6484271 20.4515729,25.32 21.28,25.32 L26.6,25.32 C27.4284271,25.32 28.1,24.6484271 28.1,23.82 L28.1,20.57 C28.1,19.7415729 27.4284271,19.07 26.6,19.07 Z M27.1,23.82 C27.1,24.0961424 26.8761424,24.32 26.6,24.32 L21.28,24.32 C21.0038576,24.32 20.78,24.0961424 20.78,23.82 L20.78,20.57 C20.7853201,20.2960915 21.0060915,20.0753201 21.28,20.07 L26.6,20.07 C26.8761424,20.07 27.1,20.2938576 27.1,20.57 L27.1,23.82 Z" id="Shape"></path>
            <path d="M40.83,19.0699666 L35.52,19.0699666 C35.1195205,19.067339 34.7343874,19.2238815 34.4493302,19.5051879 C34.164273,19.7864944 34.0026434,20.1695203 34,20.57 L34,23.82 C34.0054971,24.6500421 34.6799397,25.32 35.51,25.32 L40.82,25.32 C41.6484271,25.32 42.32,24.6484271 42.32,23.82 L42.32,20.57 C42.32,19.7454625 41.6545192,19.0754969 40.83,19.0699666 Z M41.33,23.82 C41.33,24.0961424 41.1061424,24.32 40.83,24.32 L35.52,24.32 C35.2438576,24.32 35.02,24.0961424 35.02,23.82 L35.02,20.57 C35.02,20.2938576 35.2438576,20.07 35.52,20.07 L40.83,20.07 C41.1061424,20.07 41.33,20.2938576 41.33,20.57 L41.33,23.82 Z" id="Shape"></path>
        </g>
    </g>
</svg>