<?xml version="1.0" encoding="UTF-8"?>
<svg width="75px" height="60px" viewBox="0 0 75 60" version="1.1" 
    xmlns="http://www.w3.org/2000/svg" 
    xmlns:xlink="http://www.w3.org/1999/xlink">
    <circle className="iconCircle" fill="#F7DFD7" cx="25" cy="30" r="25"></circle>
    <g transform="translate(26.000000, 0.000000)">
        <rect id="Rectangle" x="2" y="0" width="48" height="48" fill="none" fill-rule="evenodd"></rect>
        <g fill="#231F20" fill-rule="nonzero">
            <path d="M40.74,7.05 C31.3675457,-2.3218327 16.1724543,-2.3218327 6.8,7.05 C1.5,12.35 0.48,16.88 0.55,19.75 C0.576878098,22.3872149 1.69999496,24.8943015 3.65,26.67 C4.96,27.86 7.59,28.07 10.38,28.3 C13.55,28.55 16.82,28.81 18.02,30.49 C18.563552,31.4145033 18.6626892,32.5343869 18.29,33.54 C16.64,39.85 18.1,44.71 22.29,46.88 C23.8030933,47.6398848 25.4769857,48.0240568 27.17,48 C31.8,48 37.03,45.43 40.77,41 C49.72,30.27 49.7,16 40.74,7.05 Z M40,40.31 C35.15,46.11 27.74,48.56 22.76,45.99 C19.02,44.06 17.76,39.61 19.26,33.8 C19.7220932,32.5061545 19.5635268,31.0716819 18.83,29.91 C17.37,27.85 13.83,27.57 10.46,27.29 C7.96,27.1 5.38,26.89 4.32,25.93 C2.57784457,24.3319694 1.57509708,22.0839326 1.55,19.72 C1.48,17.05 2.47,12.81 7.55,7.72 C16.5341955,-1.19985368 31.0378222,-1.18197556 40,7.76 C48.62,16.34 48.6,30 40,40.31 Z" id="Shape"></path>
            <path d="M35.17,21.88 C35.619113,22.0569246 36.0972967,22.1484917 36.58,22.1500561 C37.1069075,22.1528947 37.6284186,22.0438205 38.11,21.83 C40.0336211,20.9924496 40.925346,18.7631373 40.11,16.83 C39.4951097,15.4009351 38.0787261,14.4840847 36.5231761,14.5081848 C34.9676261,14.5322848 33.580325,15.4925726 33.01,16.94 C32.6205159,17.8847661 32.6205159,18.9452339 33.01,19.89 C33.433274,20.8166831 34.2118019,21.533938 35.17,21.88 Z M33.94,17.26 C34.3715368,16.1785326 35.4156326,15.4666492 36.58,15.46 C36.9393244,15.4614937 37.295287,15.5292961 37.63,15.66 C39.084179,16.2439537 39.7976413,17.8893762 39.23,19.35 C38.9546359,20.0538291 38.4064406,20.6164506 37.71,20.91 C37.0167685,21.2051181 36.2332315,21.2051181 35.54,20.91 C34.0817136,20.3302746 33.3664648,18.680732 33.94,17.22 L33.94,17.26 Z" id="Shape"></path>
            <path d="M27.66,33.49 C25.9805533,34.2090687 25.0402357,36.0118093 25.4115818,37.8005807 C25.7829278,39.5893521 27.3631111,40.8688408 29.19,40.8600455 C29.7166949,40.860804 30.2377755,40.7518198 30.72,40.54 C32.1165192,40.0934204 33.1368539,38.8905849 33.3497082,37.4399325 C33.5625625,35.9892801 32.9307815,34.5440295 31.7214195,33.7150889 C30.5120574,32.8861482 28.9362144,32.8182132 27.66,33.54 L27.66,33.49 Z M30.32,39.62 C29.3854567,40.0457736 28.2938553,39.9338524 27.4651563,39.3272947 C26.6364573,38.720737 26.1997735,37.7140458 26.3231059,36.6945148 C26.4464383,35.6749838 27.1105713,34.8014581 28.06,34.41 C28.4127168,34.2534008 28.794086,34.1716788 29.18,34.17 C30.5320726,34.1602041 31.7035775,35.1049904 31.9804123,36.428455 C32.2572471,37.7519197 31.5626418,39.0870483 30.32,39.62 L30.32,39.62 Z" id="Shape"></path>
            <path d="M16.35,7.38 C14.6789495,8.10746732 13.7469239,9.9069744 14.1168985,11.6915576 C14.4868731,13.4761409 16.057472,14.7568111 17.88,14.7600059 C19.4463577,14.7627406 20.8582303,13.8162418 21.4507004,12.3662545 C22.0431704,10.9162671 21.6981148,9.25188107 20.5780364,8.15693425 C19.4579581,7.06198743 17.7861716,6.75478378 16.35,7.38 L16.35,7.38 Z M19,13.52 C17.5585368,14.1413203 15.8863203,13.4764632 15.265,12.035 C14.6436797,10.5935368 15.3085368,8.92132034 16.75,8.3 C17.1030053,8.14542571 17.4846466,8.06705295 17.87,8.07 C19.2201694,8.06503351 20.3871864,9.01133973 20.6613016,10.3333998 C20.9354168,11.65546 20.2408422,12.9877476 19,13.52 Z" id="Shape"></path>
            <path d="M27.35,14.31 C27.7988477,14.4878378 28.2772059,14.5794383 28.76,14.58 C30.3369729,14.5750596 31.7532242,13.6137494 32.34,12.15 C33.1231569,10.1735587 32.1561025,7.93643018 30.1798426,7.15281545 C28.2035828,6.36920072 25.9662303,7.33573698 25.1821578,9.31181527 C24.3980854,11.2878936 25.3641034,13.5254698 27.34,14.31 L27.35,14.31 Z M26.12,9.69 C26.6979862,8.23299553 28.3471055,7.51974728 29.8046456,8.09638146 C31.2621857,8.67301563 31.9769637,10.3214724 31.4016821,11.7795469 C30.8264005,13.2376214 29.1786076,13.9539285 27.72,13.38 C27.0178175,13.1037074 26.4544578,12.5593281 26.1542714,11.8670232 C25.854085,11.1747184 25.841754,10.3914107 26.12,9.69 L26.12,9.69 Z" id="Shape"></path>
            <path d="M11.72,15.15 C10.7692896,14.7735697 9.70788512,14.7907989 8.76989313,15.1978874 C7.83190115,15.6049759 7.09438015,16.3684804 6.72,17.32 C6.32553957,18.2603064 6.32553957,19.3196936 6.72,20.26 C7.33159204,21.6656782 8.71704153,22.5762285 10.25,22.58 C11.8269729,22.5750596 13.2432242,21.6137494 13.83,20.15 C14.6090876,18.1729013 13.6435859,15.9379438 11.67,15.15 L11.72,15.15 Z M12.94,19.78 C12.6679349,20.4825449 12.1233126,21.045201 11.43,21.34 C10.3704306,21.7945179 9.14122192,21.5633534 8.31915229,20.7549753 C7.49708266,19.9465971 7.24530803,18.7214437 7.68196797,17.6543909 C8.11862791,16.587338 9.15705865,15.8901632 10.31,15.89 C10.652912,15.8935008 10.9921194,15.9613423 11.31,16.09 C12.0121159,16.3660471 12.5749472,16.9110121 12.8734919,17.6038612 C13.1720366,18.2967103 13.1815791,19.0800843 12.9,19.78 L12.94,19.78 Z" id="Shape"></path>
            <path d="M38.17,25.62 L38.17,25.62 C36.8927755,25.1162555 35.4438269,25.3321675 34.3689591,26.1864041 C33.2940914,27.0406408 32.7566024,28.4034231 32.9589591,29.7614042 C33.1613159,31.1193853 34.0727755,32.2662555 35.35,32.77 C35.7985757,32.9487706 36.277114,33.0404056 36.76,33.0400013 C38.3369729,33.0350596 39.7532242,32.0737494 40.34,30.61 C40.7160813,29.6606919 40.6985866,28.6006888 40.291383,27.6643084 C39.8841795,26.7279279 39.1208028,25.9922864 38.17,25.62 Z M39.4,30.24 C38.8712704,31.5687569 37.4370081,32.2971006 36.0522054,31.9400692 C34.6674027,31.5830378 33.7640881,30.2520173 33.9437264,28.8332573 C34.1233647,27.4144973 35.3299127,26.3506201 36.76,26.3499714 C37.1196187,26.3483727 37.4761607,26.4162855 37.81,26.55 C39.2643595,27.1336708 39.9746353,28.7820468 39.4,30.24 L39.4,30.24 Z" id="Shape"></path>
        </g>
    </g>
</svg>