<svg width="57" height="57" viewBox="0 0 57 57" stroke="#231F20"  fill="none" xmlns="http://www.w3.org/2000/svg">
<path d="M17.78 42.7231C18.482 42.7231 19.0512 42.1694 19.0512 41.4863C19.0512 40.8032 18.482 40.2495 17.78 40.2495C17.0779 40.2495 16.5088 40.8032 16.5088 41.4863C16.5088 42.1694 17.0779 42.7231 17.78 42.7231Z" stroke-miterlimit="10" stroke-linecap="round" stroke-linejoin="round"/>
<path d="M13.2036 44.8668C13.2884 46.2685 14.3901 47.2579 15.6613 47.1754L20.3223 46.9281C21.5935 46.8456 22.6104 45.6913 22.5257 44.2896L21.1697 12.1332C21.085 10.8139 19.9833 9.74204 18.7121 9.8245L14.0511 10.0719C12.7799 10.1543 11.763 11.3086 11.8477 12.7103L13.2036 44.8668Z" stroke-miterlimit="10" stroke-linecap="round" stroke-linejoin="round"/>
<path d="M44.4744 21.2853L41.1694 18.0697C40.8304 17.7399 40.4066 17.575 39.9829 17.4101C40.3219 18.0697 40.3219 18.8942 39.8134 19.6363L23.3727 44.372C23.1185 44.7018 22.7795 44.9492 22.4405 45.1141C22.3558 45.3614 22.2711 45.6088 22.1016 45.8562C22.4405 45.7737 22.7795 45.6088 23.0338 45.279L44.3897 24.501C45.3219 23.594 45.3219 22.1923 44.4744 21.2853Z" stroke-miterlimit="10" stroke-linecap="round" stroke-linejoin="round"/>
<path d="M39.1363 16.5856L35.238 14.1121C34.8143 13.8647 34.3906 13.6998 33.8821 13.7823C34.3058 14.3594 34.4753 15.1839 34.1363 15.926L23.3736 43.3002C23.2041 43.7125 22.9499 44.0423 22.5262 44.2896C22.5262 44.537 22.5262 44.8668 22.4414 45.1142C22.7804 44.9493 23.1194 44.7019 23.3736 44.3721L39.8143 19.6364C40.4923 18.6469 40.238 17.2453 39.1363 16.5856Z" stroke-miterlimit="10" stroke-linecap="round" stroke-linejoin="round"/>
<path d="M26.0006 10.649L21.4243 9.90689C20.9158 9.82444 20.4921 9.90689 20.0684 10.0718C20.7463 10.4841 21.1701 11.1437 21.2548 11.8857L22.7802 41.2388C22.7802 41.6511 22.6955 41.9809 22.526 42.3107L22.6107 43.3826C22.9497 43.0528 23.1192 42.6405 23.204 42.1458L27.9497 13.1225C28.1192 12.0507 27.2718 10.8139 26.0006 10.649Z" stroke-miterlimit="10" stroke-linecap="round" stroke-linejoin="round"/>
<path d="M32.8646 12.9577L28.5426 11.3087C28.1188 11.1438 27.6104 11.1438 27.1866 11.2262C27.7798 11.7209 28.0341 12.463 27.9493 13.2875L23.2036 42.3108C23.1188 42.723 22.8646 43.0529 22.6104 43.3827V44.2072C23.1188 43.9598 23.1188 43.63 23.2883 43.3002L34.1358 15.8436C34.5595 14.6892 34.051 13.37 32.8646 12.9577Z" stroke-miterlimit="10" stroke-linecap="round" stroke-linejoin="round"/>
</svg>
