<svg transform="translate(0.000000, -4.000000)" width="35" height="39" viewBox="0 0 35 39" fill="none" stroke="#231F20"
    xmlns="http://www.w3.org/2000/svg">
    <path d="M6.77998 33.7231C7.48203 33.7231 8.05116 33.1694 8.05116 32.4863C8.05116 31.8032 7.48203 31.2495 6.77998 31.2495C6.07792 31.2495 5.50879 31.8032 5.50879 32.4863C5.50879 33.1694 6.07792 33.7231 6.77998 33.7231Z" stroke-miterlimit="10" stroke-linecap="round" stroke-linejoin="round"/>
    <path d="M2.20364 35.8668C2.28839 37.2685 3.39009 38.2579 4.66127 38.1755L9.32229 37.9281C10.5935 37.8456 11.6104 36.6913 11.5257 35.2896L10.1697 3.13317C10.085 1.81393 8.98331 0.742052 7.71212 0.824505L3.0511 1.07186C1.77992 1.15431 0.762966 2.30865 0.847712 3.71034L2.20364 35.8668Z" stroke-miterlimit="10" stroke-linecap="round" stroke-linejoin="round"/>
    <path d="M33.4744 12.2853L30.1694 9.0697C29.8304 8.73989 29.4066 8.57498 28.9829 8.41008C29.3219 9.0697 29.3219 9.89422 28.8134 10.6363L12.3727 35.372C12.1185 35.7018 11.7795 35.9492 11.4405 36.1141C11.3558 36.3614 11.2711 36.6088 11.1016 36.8562C11.4405 36.7737 11.7795 36.6088 12.0338 36.279L33.3897 15.501C34.3219 14.594 34.3219 13.1923 33.4744 12.2853Z" stroke-miterlimit="10" stroke-linecap="round" stroke-linejoin="round"/>
    <path d="M28.1363 7.58564L24.238 5.11206C23.8143 4.86471 23.3906 4.6998 22.8821 4.78225C23.3058 5.35942 23.4753 6.18394 23.1363 6.92602L12.3736 34.3002C12.2041 34.7125 11.9499 35.0423 11.5262 35.2897C11.5262 35.537 11.5262 35.8668 11.4414 36.1142C11.7804 35.9493 12.1194 35.7019 12.3736 35.3721L28.8143 10.6364C29.4923 9.64695 29.238 8.24526 28.1363 7.58564Z" stroke-miterlimit="10" stroke-linecap="round" stroke-linejoin="round"/>
    <path d="M15.0006 1.64896L10.4243 0.906893C9.91582 0.82444 9.49209 0.906892 9.06836 1.0718C9.74633 1.48406 10.1701 2.14368 10.2548 2.88575L11.7802 32.2388C11.7802 32.6511 11.6955 32.9809 11.526 33.3107L11.6107 34.3826C11.9497 34.0528 12.1192 33.6405 12.204 33.1458L16.9497 4.12254C17.1192 3.05066 16.2718 1.81387 15.0006 1.64896Z" stroke-miterlimit="10" stroke-linecap="round" stroke-linejoin="round"/>
    <path d="M21.8646 3.95773L17.5426 2.30868C17.1188 2.14378 16.6104 2.14378 16.1866 2.22623C16.7798 2.72095 17.0341 3.46302 16.9493 4.28754L12.2036 33.3108C12.1188 33.7231 11.8646 34.0529 11.6104 34.3827V35.2072C12.1188 34.9598 12.1188 34.63 12.2883 34.3002L23.1358 6.84357C23.5595 5.68924 23.051 4.37 21.8646 3.95773Z" stroke-miterlimit="10" stroke-linecap="round" stroke-linejoin="round"/>
</svg>
