<?xml version="1.0" encoding="UTF-8"?>
<svg width="75px" height="57px" viewBox="0 0 62 59" version="1.1" transform="translate(-8.000000, 0.000000)">
    <circle className="iconCircle" fill="#F7DFD7" cx="25" cy="30" r="25"></circle>
    <g transform="translate(20.000000, -3.000000)">
        <rect id="Rectangle" x="0" y="0" width="48" height="48" fill="none" fill-rule="evenodd"></rect>
        <path d="M43.0539511,5.62389354 L42.3800948,4.95013433 C39.7764957,2.34995522 35.5584566,2.34995522 32.9548575,4.95013433 L29.9618853,7.94267523 L27.2839627,10.6289619 L27.2839627,10.6289619 L22.7682502,15.1352735 L7.49709056,30.4042321 C7.00697862,30.8927488 6.64349301,31.4934649 6.43817348,32.1542561 L3.06014046,43.2494077 C2.91410013,43.7185152 3.03860305,44.229913 3.38394155,44.5794258 C3.63170426,44.8379518 3.97114091,44.9887908 4.32909068,44.9994316 C4.47162103,45.00379 4.61380777,44.9830574 4.74915697,44.9381807 L15.8634107,41.5606346 L15.8634107,41.5606346 C16.5223086,41.3509443 17.1221244,40.9881081 17.6136869,40.5018701 L40.4985479,17.6028072 L40.4985479,17.6028072 L43.0539511,15.0390222 C45.648683,12.4368064 45.648683,8.22610929 43.0539511,5.62389354 Z M4.58375735,43.9780286 C4.43246935,44.0304096 4.26478744,43.9872983 4.15682014,43.8682625 C4.01917346,43.7614444 3.96514346,43.5775199 4.02287906,43.4123112 L5.69714263,38 L10,42.28932 L4.58375735,43.9780286 Z M36.5314961,20.2570903 L36.5314961,20.2570903 L18.0653543,38.6982668 L18.0653543,38.6982668 L16.9826772,39.8161765 C16.6004251,40.2164359 16.123949,40.5143898 15.5968504,40.6827731 L11.1275591,42 L6,36.9477416 L7.36850394,32.4414391 C7.53679881,31.9140636 7.83459633,31.4373373 8.23464567,31.0548845 L9.3519685,29.9456408 L9.3519685,29.9456408 L19.2259843,20.0317752 L30.2433071,9 L34.6259843,13.376313 L39,17.761292 L36.5314961,20.2570903 Z M39.760522,17 L31,8.2078466 L33.5918704,5.67598388 C35.8242323,3.44133871 39.4375046,3.44133871 41.6698665,5.67598388 L42.3264737,6.33496185 C43.3979893,7.40987512 44,8.86805324 44,10.3885434 C44,11.9090336 43.3979893,13.3672117 42.3264737,14.442125 L39.760522,17 Z" id="_99.1" fill="#231F20" fill-rule="nonzero"></path>
    </g>
</svg>