<svg width="34" height="31" viewBox="0 0 34 31" fill="none" xmlns="http://www.w3.org/2000/svg">
<g transform="translate(16.000000, 0.000000)">
<path d="M1.4463 3.37568C3.98798 3.90467 6.37079 5.04582 8.39517 6.81271C10.4195 8.57959 11.8724 10.7862 12.7402 13.233C12.8739 13.7251 13.2933 13.9973 13.7921 13.9634C13.8919 13.9567 13.9917 13.9499 14.0914 13.9431C14.5767 13.7097 14.9419 13.1837 14.7017 12.5987C13.7071 9.75954 12.0343 7.26715 9.79685 5.31428C7.55938 3.36141 4.85694 1.94127 1.91617 1.43939C1.304 1.28051 0.825473 1.6137 0.66659 2.22587C0.500931 2.73828 0.940669 3.30979 1.4463 3.37568Z" fill="#231F20"/>
<path d="M3.3383 6.15389C2.8259 5.98824 2.24083 6.22843 1.9754 6.74761C1.80974 7.26002 2.04994 7.84508 2.56912 8.11051C3.70047 8.53483 4.74561 9.16545 5.60476 10.0092C6.56367 10.8461 7.32305 11.6966 7.89644 12.7602C8.12308 13.1457 8.43595 13.3249 8.83503 13.2978C9.03457 13.2843 9.13434 13.2775 9.3271 13.1642C9.8124 12.9308 9.97128 12.3186 9.73109 11.7335C9.04437 10.4772 8.06513 9.34092 6.99966 8.41098C5.9342 7.48104 4.68275 6.76419 3.3383 6.15389Z" fill="#231F20"/>
</g>
<path d="M32.1436 21.8183C31.3143 21.4122 27.216 19.4473 26.4558 19.1764C25.6886 18.9047 25.1357 18.7696 24.5759 19.5824C24.0231 20.3953 22.4266 22.2251 21.9428 22.7677C21.4521 23.3096 20.9683 23.3772 20.1321 22.9704C19.3028 22.5643 16.6143 21.7062 13.4352 18.9395C10.961 16.7851 9.28854 14.1258 8.79785 13.3122C8.31408 12.4994 8.74948 12.0598 9.16414 11.6545C9.53734 11.2909 10.0004 10.7058 10.4151 10.2314C10.8297 9.75778 10.9679 9.41857 11.2513 8.87667C11.5277 8.33476 11.3895 7.86042 11.1753 7.45364C10.9679 7.04756 9.30237 3.04944 8.61125 1.42302C7.93396 -0.1609 7.24976 0.0536333 6.73143 0.028558C6.24765 0.00487576 5.69476 0 5.13496 0C4.58207 0 3.67672 0.203389 2.91649 1.01625C2.14936 1.8298 0 3.79473 0 7.79216C0 11.7903 2.9856 15.6526 3.40027 16.1945C3.82185 16.7371 9.27472 24.9409 17.6372 28.4591C19.6207 29.2963 21.1757 29.7958 22.3851 30.1698C24.3824 30.7883 26.2001 30.7013 27.6307 30.4916C29.234 30.259 32.5652 28.5267 33.2563 26.63C33.9543 24.7326 33.9543 23.1062 33.7401 22.767C33.5328 22.4285 32.9799 22.2251 32.1436 21.8183Z" fill="#231F20"/>
</svg>
