<?xml version="1.0" encoding="UTF-8"?>
<svg width="24px" height="22px" viewBox="0 0 24 22">
    <g id="Phone">
        <path d="M21.7442103,14.7801524 C21.18319,14.5050653 18.4108149,13.1739833 17.8965463,12.9904347 C17.3776026,12.8064141 17.0035891,12.7148757 16.6249004,13.2655218 C16.2508869,13.8161678 15.1709229,15.0557113 14.8436611,15.4232806 C14.5117241,15.790378 14.1844622,15.8361472 13.6187668,15.5605882 C13.0577466,15.2855011 11.2391059,14.7041849 9.08852822,12.8300065 C7.41481777,11.370582 6.28342692,9.56906813 5.95148993,9.0179502 C5.62422811,8.46730412 5.91876375,8.16956832 6.19927388,7.89495306 C6.45173299,7.64864864 6.76496931,7.2522967 7.04547944,6.93096853 C7.32598957,6.6101122 7.41949294,6.38032245 7.61117487,6.01322506 C7.79818162,5.64612768 7.70467824,5.3247995 7.55974801,5.04924054 C7.41949294,4.77415342 6.29277725,2.06574853 5.82526037,0.963984526 C5.36709382,-0.108996782 4.90425211,0.0363322607 4.55361445,0.0193457492 C4.22635263,0.00330293279 3.85233912,1.58095759e-13 3.47365045,1.58095759e-13 C3.09963694,1.58095759e-13 2.48718982,0.137779482 1.97292125,0.688425562 C1.45397751,1.23954349 3.55271368e-14,2.5706254 3.55271368e-14,5.27855844 C3.55271368e-14,7.98696333 2.01967294,10.6033579 2.30018307,10.9704553 C2.58536837,11.3380246 6.27407658,16.8954449 11.9310309,19.2787468 C13.2728043,19.8459076 14.3247173,20.1842223 15.1428719,20.4376044 C16.4939957,20.856605 17.7235651,20.7976241 18.691325,20.655598 C19.7759642,20.4980009 22.0293956,19.324516 22.4969124,18.0396752 C22.9691045,16.7543625 22.9691045,15.6525985 22.8241743,15.4228087 C22.6839192,15.1934908 22.3099057,15.0557113 21.7442103,14.7801524 Z" id="Path"></path>
    </g>
</svg>