<svg width="50" height="95" viewBox="0 0 50 95"  xmlns="http://www.w3.org/2000/svg">
<path d="M25 48.9844C38.8071 48.9844 50 38.0188 50 24.4922C50 10.9655 38.8071 0 25 0C11.1929 0 0 10.9655 0 24.4922C0 38.0188 11.1929 48.9844 25 48.9844Z" fill="#231F20"/>
<path d="M26.4704 47.5V95H22.0586V47.5H26.4704Z" fill="#231F20"/>
<path id="eye" fill-rule="evenodd" clip-rule="evenodd" d="M45.5881 24.5186C30.1278 39.4081 19.5658 39.2621 4.41162 24.47C19.1066 10.2617 31.0462 9.04525 45.5881 24.5186ZM33.8234 24.4681C33.8234 29.0881 29.8566 32.8418 24.9744 32.8418C20.1431 32.8418 16.1763 29.0881 16.1763 24.4681C16.1763 19.8963 20.1431 16.1426 24.9744 16.1426C29.8566 16.1426 33.8234 19.8963 33.8234 24.4681Z" fill="currentColor"/>
<path d="M25.0375 19.2969C28.2272 19.2969 30.4841 20.5261 30.8824 23.4771H28.3429C28.0025 22.1798 26.8349 21.7354 25.0375 21.7354C22.9031 21.7354 21.5993 22.4 21.5993 24.4982C21.5993 26.5963 22.9031 27.249 25.0375 27.249C26.8349 27.249 28.0093 26.8046 28.3429 25.5072H30.8824C30.4773 28.4582 28.2272 29.6875 25.0375 29.6875C21.5006 29.6875 19.1177 28.186 19.1177 24.4982C19.1177 20.8104 21.5006 19.2969 25.0375 19.2969Z" fill="currentColor"/>
</svg>
