<?xml version="1.0" encoding="UTF-8"?>
<svg width="75px" height="60px" viewBox="0 0 75 60" version="1.1" 
    xmlns="http://www.w3.org/2000/svg" 
    xmlns:xlink="http://www.w3.org/1999/xlink">
    <circle className="iconCircle" cx="25" cy="30" r="25"></circle>
    <g transform="translate(26.000000, 0.000000)">
        <rect x="0" y="0" width="48" height="48" fill="none" fill-rule="evenodd"></rect>
        <g fill="#231F20" fill-rule="nonzero">
            <path d="M47.35,18.54 L29.18,0.46 C28.7778437,0.0252787152 28.1481235,-0.114216255 27.6,0.11 C27.0296376,0.368214526 26.6706265,0.944210395 26.69,1.57 L26.69,11.46 C26.69,11.46 26.69,11.46 26.69,11.52 L26.69,11.61 L15.53,0.46 C15.0836334,0.00793371465 14.4077135,-0.128290211 13.8210872,0.115588145 C13.2344609,0.359466502 12.8543257,0.934724555 12.86,1.57 L12.86,10.57 L2.77,0.46 C2.32427066,0.0132381788 1.65327394,-0.120961165 1.07,0.12 C0.465876141,0.346188279 0.0667443846,0.924929325 0.0699794199,1.57 L0.0699794199,28.35 C0.0678537297,28.7667988 0.233660613,29.166898 0.53,29.46 L18.64,47.54 L18.64,47.54 C18.9325209,47.8311063 19.3273295,47.9962081 19.74,48.0000929 C19.949076,47.9987722 20.1560382,47.9580583 20.35,47.88 C20.9522551,47.6514226 21.3503583,47.0741729 21.35,46.43 L21.35,37.43 L31.45,47.52 C31.7245139,47.8101048 32.1009984,47.982212 32.5,48.0000929 C32.709076,47.9987722 32.9160382,47.9580583 33.11,47.88 C33.7122551,47.6514226 34.1103583,47.0741729 34.11,46.43 L34.11,36.43 L34.23,36.55 L34.23,36.55 L34.23,36.55 L34.23,36.55 L34.23,36.55 L45.05,47.54 C45.3535845,47.8390204 45.7639065,48.0045889 46.19,48.0000929 C46.4299845,47.9970346 46.6673353,47.9495644 46.89,47.86 C47.4836842,47.6317656 47.8793561,47.0659549 47.89,46.43 L47.89,19.65 C47.8668289,19.2223764 47.6721387,18.8221799 47.35,18.54 Z M20.35,46.43 C20.3755471,46.6772619 20.2320703,46.9109242 20,47 C19.7908291,47.0841665 19.5517037,47.0371254 19.39,46.88 L19.39,46.88 L1.27,28.75 C1.16449322,28.6439708 1.10672209,28.499543 1.11,28.35 L1.11,1.57 C1.10228774,1.34229748 1.23831743,1.13425206 1.45,1.05 C1.65917093,0.965833539 1.89829633,1.0128746 2.06,1.17 L20.31,19.42 L20.35,46.43 Z M33.11,46.43 C33.1161663,46.660237 32.9756229,46.8690442 32.76,46.95 C32.5541548,47.0352108 32.3172376,46.9878273 32.16,46.83 L21.31,36 L21.31,19.21 C21.309669,19.0748664 21.2557197,18.9453883 21.16,18.85 L13.85,11.54 C13.85,11.54 13.85,11.47 13.85,11.43 L13.85,1.57 C13.8422877,1.34229748 13.9783174,1.13425206 14.19,1.05 C14.3991709,0.965833539 14.6382963,1.0128746 14.8,1.17 L33.07,19.42 L33.11,46.43 Z M46.93,46.43 C46.9099255,46.6558359 46.7622155,46.8501912 46.55,46.93 C46.3019694,47.0462915 46.0088963,47.0072151 45.8,46.83 L34.93,35.91 L34.07,35 L34.07,19.21 C34.0693157,19.0768431 34.0194567,18.9486343 33.93,18.85 L27.68,12.61 L27.68,11.49 C27.68,11.49 27.68,11.49 27.68,11.43 L27.68,1.57 C27.6464927,1.32968478 27.7773874,1.09652858 28,1 C28.1735893,0.945304855 28.3630336,1.00055944 28.48,1.14 L46.64,19.25 C46.7671003,19.3503951 46.8554529,19.4917591 46.89,19.65 L46.93,46.43 Z" id="Shape"></path>
            <path d="M13.55,29.37 C13.6453883,29.4657197 13.7748664,29.519669 13.91,29.52 C14.0400706,29.5187517 14.16495,29.4687999 14.26,29.38 C14.3546563,29.2861167 14.4078992,29.1583188 14.4078992,29.025 C14.4078992,28.8916812 14.3546563,28.7638833 14.26,28.67 L13.85,28.24 L13.85,27 C13.8021304,26.7618397 13.5929235,26.5904988 13.35,26.5904988 C13.1070765,26.5904988 12.8978696,26.7618397 12.85,27 L12.85,28.45 C12.8507626,28.5772097 12.9009678,28.6991366 12.99,28.79 L13.55,29.37 Z" id="Path"></path>
            <path d="M13.36,24.16 C13.6378057,24.1600534 13.8645528,23.9377523 13.87,23.66 L13.87,21.42 C13.8221304,21.1818397 13.6129235,21.0104988 13.37,21.0104988 C13.1270765,21.0104988 12.9178696,21.1818397 12.87,21.42 L12.87,23.66 C12.8750921,23.9301544 13.0900036,24.1494518 13.36,24.16 L13.36,24.16 Z" id="Path"></path>
            <path d="M17.41,33.4 C17.5053883,33.4957197 17.6348664,33.549669 17.77,33.55 C17.9006677,33.5518722 18.0266698,33.5014714 18.12,33.41 C18.2146563,33.3161167 18.2678992,33.1883188 18.2678992,33.055 C18.2678992,32.9216812 18.2146563,32.7938833 18.12,32.7 L16.58,31.09 C16.4861167,30.9953437 16.3583188,30.9421008 16.225,30.9421008 C16.0916812,30.9421008 15.9638833,30.9953437 15.87,31.09 C15.7753437,31.1838833 15.7221008,31.3116812 15.7221008,31.445 C15.7221008,31.5783188 15.7753437,31.7061167 15.87,31.8 L17.41,33.4 Z" id="Path"></path>
            <path d="M13.36,18.58 C13.6378057,18.5800534 13.8645528,18.3577523 13.87,18.08 L13.87,15.84 C13.8221304,15.6018397 13.6129235,15.4304988 13.37,15.4304988 C13.1270765,15.4304988 12.9178696,15.6018397 12.87,15.84 L12.87,18.08 C12.8750921,18.3501544 13.0900036,18.5694518 13.36,18.58 Z" id="Path"></path>
            <path d="M27.37,29.45 C27.4615771,29.5523892 27.5926337,29.6106366 27.73,29.6100052 C27.8596962,29.6068917 27.9839384,29.5571948 28.08,29.47 C28.1746563,29.3761167 28.2278992,29.2483188 28.2278992,29.115 C28.2278992,28.9816812 28.1746563,28.8538833 28.08,28.76 L27.679991,28.33 L27.679991,27.09 C27.6321304,26.8518397 27.4229235,26.6804988 27.179991,26.6804988 C26.9370765,26.6804988 26.7278696,26.8518397 26.679991,27.09 L26.679991,28.53 C26.6792163,28.6604638 26.7294574,28.7860667 26.82,28.88 L27.37,29.45 Z" id="Path"></path>
            <path d="M27.18,24.25 C27.4578057,24.2500534 27.6845528,24.0277523 27.69,23.75 L27.69,21.51 C27.6421304,21.2718397 27.4329235,21.1004988 27.19,21.1004988 C26.9470765,21.1004988 26.7378696,21.2718397 26.69,21.51 L26.69,23.75 C26.6950921,24.0201544 26.9100036,24.2394518 27.18,24.25 L27.18,24.25 Z" id="Path"></path>
            <path d="M27.18,18.67 C27.3152604,18.67 27.4449809,18.616268 27.5406245,18.5206245 C27.636268,18.4249809 27.6899998,18.2952604 27.6899998,18.16 L27.6899998,15.93 C27.6421304,15.6918397 27.4329235,15.5204988 27.1899998,15.5204988 C26.9470765,15.5204988 26.7378696,15.6918397 26.6899998,15.93 L26.6899998,18.16 C26.6897892,18.4340361 26.9061747,18.6592536 27.18,18.67 Z" id="Path"></path>
            <path d="M31.22,33.49 C31.3190658,33.586318 31.4518292,33.6401409 31.59,33.64 C31.7180983,33.6438772 31.8417728,33.5929524 31.93,33.5 C32.0246563,33.4061167 32.0778992,33.2783188 32.0778992,33.145 C32.0778992,33.0116812 32.0246563,32.8838833 31.93,32.79 L30.39,31.18 C30.1994618,30.9784161 29.8815839,30.9694618 29.68,31.16 C29.4784161,31.3505382 29.4694618,31.6684161 29.66,31.87 L31.22,33.49 Z" id="Path"></path>
        </g>
    </g>
</svg>