<svg width="57" height="57" viewBox="0 0 57 57" fill="none" stroke="#231F20" xmlns="http://www.w3.org/2000/svg">
<g clip-path="url(#clip0)">
<path d="M12.4087 44.7212L12.4972 35.1465L5.70673 28.5854L12.4566 21.8729L12.4118 12.3536L21.8531 12.4975L28.5476 5.65165L35.1267 12.4569L44.646 12.4121L44.5021 21.8534L51.348 28.5479L44.5427 35.127L44.7209 44.5909L35.1462 44.5024L28.5851 51.2929L21.8726 44.543L12.4087 44.7212Z"  stroke-miterlimit="10" stroke-linecap="round" stroke-linejoin="round"/>
</g>
<path d="M19.7665 33.3795C19.2444 33.3795 18.7843 33.2954 18.3862 33.1273C17.9968 32.9503 17.696 32.7291 17.4837 32.4637C17.2801 32.1982 17.1784 31.9284 17.1784 31.6541C17.1784 31.3532 17.2669 31.1143 17.4438 30.9374C17.6296 30.7516 17.873 30.6587 18.1738 30.6587C18.2446 30.6587 18.3154 30.6675 18.3862 30.6852C18.4569 30.6941 18.5056 30.6985 18.5322 30.6985L18.7047 30.725V32.8486L18.9569 32.9547C19.1161 33.0167 19.2975 33.0477 19.501 33.0477C19.9346 33.0477 20.2885 32.9326 20.5628 32.7026C20.8371 32.4725 21.0494 32.0478 21.1999 31.4285C21.3503 30.8091 21.4255 29.9331 21.4255 28.8006C21.3458 28.9333 21.222 29.066 21.0539 29.1987C20.7176 29.4642 20.3327 29.5969 19.8992 29.5969C19.2533 29.5969 18.687 29.4774 18.2003 29.2385C17.7226 28.9908 17.3554 28.6501 17.0988 28.2166C16.8422 27.783 16.7139 27.292 16.7139 26.7434C16.7139 25.7966 17.0059 25.0534 17.5898 24.5137C18.1827 23.9651 19.0188 23.6908 20.0983 23.6908C21.2131 23.6908 22.0891 24.089 22.7261 24.8853C23.3632 25.6816 23.6817 26.8982 23.6817 28.5351C23.6817 30.1278 23.3322 31.3355 22.6332 32.1584C21.9431 32.9724 20.9875 33.3795 19.7665 33.3795ZM20.1646 29.2651C20.5274 29.2651 20.815 29.0881 21.0273 28.7342C21.2485 28.3803 21.3591 27.8273 21.3591 27.0752C21.3591 25.9515 21.2352 25.1507 20.9875 24.6729C20.7486 24.1951 20.4522 23.9562 20.0983 23.9562C19.9213 23.9562 19.7443 24.0447 19.5674 24.2217C19.3993 24.3986 19.2577 24.6862 19.1427 25.0844C19.0276 25.4825 18.9701 25.9913 18.9701 26.6107C18.9701 27.23 19.0276 27.7388 19.1427 28.137C19.2665 28.5351 19.417 28.8227 19.5939 28.9996C19.7797 29.1766 19.97 29.2651 20.1646 29.2651Z" stroke="none"  fill="#E24C1A"/>
<path d="M28.8394 33.3795C28.3174 33.3795 27.8573 33.2954 27.4591 33.1273C27.0698 32.9503 26.769 32.7291 26.5566 32.4637C26.3531 32.1982 26.2514 31.9284 26.2514 31.6541C26.2514 31.3532 26.3398 31.1143 26.5168 30.9374C26.7026 30.7516 26.9459 30.6587 27.2468 30.6587C27.3176 30.6587 27.3883 30.6675 27.4591 30.6852C27.5299 30.6941 27.5786 30.6985 27.6051 30.6985L27.7777 30.725V32.8486L28.0298 32.9547C28.1891 33.0167 28.3705 33.0477 28.574 33.0477C29.0075 33.0477 29.3615 32.9326 29.6358 32.7026C29.91 32.4725 30.1224 32.0478 30.2728 31.4285C30.4232 30.8091 30.4984 29.9331 30.4984 28.8006C30.4188 28.9333 30.2949 29.066 30.1268 29.1987C29.7906 29.4642 29.4057 29.5969 28.9721 29.5969C28.3262 29.5969 27.76 29.4774 27.2733 29.2385C26.7955 28.9908 26.4283 28.6501 26.1717 28.2166C25.9151 27.783 25.7868 27.292 25.7868 26.7434C25.7868 25.7966 26.0788 25.0534 26.6628 24.5137C27.2556 23.9651 28.0918 23.6908 29.1712 23.6908C30.2861 23.6908 31.162 24.089 31.7991 24.8853C32.4362 25.6816 32.7547 26.8982 32.7547 28.5351C32.7547 30.1278 32.4052 31.3355 31.7062 32.1584C31.0161 32.9724 30.0605 33.3795 28.8394 33.3795ZM29.2376 29.2651C29.6004 29.2651 29.8879 29.0881 30.1003 28.7342C30.3215 28.3803 30.4321 27.8273 30.4321 27.0752C30.4321 25.9515 30.3082 25.1507 30.0605 24.6729C29.8216 24.1951 29.5252 23.9562 29.1712 23.9562C28.9943 23.9562 28.8173 24.0447 28.6403 24.2217C28.4722 24.3986 28.3307 24.6862 28.2156 25.0844C28.1006 25.4825 28.0431 25.9913 28.0431 26.6107C28.0431 27.23 28.1006 27.7388 28.2156 28.137C28.3395 28.5351 28.4899 28.8227 28.6669 28.9996C28.8527 29.1766 29.0429 29.2651 29.2376 29.2651Z" stroke="none"  fill="#E24C1A"/>
<path d="M38.1115 33.3795C37.5098 33.3706 36.9347 33.2246 36.3861 32.9415C36.1737 32.8265 35.9747 32.6849 35.7888 32.5168C35.665 32.7203 35.5101 32.9017 35.3243 33.0609C35.1651 33.176 35.0766 33.2379 35.0589 33.2467H34.7271V30.725H35.258C35.3907 31.1586 35.5765 31.5479 35.8154 31.893C36.3551 32.6628 37.0541 33.0477 37.9124 33.0477C38.0186 33.0477 38.0849 33.0432 38.1115 33.0344V29.65L37.5009 29.2916C36.9258 28.9554 36.4613 28.659 36.1074 28.4024C35.7623 28.137 35.4659 27.8096 35.2181 27.4203C34.9792 27.0221 34.8598 26.5532 34.8598 26.0134C34.8598 25.5799 34.9792 25.1905 35.2181 24.8455C35.4659 24.4915 35.8331 24.2128 36.3197 24.0093C36.8064 23.797 37.4036 23.6908 38.1115 23.6908V22.8281H38.5096V23.7306C39.0051 23.8191 39.421 23.9739 39.7572 24.1951C39.9342 24.3013 40.0934 24.4208 40.235 24.5535C40.3854 24.3234 40.5403 24.142 40.6995 24.0093C40.8588 23.8943 40.9473 23.8324 40.965 23.8235H41.2968V26.3452H40.7659C40.642 25.9205 40.4783 25.5489 40.2748 25.2304C40.0713 24.903 39.8192 24.6287 39.5183 24.4075C39.2263 24.1863 38.8901 24.0624 38.5096 24.0359V27.3274C38.7574 27.4866 39.0228 27.6459 39.306 27.8052C39.8545 28.1148 40.2925 28.3936 40.6199 28.6413C40.9561 28.889 41.2393 29.1899 41.4693 29.5438C41.7082 29.8977 41.8277 30.3136 41.8277 30.7914C41.8277 31.2426 41.7038 31.6585 41.4561 32.039C41.2083 32.4194 40.8323 32.7291 40.3279 32.968C39.8324 33.1981 39.2263 33.3308 38.5096 33.3662V34.2421H38.1115V33.3795ZM38.1115 24.0624C37.8195 24.1332 37.5806 24.2969 37.3948 24.5535C37.209 24.8101 37.1161 25.1198 37.1161 25.4825C37.1161 25.8011 37.2001 26.0886 37.3682 26.3452C37.5452 26.593 37.7929 26.8319 38.1115 27.0619V24.0624ZM38.5096 32.9547C38.837 32.8486 39.0936 32.6583 39.2794 32.384C39.4741 32.1098 39.5714 31.778 39.5714 31.3886C39.5714 31.0966 39.4785 30.8312 39.2927 30.5923C39.1069 30.3446 38.8459 30.1101 38.5096 29.8889V32.9547Z" stroke="none"  fill="#E24C1A"/>
<defs>
<clipPath id="clip0">
<rect width="43.6085" height="43.6085"  transform="translate(0 16.7272) rotate(-22.5554)"/>
</clipPath>
</defs>
</svg>
