<svg xmlns="http://www.w3.org/2000/svg" version="1.0" viewBox="0 0 100 100"><path d="M59.5 75.7c1.4 0 2.5 1.1 2.5 2.5s-1.1 2.5-2.5 2.5h-34c-1.4 0-2.5-1.1-2.5-2.5s1.1-2.5 2.5-2.5h34zm7.5-50H44.4c-1.4 0-2.5 1.1-2.5 2.5s1.1 2.5 2.5 2.5H67c1.4 0 2.5-1.1 2.5-2.5s-1.1-2.5-2.5-2.5zm2.5 32.5c0-1.4-1.1-2.5-2.5-2.5H25.7c-1.4 0-2.5 1.1-2.5 2.5s1.1 2.5 2.5 2.5H67c1.4 0 2.5-1.1 2.5-2.5zM67 45.7H25.7c-1.4 0-2.5 1.1-2.5 2.5s1.1 2.5 2.5 2.5H67c1.4 0 2.5-1.1 2.5-2.5 0-1.3-1.1-2.5-2.5-2.5zm0-10H25.7c-1.4 0-2.5 1.1-2.5 2.5s1.1 2.5 2.5 2.5H67c1.4 0 2.5-1.1 2.5-2.5 0-1.3-1.1-2.5-2.5-2.5zm-20.5 30H25.7c-1.4 0-2.5 1.1-2.5 2.5s1.1 2.5 2.5 2.5h38.9v-1.4c.1-1.3.3-2.5.7-3.6H46.5zm29.2-11.9c.4-.1.8-.1 1.2-.1H78.3c.7 0 1.5 0 2.4.2V15.9C80.7 10 76 5.3 70.1 5.3H35.3c-.6 0-1.2.1-1.8.3-.6.2-1.1.6-1.5 1L13.9 24.1c-.5.4-.8 1-1.1 1.6s-.4 1.2-.4 1.9v53c0 5.9 4.7 10.6 10.6 10.6h42.8c-1.3-1.3-1.7-2.9-1.2-5H23c-3.1 0-5.6-2.5-5.6-5.6V29.1h8.9c5.8 0 10.6-4.8 10.6-10.6v-8.1h33.2c3.1 0 5.6 2.5 5.6 5.6V53.8zm10.1 33c3.3-4 2-9.8-2.6-12.4-1.5-.8-3-1.4-4.5-2-.9-.4-1.7-.8-2.5-1.4-1.5-1.2-1.2-3.1.5-3.8.5-.2 1-.3 1.5-.3h.7c1.8 0 3.4.4 5 1.2.3.2.6.2.8.2.4 0 .5-.3.7-.9l.9-3c.2-.7 0-1.1-.7-1.4-1.2-.5-2.4-.9-3.6-1.1-1.6-.3-1.6-.3-1.6-1.9 0-2.2 0-2.3-2.1-2.3H77c-1.1 0-1.3.2-1.3 1.3v1.5c0 1.5 0 1.4-1.4 1.9-3.4 1.2-5.4 3.5-5.7 7.2-.2 3.3 1.5 5.4 4.2 7 1.6 1 3.5 1.6 5.2 2.3.7.3 1.3.6 1.9 1.1 1.7 1.4 1.4 3.7-.6 4.6-.8.3-1.6.5-2.4.5-.3 0-.6 0-.9-.1-1.8-.2-3.5-.7-5.1-1.5-.3-.2-.6-.3-.8-.3-.3 0-.5.3-.7.9-.3.9-.5 1.8-.8 2.7-.3 1.2-.2 1.5.9 2 1.5.7 3 1.1 4.6 1.3 1.2.2 1.3.3 1.3 1.5v1.8c0 .7.4 1.2 1.1 1.2H79.1c.7 0 1.1-.4 1.1-1.1v-2.4c0-.8.3-1.2 1.1-1.4 1.7-.5 3.3-1.5 4.5-2.9z"/></svg>