<svg width="57" height="57" viewBox="0 0 57 57" stroke="#231F20" fill="none" xmlns="http://www.w3.org/2000/svg">
<g clip-path="url(#clip0)">
<path d="M48.2897 17.7619L17.7615 48.29C17.4066 48.645 16.8741 48.645 16.5191 48.29L8.70959 40.4805C8.35461 40.1255 8.35461 39.5931 8.70959 39.2381L39.2377 8.70995C39.5927 8.35497 40.1252 8.35497 40.4802 8.70995L48.2897 16.5195C48.6447 16.8745 48.6447 17.4069 48.2897 17.7619Z"  stroke-miterlimit="10" stroke-linecap="round" stroke-linejoin="round"/>
<path d="M21.8442 43.9416L19.3594 41.4567"  stroke-miterlimit="10" stroke-linecap="round" stroke-linejoin="round"/>
<path d="M24.9505 40.7468L23.0869 38.8831"  stroke-miterlimit="10" stroke-linecap="round" stroke-linejoin="round"/>
<path d="M28.1449 37.6407L25.5713 35.1558"  stroke-miterlimit="10" stroke-linecap="round" stroke-linejoin="round"/>
<path d="M31.2513 34.5347L29.3877 32.671"  stroke-miterlimit="10" stroke-linecap="round" stroke-linejoin="round"/>
<path d="M34.3569 31.3398L31.8721 28.855"  stroke-miterlimit="10" stroke-linecap="round" stroke-linejoin="round"/>
<path d="M37.5521 28.2338L35.6885 26.3701"  stroke-miterlimit="10" stroke-linecap="round" stroke-linejoin="round"/>
<path d="M40.6577 25.1277L38.1729 22.5541"  stroke-miterlimit="10" stroke-linecap="round" stroke-linejoin="round"/>
<path d="M43.8528 21.9329L41.9004 20.0693"  stroke-miterlimit="10" stroke-linecap="round" stroke-linejoin="round"/>
</g>
<defs>
<clipPath id="clip0">
<rect width="41" height="41" fill="white" transform="translate(8 8)"/>
</clipPath>
</defs>
</svg>
