<?xml version="1.0" encoding="UTF-8"?>
<svg width="75px" height="57px" viewBox="0 0 75 57" version="1.1">
    <circle className="iconCircle" fill="#F7DFD7" cx="25" cy="30" r="25"></circle>
    <g transform="translate(24.000000, 0.000000)">
        <rect x="0" y="0.03" width="48" height="48" fill="none" fill-rule="evenodd"></rect>
        <g transform="translate(5.000000,000000)" fill="#231F20" fill-rule="nonzero">
            <path d="M43.5634538,41.4452122 L2.54641018,0.439948365 C2.12200477,0.00809146535 1.47620947,-0.119571496 0.919333373,0.118302414 C0.358495885,0.345068743 -0.00624288864,0.892019778 0,1.49678506 L0,42.5020489 C0,42.8993302 0.157945676,43.2803399 0.43894671,43.5612603 C0.719947744,43.8421806 1.10106693,44 1.49846241,44 L42.5063135,44 C43.1108784,43.9980888 43.6550674,43.633149 43.8861658,43.0746541 C44.1172643,42.5161591 43.9899925,41.8735364 43.5634538,41.4452122 L43.5634538,41.4452122 Z M42.9717425,42.642647 C42.8851501,42.8597712 42.6745817,43.0015833 42.4411496,43 L1.57634701,43 C1.2580467,43 1,42.741547 1,42.4227456 L1,1.53942059 C0.998419223,1.30562101 1.14000838,1.09472101 1.35679132,1.00799234 C1.4326547,0.997335887 1.50963178,0.997335887 1.58549516,1.00799234 C1.73409545,1.00429822 1.87720634,1.06429942 1.97886577,1.17291835 L42.7979276,42.0195932 C42.975349,42.1735892 43.043768,42.4188427 42.9717425,42.642647 Z" id="Shape"></path>
            <path d="M10,20.79 C9.76844726,20.5606453 9.4219859,20.4924085 9.12075573,20.6168297 C8.81952556,20.7412508 8.62220552,21.034093 8.62,21.36 L8.62,33.47 C8.62,33.9173506 8.98264935,34.28 9.43,34.28 L21.5,34.28 C21.825907,34.2777945 22.1187492,34.0804744 22.2431703,33.7792443 C22.3675915,33.4780141 22.2993547,33.1315527 22.07,32.9 L10,20.79 Z M9.62,33.28 L9.62,21.83 L21,33.28 L9.62,33.28 Z" id="Shape"></path>
        </g>
    </g>
</svg>