<svg width="41" height="41" viewBox="0 0 41 41" stroke="#231F20" fill="none"
    xmlns="http://www.w3.org/2000/svg">
    <g clip-path="url(#clip0)">
        <path d="M40.2897 9.76191L9.76154 40.29C9.40656 40.645 8.8741 40.645 8.51912 40.29L0.709593 32.4805C0.354615 32.1255 0.354615 31.5931 0.709593 31.2381L31.2377 0.709959C31.5927 0.354981 32.1252 0.354981 32.4802 0.709959L40.2897 8.51948C40.6447 8.87446 40.6447 9.40693 40.2897 9.76191Z" stroke-miterlimit="10" stroke-linecap="round" stroke-linejoin="round"/>
        <path d="M13.8442 35.9416L11.3594 33.4567" stroke-miterlimit="10" stroke-linecap="round" stroke-linejoin="round"/>
        <path d="M16.9505 32.7468L15.0869 30.8831" stroke-miterlimit="10" stroke-linecap="round" stroke-linejoin="round"/>
        <path d="M20.1449 29.6407L17.5713 27.1558" stroke-miterlimit="10" stroke-linecap="round" stroke-linejoin="round"/>
        <path d="M23.2513 26.5347L21.3877 24.671" stroke-miterlimit="10" stroke-linecap="round" stroke-linejoin="round"/>
        <path d="M26.3569 23.3398L23.8721 20.855" stroke-miterlimit="10" stroke-linecap="round" stroke-linejoin="round"/>
        <path d="M29.5521 20.2338L27.6885 18.3701" stroke-miterlimit="10" stroke-linecap="round" stroke-linejoin="round"/>
        <path d="M32.6577 17.1277L30.1729 14.5541" stroke-miterlimit="10" stroke-linecap="round" stroke-linejoin="round"/>
        <path d="M35.8528 13.9329L33.9004 12.0693" stroke-miterlimit="10" stroke-linecap="round" stroke-linejoin="round"/>
    </g>
</svg>
