<?xml version="1.0" encoding="UTF-8"?>
<svg width="75px" height="60px" viewBox="0 0 75 60" version="1.1" 
    xmlns="http://www.w3.org/2000/svg" 
    xmlns:xlink="http://www.w3.org/1999/xlink">
    <circle className="iconCircle" fill="#F7DFD7" cx="25" cy="30" r="25"></circle>
    <g transform="translate(26.000000, 0.000000)" fill="#241F20" fill-rule="nonzero">
        <path d="M37.8,17.4 C37.9,16.6 38,15.8 38,14.9 C38,7.1 31.6,0.7 23.8,0.7 C16,0.7 9.6,7.1 9.6,14.9 C9.6,15.8 9.7,16.6 9.8,17.5 C4.2,19.4 0,24.7 0,31.1 C0,38.9 6.4,45.3 14.2,45.3 C18,45.3 21.4,43.8 24,41.4 C26.6,43.8 30,45.3 33.8,45.3 C41.6,45.3 48,38.9 48,31.1 C48,24.6 43.7,19.2 37.8,17.4 Z M10.6,14.9 C10.6,7.6 16.5,1.7 23.8,1.7 C31.1,1.7 37,7.7 37,14.9 C37,15.7 36.9,16.4 36.8,17.1 C35.8,16.9 34.8,16.8 33.8,16.8 C30,16.8 26.6,18.3 24,20.7 C21.4,18.3 18,16.8 14.2,16.8 C13,16.8 11.9,17 10.8,17.2 C10.7,16.5 10.6,15.7 10.6,14.9 Z M27.4,31.1 C27.4,34.5 26.1,37.6 24,39.9 C21.9,37.6 20.6,34.5 20.6,31.1 C20.6,30.3 20.7,29.6 20.8,28.9 C21.8,29.1 22.8,29.2 23.8,29.2 C25,29.2 26.1,29 27.2,28.8 C27.3,29.5 27.4,30.3 27.4,31.1 Z M23.8,28.1 C22.8,28.1 21.9,28 21,27.8 C21.5,25.7 22.6,23.8 24,22.2 C25.4,23.8 26.4,25.6 27,27.7 C26,28 24.9,28.1 23.8,28.1 Z M20,27.6 C15.6,26.3 12.2,22.7 11,18.3 C12,18.1 13.1,17.9 14.1,17.9 C17.6,17.9 20.8,19.3 23.2,21.6 C21.8,23.2 20.6,25.3 20,27.6 Z M24.7,21.5 C27.1,19.2 30.3,17.8 33.8,17.8 C34.8,17.8 35.7,17.9 36.6,18.1 C35.5,22.5 32.2,26 27.9,27.4 C27.3,25.2 26.2,23.2 24.7,21.5 Z M1,31.1 C1,25.3 4.8,20.3 10.1,18.6 C11.4,23.4 15.1,27.2 19.8,28.6 C19.7,29.4 19.6,30.2 19.6,31.1 C19.6,34.8 21,38.1 23.3,40.6 C20.9,42.9 17.7,44.3 14.2,44.3 C6.9,44.3 1,38.3 1,31.1 Z M33.8,44.3 C30.3,44.3 27.1,42.9 24.7,40.6 C27,38.1 28.4,34.7 28.4,31.1 C28.4,30.2 28.3,29.4 28.2,28.5 C32.8,27 36.4,23.2 37.6,18.5 C43,20.1 47,25.1 47,31.1 C47,38.3 41.1,44.3 33.8,44.3 Z" id="Visual.1_1_"></path>
    </g>
</svg>