<?xml version="1.0" encoding="UTF-8"?>
<svg width="75px" height="60px" viewBox="0 0 75 60" version="1.1" 
    xmlns="http://www.w3.org/2000/svg" 
    xmlns:xlink="http://www.w3.org/1999/xlink">
    <circle className="iconCircle" fill="#F7DFD7" cx="25" cy="30" r="25"></circle>
    <g transform="translate(22.000000, 0.000000)">
        <rect id="Rectangle" x="2" y="0" width="48" height="48" fill="none" fill-rule="evenodd"></rect>
        <g fill="#231F20" fill-rule="nonzero">
            <path d="M27.2883333,12.11 C18.5834052,12.11 11.5266667,19.1667385 11.5266667,27.8716667 C11.5266667,36.5765948 18.5834052,43.6333333 27.2883333,43.6333333 C35.9932615,43.6333333 43.05,36.5765948 43.05,27.8716667 C43.0435658,19.1694051 35.9905949,12.1164342 27.2883333,12.11 Z M27.2883333,42.4433333 C21.3830851,42.4433258 16.0597483,38.8848382 13.8020936,33.4281954 C11.5444389,27.9715525 12.7974078,21.6921562 16.976388,17.519857 C21.1553682,13.3475578 27.4367612,12.1046376 32.8897849,14.37102 C38.3428085,16.6374024 41.8927742,21.966426 41.8833521,27.8716667 C41.8768999,35.9295963 35.3462629,42.4602332 27.2883333,42.4666667 L27.2883333,42.4433333 Z" id="Shape"></path>
            <path d="M28,8.02666667 C28.3221661,8.02666667 28.5833333,7.76549944 28.5833333,7.44333333 L28.5833333,0.583333333 C28.5833333,0.261167229 28.3221661,0 28,0 C27.6778339,0 27.4166667,0.261167229 27.4166667,0.583333333 L27.4166667,7.44333333 C27.4166667,7.76549944 27.6778339,8.02666667 28,8.02666667 Z" id="Path"></path>
            <path d="M28,47.9733333 C27.6778339,47.9733333 27.4166667,48.2345006 27.4166667,48.5566667 L27.4166667,55.4166667 C27.4166667,55.7388328 27.6778339,56 28,56 C28.3221661,56 28.5833333,55.7388328 28.5833333,55.4166667 L28.5833333,48.5566667 C28.5833333,48.2345006 28.3221661,47.9733333 28,47.9733333 Z" id="Path"></path>
            <path d="M55.4166667,27.4166667 L48.5566667,27.4166667 C48.2345006,27.4166667 47.9733333,27.6778339 47.9733333,28 C47.9733333,28.3221661 48.2345006,28.5833333 48.5566667,28.5833333 L55.4166667,28.5833333 C55.7388328,28.5833333 56,28.3221661 56,28 C56,27.6778339 55.7388328,27.4166667 55.4166667,27.4166667 Z" id="Path"></path>
            <path d="M7.43166667,27.4166667 L0.583333333,27.4166667 C0.261167229,27.4166667 0,27.6778339 0,28 C0,28.3221661 0.261167229,28.5833333 0.583333333,28.5833333 L7.43166667,28.5833333 C7.75383277,28.5833333 8.015,28.3221661 8.015,28 C8.015,27.6778339 7.75383277,27.4166667 7.43166667,27.4166667 Z" id="Path"></path>
            <path d="M42.9566667,42.1283333 C42.7279287,41.8995954 42.3570713,41.8995954 42.1283334,42.1283334 C41.8995954,42.3570713 41.8995954,42.7279287 42.1283333,42.9566667 L46.97,47.8333333 C47.0812863,47.9450064 47.2323442,48.0079471 47.39,48.0083333 C47.5559546,48.0157874 47.7172153,47.9521319 47.8333333,47.8333333 C47.9437657,47.7238028 48.0058824,47.5747052 48.0058824,47.4191667 C48.0058824,47.2636281 47.9437657,47.1145305 47.8333333,47.005 L42.9566667,42.1283333 Z" id="Path"></path>
            <path d="M13.0433333,13.8716667 C13.1546197,13.9833397 13.3056775,14.0462805 13.4633333,14.0466667 C13.6174711,14.045769 13.7647147,13.9826646 13.8716667,13.8716667 C13.982099,13.7621362 14.0442157,13.6130386 14.0442157,13.4575 C14.0442157,13.3019614 13.982099,13.1528638 13.8716667,13.0433333 L9.03,8.16666667 C8.79159708,7.92826375 8.40506958,7.92826375 8.16666667,8.16666667 C7.92826375,8.40506958 7.92826375,8.79159708 8.16666667,9.03 L13.0433333,13.8716667 Z" id="Path"></path>
            <path d="M13.0433333,42.1283333 L8.16666667,46.97 C8.04503336,47.0805559 7.97568734,47.2372973 7.97568734,47.4016667 C7.97568734,47.566036 8.04503336,47.7227774 8.16666667,47.8333333 C8.27436777,47.9432417 8.42113459,48.0061417 8.575,48.0083333 C8.74469949,48.0176602 8.91028745,47.9539725 9.03,47.8333333 L13.8716667,42.9916667 C14.1004046,42.7629287 14.1004046,42.3920713 13.8716667,42.1633333 C13.6429287,41.9345954 13.2720713,41.9345954 13.0433333,42.1633333 L13.0433333,42.1283333 Z" id="Path"></path>
            <path d="M46.97,8.16666667 L42.1283333,13.0083333 C42.017901,13.1178638 41.9557843,13.2669614 41.9557843,13.4225 C41.9557843,13.5780386 42.017901,13.7271362 42.1283333,13.8366667 C42.2352853,13.9476646 42.3825289,14.010769 42.5366667,14.0116667 C42.6943225,14.0112805 42.8453803,13.9483397 42.9566667,13.8366667 L47.8333333,9.03 C48.0717362,8.79159708 48.0717362,8.4050696 47.8333333,8.16666669 C47.5949304,7.92826379 47.2084029,7.92826378 46.97,8.16666667 L46.97,8.16666667 Z" id="Path"></path>
        </g>
    </g>

</svg>