<?xml version="1.0" encoding="UTF-8"?>
<svg width="75px" height="57px" viewBox="0 0 75 57" version="1.1">
    <defs>
        <polygon id="path-1" points="0.000121487603 0.0002 48.3285658 0.0002 48.3285658 34.1171 0.000121487603 34.1171"></polygon>
    </defs>
    <circle className="iconCircle" cx="25" cy="30" r="25"></circle>
    <g transform="translate(26.000000, 4.000000)">
        <mask id="mask-2" fill="white">
            <use xlink:href="#path-1"></use>
        </mask>
        <path d="M47.3147,33.0381 C47.3147,33.0391 47.2417,33.1171 46.8467,33.1171 L38.2947,33.1171 C38.3087,33.0171 38.3327,32.9241 38.3227,32.8111 C38.2977,32.5091 38.2767,32.1551 38.2537,31.7621 C38.0067,27.6141 37.5037,19.1521 29.8137,16.3601 C31.8567,14.6131 33.0597,11.9961 33.0597,9.2291 C33.0597,6.4491 31.8637,3.9591 29.9837,2.2661 C31.2377,1.4461 32.6727,1.0001 34.1647,1.0001 C38.5177,1.0001 42.0597,4.6911 42.0597,9.2291 C42.0597,11.9061 40.8037,14.4251 38.7177,15.9541 L37.5627,16.7261 L38.6057,17.0211 C46.5087,19.2531 47.0127,27.7411 47.2547,31.8211 C47.2787,32.2231 47.3007,32.5841 47.3257,32.8931 C47.3347,32.9901 47.3187,33.0321 47.3147,33.0381 L47.3147,33.0381 Z M26.8467,33.1171 L21.4817,33.1171 L11.4817,33.1171 C11.0867,33.1171 11.0147,33.0391 11.0137,33.0381 C11.0097,33.0321 10.9947,32.9901 11.0027,32.8931 C11.0277,32.5901 11.0487,32.2361 11.0727,31.8441 C11.3177,27.7691 11.8287,19.2911 19.6847,17.0351 L20.5937,16.7741 L19.7047,16.0381 C17.5537,14.5061 16.2687,11.9601 16.2687,9.2291 C16.2687,4.6911 19.8107,1.0001 24.1647,1.0001 C28.5177,1.0001 32.0597,4.6911 32.0597,9.2291 C32.0597,11.9061 30.8037,14.4251 28.7177,15.9541 L27.5627,16.7261 L28.6057,17.0211 C36.5087,19.2531 37.0127,27.7411 37.2547,31.8211 C37.2787,32.2231 37.3007,32.5841 37.3257,32.8931 C37.3347,32.9901 37.3187,33.0321 37.3147,33.0381 C37.3147,33.0391 37.2417,33.1171 36.8467,33.1171 L26.8467,33.1171 Z M1.0137,33.0381 C1.0097,33.0321 0.9947,32.9901 1.0027,32.8931 C1.0277,32.5901 1.0487,32.2361 1.0727,31.8441 C1.3177,27.7691 1.8287,19.2911 9.6847,17.0351 L10.5937,16.7741 L9.7047,16.0381 C7.5537,14.5061 6.2687,11.9601 6.2687,9.2291 C6.2687,4.6911 9.8107,1.0001 14.1647,1.0001 C15.6577,1.0001 17.0887,1.4491 18.3417,2.2681 C16.4637,3.9621 15.2687,6.4511 15.2687,9.2291 C15.2687,12.0211 16.4737,14.6421 18.5027,16.3691 C10.8347,19.1751 10.3237,27.6381 10.0737,31.7831 C10.0507,32.1681 10.0297,32.5141 10.0057,32.8111 C9.9967,32.9241 10.0207,33.0171 10.0337,33.1171 L1.4817,33.1171 C1.0867,33.1171 1.0147,33.0391 1.0137,33.0381 L1.0137,33.0381 Z M48.2537,31.7621 C48.0067,27.6141 47.5037,19.1521 39.8137,16.3601 C41.8567,14.6131 43.0597,11.9961 43.0597,9.2291 C43.0597,4.1411 39.0687,0.0001 34.1647,0.0001 C32.3787,0.0001 30.6567,0.5471 29.1837,1.5811 L29.2377,1.6591 C27.7967,0.6161 26.0497,0.0001 24.1647,0.0001 C22.3117,0.0001 20.5897,0.5931 19.1637,1.6021 C17.6867,0.5571 15.9617,0.0001 14.1647,0.0001 C9.2597,0.0001 5.2687,4.1411 5.2687,9.2291 C5.2687,12.0211 6.4737,14.6421 8.5027,16.3691 C0.8347,19.1751 0.3237,27.6381 0.0737,31.7831 C0.0507,32.1681 0.0297,32.5141 0.0057,32.8111 C-0.0243,33.1831 0.0667,33.4861 0.2787,33.7161 C0.6097,34.0751 1.1247,34.1171 1.4817,34.1171 L11.4817,34.1171 L21.4817,34.1171 L26.8467,34.1171 L36.8467,34.1171 L46.8467,34.1171 C47.2047,34.1171 47.7187,34.0751 48.0497,33.7161 C48.2617,33.4861 48.3537,33.1831 48.3227,32.8111 C48.2977,32.5091 48.2767,32.1551 48.2537,31.7621 L48.2537,31.7621 Z" id="Fill-1" fill="#231F20" mask="url(#mask-2)"></path>
    </g>
</svg>