<?xml version="1.0" encoding="UTF-8"?>
<svg width="35px" height="35px" viewBox="0 0 33 33" version="1.1" 
    xmlns="http://www.w3.org/2000/svg" 
    xmlns:xlink="http://www.w3.org/1999/xlink">
    <g id='telegram'>
        <path d="M16.464,-5.68434189e-14 C25.5568161,-5.68434189e-14 32.928,7.37118388 32.928,16.464 C32.928,25.5568161 25.5568161,32.928 16.464,32.928 C7.37118388,32.928 -5.68434189e-14,25.5568161 -5.68434189e-14,16.464 C-5.68434189e-14,7.37118388 7.37118388,-5.68434189e-14 16.464,-5.68434189e-14 Z M12.6471137,22.2411426 C12.657468,22.2456939 12.6679389,22.2499615 12.6859463,22.2561732 L12.6859463,22.2561732 L12.7224024,22.268509 L12.7224024,22.268509 L12.7651991,22.2790356 C12.7679447,22.2799332 12.7706375,22.2808308 12.7733831,22.2808308 C12.7933943,22.284474 12.8143559,22.2881172 12.8352647,22.2899124 L12.8352647,22.2899124 L12.8209318,22.2892765 C12.8489881,22.2928408 12.8773129,22.2945138 12.9056897,22.294243 L12.9056897,22.294243 L12.9155618,22.2931391 L12.9279926,22.2936292 C12.9413577,22.2930207 12.9547218,22.2919783 12.9677923,22.2897432 L12.9677923,22.2897432 L13.018,22.281 L13.0030115,22.2855942 C13.0100398,22.2844011 13.017056,22.2830835 13.0240566,22.2816408 L13.0450088,22.2769363 L13.0755575,22.2680532 C13.0946711,22.2635124 13.1128871,22.256226 13.1320007,22.2489396 C13.1693303,22.2334692 13.2048119,22.2143556 13.2393959,22.1915988 L13.2393959,22.1915988 L13.2402935,22.1907012 L13.2546219,22.1807666 C13.2581662,22.1782323 13.2616929,22.1756539 13.2652013,22.1730315 L13.2652013,22.1730315 L13.273,22.166 L13.2903479,22.1533716 C13.3067687,22.1396964 13.3231367,22.124226 13.3386071,22.1087556 L13.3386071,22.1087556 L15.1981703,20.2100148 L18.8463335,22.8878724 C18.985709,22.9902714 19.1436625,23.0368489 19.2984168,23.0359659 L19.2984168,23.0359659 L19.3907113,23.0298078 C19.6959185,22.9907425 19.9709075,22.7685246 20.0414615,22.4300436 L20.0414615,22.4300436 L22.4581175,10.8784068 C22.4717927,10.8119316 22.4763335,10.7464068 22.4735879,10.6845252 C22.4717927,10.6590756 22.4690471,10.6353684 22.4654039,10.611714 C22.4644912,10.606253 22.4635236,10.6008286 22.4623924,10.5956486 C22.4613941,10.5902258 22.4603344,10.5848248 22.4592671,10.5793678 C22.4536015,10.5527461 22.4465543,10.5269172 22.4381063,10.5015732 C22.4344631,10.4896932 22.4299223,10.4788164 22.4262791,10.4687844 C22.4217383,10.4569572 22.4171447,10.4460276 22.4117063,10.4342004 C22.4071655,10.4232708 22.4016743,10.4123412 22.3962359,10.4014116 L22.3962359,10.4014116 L22.3789175,10.3695732 C22.3725287,10.3595412 22.3661927,10.349562 22.3598039,10.3386324 L22.3598039,10.3386324 L22.3675884,10.3498499 C22.3322559,10.2925261 22.2892036,10.2404704 22.2394073,10.1948702 L22.2394073,10.1948702 L22.2213069,10.1783107 C22.2034404,10.1628868 22.1848419,10.1483125 22.1654663,10.1348224 C22.1567305,10.1286143 22.1478579,10.1225941 22.1387699,10.1164904 C22.1230718,10.1063516 22.1069813,10.0967997 22.0909841,10.0882863 C22.0782432,10.0813438 22.0652865,10.0747723 22.051816,10.0682877 C22.0370277,10.0613507 22.0219894,10.0548996 22.0071616,10.0492527 C21.9933085,10.0438409 21.9792678,10.0388461 21.9645492,10.0340083 C21.9478364,10.0286612 21.9308898,10.0239109 21.9140741,10.0199587 C21.9001455,10.0165943 21.8860811,10.0136395 21.8719938,10.01104 C21.8558519,10.0081603 21.8395542,10.0058279 21.8229708,10.0041176 L21.8229708,10.0041176 L21.7768785,10.0006156 L21.7768785,10.0006156 L21.7258681,10.0003723 C21.7098891,10.0008513 21.6938304,10.001872 21.6774254,10.0034432 L21.6774254,10.0034432 L21.617927,10.0118511 L21.617927,10.0118511 L21.575,10.021 L21.486,10.049 L21.4805255,10.0510308 L7.3284359,15.5650932 C6.8706071,15.744402 6.8979047,16.4015508 7.3703063,16.5408372 L7.3703063,16.5408372 L10.9666199,17.6030676 L12.3082679,21.8620212 C12.3342698,21.9446416 12.3748983,22.0166532 12.4258837,22.0766072 C12.4337303,22.0858663 12.4418223,22.0948493 12.4561673,22.1099634 C12.4631081,22.1170137 12.4702032,22.1238725 12.4773818,22.1302948 C12.4912264,22.1430565 12.5056008,22.1551143 12.5204494,22.1665735 C12.5348685,22.1775575 12.5497343,22.187858 12.5647033,22.1972778 C12.5743844,22.203408 12.5842222,22.2092596 12.5945795,22.2149369 L12.5945795,22.2149369 L12.633,22.234 L12.643,22.237 L12.6431783,22.23801 L12.644,22.239 Z M19.7064983,12.6142068 L13.1328983,18.426906 C13.0673735,18.4851444 13.0255031,18.565242 13.0163687,18.652626 L12.7801415,22.195506 C12.7771352,22.2199062 12.7639512,22.2373284 12.7468644,22.2471425 L12.7467623,22.254378 L12.7347765,22.2526157 C12.7130577,22.2600583 12.6879213,22.2568518 12.6694735,22.2419813 C12.6625561,22.2406134 12.6560123,22.23933 12.6495623,22.23801 L12.6485146,22.2120242 C12.6480653,22.2107864 12.6476413,22.209522 12.6472439,22.2082308 L11.5891319,17.5594548 C11.5408727,17.4056484 11.6037047,17.2390644 11.7402455,17.154426 L19.5026375,12.3402804 C19.6810487,12.2291892 19.8640007,12.4749732 19.7064983,12.6142068 Z" id="telegram"></path>
    </g>
</svg>