<?xml version="1.0" encoding="UTF-8"?>
<svg width="35px" height="35px" viewBox="0 0 35 37" version="1.1" 
    xmlns="http://www.w3.org/2000/svg" 
    xmlns:xlink="http://www.w3.org/1999/xlink">
    <g id='viber'>
        <path d="M3.63217475,3.82214862 C9.41185274,-1.57235949 25.7270759,-0.90304659 30.5565198,3.62058543 C33.5496791,6.26860268 35.2090666,12.1231672 34.0881973,21.3966129 C33.0111609,30.3807923 26.350129,31.2470524 25.1729031,31.6347923 C24.6641287,31.8009665 20.1869133,32.9395678 14.3571406,32.4425837 C10.8708614,36.5353936 10.3636524,37.2354796 9.24278307,36.8785127 C8.40280201,36.6187006 8.32535967,35.4737563 8.32037575,35.1519317 L8.32072718,31.345526 C-0.1969402,28.9083039 -0.077965247,19.9241245 0.0222241874,15.1281514 C0.122413622,10.3337169 1.03664221,6.46093397 3.63217475,3.82214862 Z M13.4805841,9.28085679 C13.1493559,8.87483762 12.6512683,8.78339186 12.1332573,9.05772914 L12.1332573,9.05772914 L12.1220503,9.05772914 L11.9869992,9.1376125 C10.9493698,9.77096373 9.88143461,10.8788714 10.243015,12.0181332 C10.8867932,13.2715498 12.0697511,17.2671198 15.8402738,20.2860492 C17.6122202,21.7138223 20.4164531,23.1769545 21.6068824,23.5146942 L21.6068824,23.5146942 L21.6180893,23.531764 L21.7645091,23.5714999 C22.8852141,23.8148183 23.9570773,22.6692273 24.540618,21.619938 L24.540618,21.619938 L24.6007056,21.4892284 C24.7937692,21.0127128 24.6882802,20.5698359 24.3264403,20.2714179 C23.6266273,19.6032542 22.5706817,18.8655917 21.741366,18.391293 C21.1262279,18.0425799 20.4998828,18.2596111 20.2408773,18.6022279 L20.2408773,18.6022279 L19.6992071,19.2886808 L19.6258638,19.3678844 C19.3418725,19.6299936 18.9097383,19.5910614 18.9097383,19.5910614 C15.1566487,18.6192978 14.1530023,14.7736988 14.1530023,14.7736988 C14.1530023,14.7736988 14.1069292,14.2530676 14.4506096,13.9738532 L14.4506096,13.9738532 L15.1280086,13.4251786 L15.1939595,13.3676768 C15.4927803,13.0773271 15.6578908,12.4862542 15.3359602,11.9047405 C14.4144982,10.2745674 13.7956244,9.71248078 13.4805841,9.28085679 Z M17.633389,8.05548361 C17.1539797,8.05548361 17.1539797,8.78704969 17.633389,8.79314607 C21.3528577,8.82118944 24.4160961,11.3597237 24.449717,16.0161418 C24.449717,16.5075104 25.1843961,16.501414 25.1769248,16.0100455 L25.1769248,16.0100455 L25.1707879,15.7173461 C25.0056017,10.8797431 21.7108703,8.08297711 17.633389,8.05548361 Z M18.2995811,9.97584457 C17.8201718,9.94170482 17.770363,10.6793673 18.2485271,10.713507 C21.0876261,10.9244419 22.5831339,12.8216366 22.5258539,15.2443396 C22.5146469,15.7296118 23.2480808,15.752778 23.2543069,15.2614095 C23.3153226,12.4948704 21.5732614,10.2160421 18.2995811,9.97584457 Z M18.8524582,11.9596079 C18.373049,11.9315646 18.3282211,12.669227 18.8126112,12.6972704 C20.0092666,12.7655499 20.5895385,13.3776268 20.6517995,14.6347012 C20.6742134,15.1260698 21.4026665,15.09193 21.3802525,14.6005615 C21.3005585,12.9594149 20.4264149,12.0449573 18.8524582,11.9596079 Z" id="viber"></path>
    </g>
</svg>