<?xml version="1.0" encoding="UTF-8"?>
<svg width="75px" height="60px" viewBox="0 0 75 60" version="1.1" 
    xmlns="http://www.w3.org/2000/svg" 
    xmlns:xlink="http://www.w3.org/1999/xlink">
    <circle className="iconCircle" fill="#F7DFD7" cx="25" cy="30" r="25"></circle>
    <g transform="translate(25.000000, 0.000000)">
        <rect id="Rectangle" x="2" y="0" width="48" height="48" fill="none" fill-rule="evenodd"></rect>
        <g transform="translate(0.000000, 3.000000)" fill="#231F20" fill-rule="nonzero">
            <path d="M46.4,0.2 L1.6,0.2 C0.7,0.2 0,0.9 0,1.8 L0,40.3 C0,41.2 0.7,41.9 1.6,41.9 L46.5,41.9 C47.4,41.9 48.1,41.2 48.1,40.3 L48.1,1.8 C48,0.9 47.3,0.2 46.4,0.2 Z M47,40.2 C47,40.5 46.7,40.8 46.4,40.8 L1.6,40.8 C1.3,40.8 1.1,40.6 1,40.3 L1,1.8 C1,1.5 1.3,1.2 1.6,1.2 L46.5,1.2 C46.8,1.2 47.1,1.4 47.1,1.8 L47.1,40.2 L47,40.2 Z" id="Shape"></path>
            <path d="M42.2,4.5 L4.8,4.5 C4.5,4.5 4.3,4.7 4.3,5 L4.3,30.6 C4.3,30.9 4.5,31.1 4.8,31.1 L42.2,31.1 C42.5,31.1 42.7,30.9 42.7,30.6 L42.7,5 C42.7,4.7 42.5,4.5 42.2,4.5 C42.2,4.5 42.2,4.5 42.2,4.5 Z M41.7,5.5 L41.7,22.1 L33.3,15.9 C33.1,15.8 32.9,15.8 32.7,15.9 L26.1,20.5 L18.3,14.8 C18.1,14.7 17.9,14.7 17.7,14.8 L5.3,23.6 L5.3,5.5 L41.7,5.5 Z M5.3,30.1 L5.3,24.8 L18,15.9 L25.7,21.5 C25.7,21.6 25.8,21.6 25.9,21.6 L30.3,24.8 C30.5,25 30.8,24.9 31,24.7 C31.2,24.5 31.1,24.2 30.9,24 L27,21.1 L33,16.9 L41.6,23.2 C41.6,23.2 41.7,23.2 41.7,23.2 L41.7,30 L5.3,30.1 Z" id="Shape"></path>
        </g>
    </g>
</svg>