<?xml version="1.0" encoding="UTF-8"?>
<svg width="35px" height="35px" viewBox="0 0 34 34" version="1.1" 
  xmlns="http://www.w3.org/2000/svg" 
  xmlns:xlink="http://www.w3.org/1999/xlink">
  <g id='whatsapp'>
    <path d="M16.5456738,1.59872116e-13 C25.6662646,1.59872116e-13 33.0830769,7.42094769 33.0830769,16.5415385 C33.0830769,25.6621292 25.6662646,33.0830769 16.5456738,33.0830769 C13.1815385,33.0830769 10.0613908,32.0823138 7.44576,30.3495877 L7.44576,30.3495877 L1.08760615,32.3821292 L3.14909538,26.2369477 C1.16617846,23.5137969 1.59872116e-13,20.16 1.59872116e-13,16.5415385 C1.59872116e-13,7.41888 7.41681231,1.59872116e-13 16.5374031,1.59872116e-13 L16.5374031,1.59872116e-13 Z M11.7767945,9.96452102 C11.2884526,9.96452102 10.7793642,10.1016592 10.4713577,10.4018394 C10.0963239,10.7675412 9.16592092,11.6193216 9.16592092,13.3685951 C9.16592092,15.1178686 10.5016796,16.8092394 10.682015,17.0454218 C10.8703298,17.2816042 13.286505,20.9218606 17.0384389,22.4060004 C19.9716819,23.5671035 20.8430371,23.4589168 21.5101184,23.3233023 C22.4852063,23.1221664 23.7076569,22.433428 24.0156634,21.6029802 C24.3236699,20.7710087 24.3236699,20.0624615 24.2343001,19.9116095 C24.1433345,19.7607575 23.8959717,19.6754271 23.5209379,19.4956237 C23.1459042,19.3173441 21.3218036,18.4564211 20.9770917,18.3421393 C20.6387633,18.2202387 20.3163938,18.2629039 20.0610517,18.6072731 C19.7019768,19.0872567 19.3492854,19.5748591 19.0636214,19.8689443 C18.8386011,20.0975079 18.4715467,20.1264593 18.1635403,20.0045587 C17.7502051,19.8399929 16.5947819,19.4529585 15.1696534,18.2415713 C14.0652986,17.3029368 13.315231,16.1342148 13.0981902,15.7837506 C12.8811493,15.4256676 13.0758477,15.2184366 13.2482037,15.0249194 C13.4365185,14.8024508 13.615258,14.6439801 13.8035729,14.4367491 C13.9918877,14.229518 14.0972164,14.1213313 14.216908,13.8775301 C14.3445791,13.6413477 14.2536134,13.3975465 14.1626478,13.2177431 C14.073278,13.0379397 13.3232105,11.2886662 13.015204,10.580119 C12.7678413,10.014805 12.5795264,9.99347241 12.2044926,9.97823483 C12.0768215,9.9721398 11.9347875,9.96452102 11.7767945,9.96452102 Z" id="whatsapp"></path>
  </g>
</svg>