<svg width="24" height="28" viewBox="0 0 24 28" fill="none" xmlns="http://www.w3.org/2000/svg">
<path d="M2.99951 5.00009L4.24951 25.0001C4.30889 26.1557 5.14951 27.0001 6.24951 27.0001H17.7495C18.8539 27.0001 19.6789 26.1557 19.7495 25.0001L20.9995 5.00009" stroke="white" stroke-linecap="round" stroke-linejoin="round"/>
<path d="M1 5.00009H23" stroke="white" stroke-miterlimit="10" stroke-linecap="round"/>
<path d="M7.99927 5.00001V2.50001C7.9987 2.30286 8.0371 2.10755 8.11228 1.9253C8.18746 1.74305 8.29792 1.57746 8.43733 1.43806C8.57673 1.29866 8.74232 1.18819 8.92457 1.11301C9.10682 1.03783 9.30213 0.999429 9.49927 1.00001H14.4993C14.6964 0.999429 14.8917 1.03783 15.074 1.11301C15.2562 1.18819 15.4218 1.29866 15.5612 1.43806C15.7006 1.57746 15.8111 1.74305 15.8863 1.9253C15.9614 2.10755 15.9999 2.30286 15.9993 2.50001V5.00001" stroke="white" stroke-linecap="round" stroke-linejoin="round"/>
<path d="M12.0005 9.00015V23.0002" stroke="white" stroke-linecap="round" stroke-linejoin="round"/>
<path d="M7.5 9.00015L8 23.0002" stroke="white" stroke-linecap="round" stroke-linejoin="round"/>
<path d="M16.4995 9.00015L15.9995 23.0002" stroke="white" stroke-linecap="round" stroke-linejoin="round"/>
</svg>
