<svg width="37" height="37" viewBox="0 0 37 37" fill="white" xmlns="http://www.w3.org/2000/svg">
<rect width="35.2632" height="35.2632" transform="matrix(-1 0 0 1 36 1.10522)"  stroke="black"/>
<path fill-rule="evenodd" clip-rule="evenodd" d="M20.7231 10.2347C21.0131 10.2347 21.2503 10.4719 21.2503 10.7618V14.6677L28.4833 7.43055C28.6889 7.22497 29.021 7.22497 29.2266 7.43055C29.4322 7.63612 29.4322 7.96819 29.2266 8.17376L21.9884 15.4109H25.8948C26.1848 15.4109 26.422 15.6481 26.422 15.938C26.422 16.2279 26.1848 16.4651 25.8948 16.4651H20.7126C20.4226 16.4651 20.1854 16.2279 20.1854 15.938V10.7566C20.196 10.4667 20.4279 10.2347 20.7231 10.2347ZM10.8299 16.4651H16.0121C16.3073 16.4651 16.5393 16.2331 16.5393 15.9432V10.7618C16.5393 10.4719 16.302 10.2347 16.0121 10.2347C15.7221 10.2347 15.4849 10.4719 15.4849 10.7618V14.6676L8.24665 7.43576C8.04105 7.23018 7.70893 7.23018 7.50332 7.43576C7.29772 7.64133 7.29772 7.9734 7.50332 8.17897L14.7363 15.4108H10.8299C10.5399 15.4108 10.3027 15.648 10.3027 15.938C10.3027 16.2279 10.5399 16.4651 10.8299 16.4651ZM25.9079 20.1231H20.7256C20.4304 20.1231 20.1984 20.3551 20.1932 20.6397V25.8211C20.1932 26.111 20.4304 26.3482 20.7203 26.3482C21.0103 26.3482 21.2475 26.111 21.2475 25.8211V21.9153L28.4858 29.1524C28.5912 29.2526 28.723 29.3053 28.8601 29.3053C28.9972 29.3053 29.129 29.2579 29.2344 29.1524C29.44 28.9469 29.44 28.6148 29.2344 28.4092L22.0014 21.1773H25.9079C26.1978 21.1773 26.435 20.9401 26.435 20.6502C26.435 20.3603 26.1978 20.1231 25.9079 20.1231ZM10.8361 21.1773H14.7425L7.50426 28.4198C7.29866 28.6253 7.29866 28.9574 7.50426 29.163C7.6097 29.2631 7.74149 29.3158 7.87856 29.3158C8.01563 29.3158 8.14743 29.2684 8.25286 29.163L15.4911 21.9258V25.8317C15.4911 26.1216 15.7284 26.3588 16.0183 26.3588C16.3083 26.3588 16.5455 26.1216 16.5455 25.8317V20.6502C16.5455 20.3603 16.3083 20.1231 16.0183 20.1231H10.8361C10.5461 20.1231 10.3089 20.3603 10.3089 20.6502C10.3089 20.9401 10.5461 21.1773 10.8361 21.1773Z" fill="black"/>
<path d="M21.2503 14.6677H21.1753V14.8488L21.3034 14.7207L21.2503 14.6677ZM28.4833 7.43055L28.4303 7.37751L28.4303 7.37753L28.4833 7.43055ZM29.2266 7.43055L29.1736 7.48358L29.2266 7.43055ZM29.2266 8.17376L29.1736 8.12073L29.2266 8.17376ZM21.9884 15.4109L21.9354 15.3579L21.8073 15.4859H21.9884V15.4109ZM20.1854 10.7566L20.1104 10.7538V10.7566H20.1854ZM15.4849 14.6676L15.4319 14.7207L15.5599 14.8486V14.6676H15.4849ZM8.24665 7.43576L8.19363 7.48879L8.19364 7.48881L8.24665 7.43576ZM7.50332 7.43576L7.55635 7.48879L7.50332 7.43576ZM7.50332 8.17897L7.45029 8.23201L7.50332 8.17897ZM14.7363 15.4108V15.4858H14.9174L14.7893 15.3578L14.7363 15.4108ZM20.1932 20.6397L20.1182 20.6383V20.6397H20.1932ZM21.2475 21.9153L21.3006 21.8622L21.1725 21.7342V21.9153H21.2475ZM28.4858 29.1524L28.4327 29.2055L28.4341 29.2068L28.4858 29.1524ZM29.2344 29.1524L29.2874 29.2055L29.2344 29.1524ZM29.2344 28.4092L29.2874 28.3562L29.2344 28.4092ZM22.0014 21.1773V21.1023H21.8203L21.9484 21.2304L22.0014 21.1773ZM14.7425 21.1773L14.7956 21.2304L14.9235 21.1023H14.7425V21.1773ZM7.50426 28.4198L7.55729 28.4728L7.55731 28.4728L7.50426 28.4198ZM7.50426 29.163L7.45121 29.216L7.45261 29.2174L7.50426 29.163ZM8.25286 29.163L8.19984 29.1099L8.25286 29.163ZM15.4911 21.9258H15.5661V21.7448L15.4381 21.8728L15.4911 21.9258ZM21.3253 10.7618C21.3253 10.4305 21.0545 10.1597 20.7231 10.1597V10.3097C20.9717 10.3097 21.1753 10.5134 21.1753 10.7618H21.3253ZM21.3253 14.6677V10.7618H21.1753V14.6677H21.3253ZM28.4303 7.37753L21.1973 14.6147L21.3034 14.7207L28.5364 7.48356L28.4303 7.37753ZM29.2797 7.37751C29.0448 7.14265 28.6652 7.14265 28.4303 7.37751L28.5363 7.48358C28.7127 7.3073 28.9973 7.3073 29.1736 7.48358L29.2797 7.37751ZM29.2797 8.2268C29.5146 7.99194 29.5146 7.61237 29.2797 7.37751L29.1736 7.48358C29.3499 7.65986 29.3499 7.94444 29.1736 8.12073L29.2797 8.2268ZM22.0414 15.4639L29.2797 8.2268L29.1736 8.12073L21.9354 15.3579L22.0414 15.4639ZM25.8948 15.3359H21.9884V15.4859H25.8948V15.3359ZM26.497 15.938C26.497 15.6067 26.2262 15.3359 25.8948 15.3359V15.4859C26.1434 15.4859 26.347 15.6895 26.347 15.938H26.497ZM25.8948 16.5401C26.2262 16.5401 26.497 16.2694 26.497 15.938H26.347C26.347 16.1865 26.1434 16.3901 25.8948 16.3901V16.5401ZM20.7126 16.5401H25.8948V16.3901H20.7126V16.5401ZM20.1104 15.938C20.1104 16.2694 20.3812 16.5401 20.7126 16.5401V16.3901C20.4641 16.3901 20.2604 16.1865 20.2604 15.938H20.1104ZM20.1104 10.7566V15.938H20.2604V10.7566H20.1104ZM20.7231 10.1597C20.3865 10.1597 20.1224 10.4247 20.1105 10.7538L20.2604 10.7593C20.2695 10.5087 20.4693 10.3097 20.7231 10.3097V10.1597ZM16.0121 16.3901H10.8299V16.5401H16.0121V16.3901ZM16.4643 15.9432C16.4643 16.1912 16.2664 16.3901 16.0121 16.3901V16.5401C16.3482 16.5401 16.6143 16.2751 16.6143 15.9432H16.4643ZM16.4643 10.7618V15.9432H16.6143V10.7618H16.4643ZM16.0121 10.3097C16.2606 10.3097 16.4643 10.5133 16.4643 10.7618H16.6143C16.6143 10.4304 16.3435 10.1597 16.0121 10.1597V10.3097ZM15.5599 10.7618C15.5599 10.5133 15.7636 10.3097 16.0121 10.3097V10.1597C15.6807 10.1597 15.4099 10.4304 15.4099 10.7618H15.5599ZM15.5599 14.6676V10.7618H15.4099V14.6676H15.5599ZM8.19364 7.48881L15.4319 14.7207L15.5379 14.6146L8.29966 7.3827L8.19364 7.48881ZM7.55635 7.48879C7.73267 7.31251 8.01731 7.31251 8.19363 7.48879L8.29968 7.38272C8.06479 7.14786 7.68518 7.14786 7.45029 7.38272L7.55635 7.48879ZM7.55635 8.12594C7.38004 7.94965 7.38004 7.66507 7.55635 7.48879L7.45029 7.38272C7.2154 7.61758 7.2154 7.99715 7.45029 8.23201L7.55635 8.12594ZM14.7893 15.3578L7.55635 8.12594L7.45029 8.23201L14.6833 15.4639L14.7893 15.3578ZM10.8299 15.4858H14.7363V15.3358H10.8299V15.4858ZM10.3777 15.938C10.3777 15.6895 10.5813 15.4858 10.8299 15.4858V15.3358C10.4985 15.3358 10.2277 15.6066 10.2277 15.938H10.3777ZM10.8299 16.3901C10.5813 16.3901 10.3777 16.1864 10.3777 15.938H10.2277C10.2277 16.2693 10.4985 16.5401 10.8299 16.5401V16.3901ZM20.7256 20.1981H25.9079V20.0481H20.7256V20.1981ZM20.2681 20.6411C20.2727 20.3975 20.4711 20.1981 20.7256 20.1981V20.0481C20.3897 20.0481 20.1242 20.3126 20.1182 20.6383L20.2681 20.6411ZM20.2682 25.8211V20.6397H20.1182V25.8211H20.2682ZM20.7203 26.2732C20.4718 26.2732 20.2682 26.0696 20.2682 25.8211H20.1182C20.1182 26.1525 20.389 26.4232 20.7203 26.4232V26.2732ZM21.1725 25.8211C21.1725 26.0696 20.9689 26.2732 20.7203 26.2732V26.4232C21.0517 26.4232 21.3225 26.1525 21.3225 25.8211H21.1725ZM21.1725 21.9153V25.8211H21.3225V21.9153H21.1725ZM28.5388 29.0994L21.3006 21.8622L21.1945 21.9683L28.4328 29.2055L28.5388 29.0994ZM28.8601 29.2303C28.7429 29.2303 28.6294 29.1854 28.5374 29.0981L28.4341 29.2068C28.553 29.3198 28.7032 29.3803 28.8601 29.3803V29.2303ZM29.1814 29.0994C29.0912 29.1896 28.979 29.2303 28.8601 29.2303V29.3803C29.0153 29.3803 29.1667 29.3261 29.2874 29.2055L29.1814 29.0994ZM29.1814 28.4623C29.3577 28.6385 29.3577 28.9231 29.1814 29.0994L29.2874 29.2055C29.5223 28.9706 29.5223 28.591 29.2874 28.3562L29.1814 28.4623ZM21.9484 21.2304L29.1814 28.4623L29.2874 28.3562L22.0544 21.1243L21.9484 21.2304ZM25.9079 21.1023H22.0014V21.2523H25.9079V21.1023ZM26.36 20.6502C26.36 20.8987 26.1564 21.1023 25.9079 21.1023V21.2523C26.2392 21.2523 26.51 20.9816 26.51 20.6502H26.36ZM25.9079 20.1981C26.1564 20.1981 26.36 20.4018 26.36 20.6502H26.51C26.51 20.3189 26.2392 20.0481 25.9079 20.0481V20.1981ZM14.7425 21.1023H10.8361V21.2523H14.7425V21.1023ZM7.55731 28.4728L14.7956 21.2304L14.6895 21.1243L7.45121 28.3667L7.55731 28.4728ZM7.55729 29.1099C7.38098 28.9337 7.38098 28.6491 7.55729 28.4728L7.45123 28.3667C7.21633 28.6016 7.21633 28.9811 7.45123 29.216L7.55729 29.1099ZM7.87856 29.2408C7.76136 29.2408 7.64788 29.196 7.55591 29.1086L7.45261 29.2174C7.57151 29.3303 7.72163 29.3908 7.87856 29.3908V29.2408ZM8.19984 29.1099C8.10965 29.2001 7.99749 29.2408 7.87856 29.2408V29.3908C8.03378 29.3908 8.18521 29.3367 8.30589 29.216L8.19984 29.1099ZM15.4381 21.8728L8.19984 29.1099L8.30589 29.216L15.5442 21.9789L15.4381 21.8728ZM15.5661 25.8317V21.9258H15.4161V25.8317H15.5661ZM16.0183 26.2838C15.7698 26.2838 15.5661 26.0801 15.5661 25.8317H15.4161C15.4161 26.163 15.6869 26.4338 16.0183 26.4338V26.2838ZM16.4705 25.8317C16.4705 26.0801 16.2668 26.2838 16.0183 26.2838V26.4338C16.3497 26.4338 16.6205 26.163 16.6205 25.8317H16.4705ZM16.4705 20.6502V25.8317H16.6205V20.6502H16.4705ZM16.0183 20.1981C16.2668 20.1981 16.4705 20.4018 16.4705 20.6502H16.6205C16.6205 20.3189 16.3497 20.0481 16.0183 20.0481V20.1981ZM10.8361 20.1981H16.0183V20.0481H10.8361V20.1981ZM10.3839 20.6502C10.3839 20.4018 10.5875 20.1981 10.8361 20.1981V20.0481C10.5047 20.0481 10.2339 20.3189 10.2339 20.6502H10.3839ZM10.8361 21.1023C10.5875 21.1023 10.3839 20.8987 10.3839 20.6502H10.2339C10.2339 20.9816 10.5047 21.2523 10.8361 21.2523V21.1023Z" fill="black"/>
</svg>
