<svg version="1.1" xmlns="http://www.w3.org/2000/svg" xmlns:xlink="http://www.w3.org/1999/xlink" x="0px" y="0px" viewBox="0 0 1000 1000" enable-background="new 0 0 1000 1000" xml:space="preserve">
<g><g transform="translate(0.000000,512.000000) scale(0.100000,-0.100000)"><path d="M3301.8,5003c-76.6-30.6-202.9-247-273.8-469c-53.6-168.5-57.4-423.1-11.5-603.1c19.1-68.9,97.6-262.3,174.2-430.8c180-396.3,187.6-423.1,178-606.9c-7.7-135.9-19.1-172.3-99.6-327.4c-74.7-139.8-88.1-185.7-78.5-235.5c24.9-137.8,210.6-208.7,319.7-122.5c26.8,21.1,84.2,103.4,126.4,185.7c214.4,413.5,201,721.8-55.5,1234.8c-149.3,298.7-195.3,455.6-185.7,633.7c7.7,134,19.1,170.4,101.5,329.3c120.6,235.5,118.7,337-9.6,402C3426.3,5026,3365,5027.9,3301.8,5003z"/><path d="M4929.2,5003c-109.1-44-269.9-377.2-312.1-647.1c-40.2-241.2,17.2-469,220.2-903.6c147.4-310.2,170.4-398.2,158.9-578.2c-9.6-114.9-24.9-164.6-101.5-308.2c-72.7-139.8-86.2-185.7-76.6-235.5c24.9-137.8,210.6-208.7,319.7-122.5c61.3,45.9,191.5,296.7,237.4,449.9c44,147.4,44,400.1,0,564.8c-19.1,68.9-91.9,248.9-164.6,402c-168.5,356.1-199.1,463.3-187.6,647.1c7.6,122.5,23,166.6,101.5,321.6c120.6,233.6,118.7,335-9.6,400.1C5053.6,5026,4992.3,5027.9,4929.2,5003z"/><path d="M6558.4,5003c-59.4-23-116.8-103.4-199.1-277.6c-91.9-195.3-122.5-325.5-122.5-516.9c1.9-201,44-352.3,172.3-631.8c187.6-400.1,204.9-449.9,214.4-603.1c9.6-162.7-32.5-310.2-124.4-448c-76.6-114.9-74.7-225.9,9.6-300.6c76.6-67,183.8-74.7,256.6-17.2c26.8,21.1,84.2,103.4,126.3,185.7c130.2,250.8,172.3,465.2,137.9,681.6c-26.8,174.2-59.3,264.2-201,568.6c-168.5,361.8-187.6,432.7-178.1,616.5c7.7,134,19.2,172.3,97.6,327.4c120.6,237.4,118.7,340.8-5.7,405.9C6680.9,5026,6619.6,5027.9,6558.4,5003z"/><path d="M1213.1,1700.5c-323.6-111-561-350.3-660.5-670.1l-42.1-134v-2000.6v-2000.6l42.1-134c95.7-306.3,317.8-539.9,627.9-662.4c105.3-40.2,151.2-46,536.1-55.5l421.2-9.6l9.6-344.6c5.7-189.5,17.2-359.9,26.8-379c23-45.9,111-90,185.7-90c42.1,0,78.5,19.1,124.4,65.1l65.1,65.1v346.5v346.5H5000h2450.5v-346.5v-346.5l65.1-65.1c45.9-46,82.3-65.1,126.3-65.1c67,0,162.7,47.9,185.7,93.8c7.7,17.2,19.2,185.7,24.9,375.2l9.6,344.6l421.2,9.6c384.8,9.6,430.8,15.3,536,55.5c308.2,122.5,532.2,358,627.9,662.4l42.1,134v2000.6V896.5l-42.1,134c-103.4,327.4-356.1,578.2-683.5,677.7l-130.2,40.2H4992.3l-3639.4-1.9L1213.1,1700.5z M8737.1,1283.2c118.7-57.4,220.2-158.9,287.2-285.3l44-82.3v-2019.8V-3124l-44-82.3c-67-126.4-168.5-227.8-287.2-285.3l-109.1-53.6H5000H1372l-109.1,53.6c-118.7,57.4-220.2,158.9-287.2,285.3l-44,82.3L926-1146.3C924.1,169,927.9,856.3,941.3,906c24.9,95.7,126.4,241.2,214.4,312.1c38.3,30.6,116.8,72.7,172.3,91.9c97.6,34.5,252.7,34.5,3700.7,30.6l3599.2-3.8L8737.1,1283.2z"/><path d="M1846.8,913.7c-126.3-63.2-120.6,38.3-120.6-2017.9c0-2063.8-5.7-1956.6,124.4-2017.9c78.5-38.3,93.8-38.3,172.3,0c130.2,61.3,124.4-45.9,124.4,2017.9c0,2063.8,5.7,1956.6-124.4,2017.9C1944.5,952,1923.4,952,1846.8,913.7z"/><path d="M3072.1,913.7c-126.3-63.2-120.6,38.3-120.6-2017.9c0-2063.8-5.7-1956.6,124.4-2017.9c78.5-38.3,93.8-38.3,172.3,0c130.2,61.3,124.4-45.9,124.4,2017.9c0,2063.8,5.7,1956.6-124.4,2017.9C3169.8,952,3148.7,952,3072.1,913.7z"/><path d="M4297.4,913.7c-126.3-63.2-120.6,38.3-120.6-2017.9c0-2063.8-5.7-1956.6,124.4-2017.9c78.5-38.3,93.8-38.3,172.3,0c130.2,61.3,124.4-45.9,124.4,2017.9c0,2063.8,5.7,1956.6-124.4,2017.9C4395,952,4374,952,4297.4,913.7z"/><path d="M5522.7,913.7C5396.3,850.5,5402,952,5402-1104.2c0-2063.8-5.7-1956.6,124.4-2017.9c78.5-38.3,93.8-38.3,172.3,0c130.2,61.3,124.4-45.9,124.4,2017.9c0,2063.8,5.7,1956.6-124.4,2017.9C5620.3,952,5599.2,952,5522.7,913.7z"/><path d="M6747.9,913.7c-126.3-63.2-120.6,38.3-120.6-2017.9c0-2063.8-5.7-1956.6,124.4-2017.9c78.5-38.3,93.8-38.3,172.3,0c130.2,61.3,124.4-45.9,124.4,2017.9c0,2063.8,5.8,1956.6-124.4,2017.9C6845.6,952,6824.5,952,6747.9,913.7z"/><path d="M7973.2,913.7c-126.3-63.2-120.6,38.3-120.6-2017.9c0-2063.8-5.7-1956.6,124.4-2017.9c78.5-38.3,93.8-38.3,172.3,0c130.2,61.3,124.4-45.9,124.4,2017.9c0,2063.8,5.7,1956.6-124.4,2017.9C8070.8,952,8049.8,952,7973.2,913.7z"/></g></g>
</svg>