<?xml version="1.0" encoding="UTF-8"?>
<svg width="56px" height="57px" viewBox="0 0 56 57" version="1.1" 
    xmlns="http://www.w3.org/2000/svg" 
    xmlns:xlink="http://www.w3.org/1999/xlink">
    <g id="Logo">
        <path d="M16.7372881,1.32160949e-12 L16.7372881,56.2791625 L14.2372881,56.2791625 L14.2372881,1.32160949e-12 L16.7372881,1.32160949e-12 Z M43.7050795,33.4682844 C47.1565267,33.4682844 49.9140704,34.8671463 49.9140704,39.7227702 L40.1199113,39.7227702 C40.4126519,41.4235141 41.7968449,41.9847596 43.5532881,41.9847596 C45.3856271,42.001767 46.4951499,41.606344 47.1565267,40.5178679 L49.7731213,40.5178679 C49.1731838,43.2348064 46.9252256,44.5231199 43.5677445,44.5231199 C40.1162973,44.5231199 37.423807,42.9286724 37.423807,38.9957021 C37.423807,35.0627318 40.0259452,33.4682844 43.7050795,33.4682844 Z M21.2977784,33.6723736 L21.2977784,44.3445418 L18.6631134,44.3445418 L18.6631134,33.6723736 L21.2977784,33.6723736 Z M31.1786754,33.4682844 C33.6109518,33.4852918 35.85891,34.4929826 35.8914368,38.4344566 L35.85891,44.3402899 L33.2097888,44.3402899 L33.2097888,39.5952144 C33.2097888,37.3289731 32.5628683,36.1512079 30.3908057,36.1512079 C28.6199061,36.1512079 26.7116714,37.2226766 25.8948892,38.3451676 L25.8948892,44.3232825 L23.2602243,44.3232825 L23.2602243,33.6511143 L25.8948892,33.6511143 L25.8948892,35.5176808 C27.4090101,34.152421 29.2712682,33.4301161 31.1786754,33.4682844 Z M43.6870091,35.8408221 C41.9233377,35.8408221 40.640339,36.2575044 40.2247197,37.7626628 L47.0914733,37.7626628 C46.6433272,36.2575044 45.3494863,35.8408221 43.6870091,35.8408221 Z M21.2977784,29.8456998 L21.2977784,32.5456308 L18.6631134,32.5456308 L18.6631134,29.8456998 L21.2977784,29.8456998 Z M6.28488657,14.4242043 C9.67128031,14.4242043 12.0674159,15.7295253 12.4902634,18.8631459 L9.79415906,18.8631459 C9.43275098,17.4855434 8.19312125,17.0135869 6.28488657,17.0135869 C4.01885789,17.0135869 2.63466493,17.7193957 2.63466493,19.9473702 C2.63466493,22.1753447 4.01885789,22.8683979 6.28488657,22.8683979 C8.19312125,22.8683979 9.43997914,22.3964414 9.79415906,21.0188389 L12.4902634,21.0188389 C12.0601877,24.1524595 9.67128031,25.4577805 6.28488657,25.4577805 C2.52985658,25.4577805 -5.18696197e-13,23.8633331 -5.18696197e-13,19.9473702 C-5.18696197e-13,16.0314073 2.52985658,14.4242043 6.28488657,14.4242043 Z M24.6733299,14.402945 C28.1247771,14.402945 30.8787066,15.797555 30.8787066,20.6531789 L21.0990039,20.6531789 C21.3917445,22.3539228 22.7795515,22.9194202 24.5323807,22.9194202 C26.3502634,22.9406795 27.4670143,22.5410047 28.121163,21.4525286 L30.7413716,21.4525286 C30.1414342,24.169467 27.8898618,25.4577805 24.5323807,25.4577805 C21.0845476,25.4577805 18.3884433,23.8633331 18.3884433,19.9303628 C18.3884433,15.9973924 20.9941956,14.402945 24.6733299,14.402945 Z M38.4791186,14.4242043 C42.252219,14.4242043 44.4098253,15.8528292 44.4531943,19.8963479 L44.4531943,25.2749505 L41.804073,25.2749505 L41.804073,23.9526221 C40.0932812,24.9578961 38.2048676,25.4736133 36.2925997,25.4577805 C33.7627432,25.4577805 32.1653194,24.4968602 32.1653194,22.0860557 C32.1653194,19.3138431 34.7530013,18.4464637 37.6334237,18.4464637 C39.0493967,18.434433 40.4577335,18.691434 41.804073,19.2075466 C41.804073,17.1751576 39.5886415,17.0135869 38.3562399,17.0135869 C36.8329041,17.0060683 35.3172846,17.2683706 33.8603233,17.7916773 L32.9206623,15.5296879 C34.7112992,14.8138142 36.5879682,14.4405763 38.4791186,14.4242043 Z M53.5462216,14.4071969 C54.3687307,14.4079496 55.1876289,14.5351654 55.9821121,14.7856124 L55.9821121,17.374995 C55.2237582,17.1384648 54.4428049,17.0170101 53.6582581,17.0135869 C51.9322258,16.9749923 50.2471276,17.6338142 48.8840574,18.8801534 L48.8840574,25.2579431 L46.2602347,25.2579431 L46.2602347,14.585775 L48.8948996,14.585775 L48.8948996,16.4013191 C50.1728855,15.0639511 51.8364925,14.3507269 53.5462216,14.4071969 Z M37.9478488,20.4618452 C35.9781747,20.4618452 34.7891421,20.8615201 34.7891421,21.9499962 C34.7891421,23.0384723 35.6673638,23.1617762 37.0407145,23.1617762 C38.675105,23.097365 40.2862425,22.6868749 41.7968449,21.9499962 L41.804073,21.1251354 C40.5555979,20.6705375 39.2546913,20.446775 37.9478488,20.4618452 Z M24.6552595,16.7797346 C22.8699035,16.7797346 21.6085893,17.1964169 21.19297,18.6973234 L28.0597236,18.6973234 C27.6115776,17.1964169 26.3177366,16.7797346 24.6552595,16.7797346 Z" id="Combined-Shape"></path>
    </g>
</svg>