<svg width="37" height="37" viewBox="0 0 37 37"  fill="white" xmlns="http://www.w3.org/2000/svg">
<rect width="35.2632" height="35.2632" transform="matrix(-1 0 0 1 36 1)" stroke="black"/>
<path fill-rule="evenodd" clip-rule="evenodd" d="M17.5847 24.036C17.5847 24.4576 17.9373 24.8026 18.3683 24.8026C18.7993 24.8026 19.1519 24.4576 19.1519 24.036V20.9313C22.6782 20.548 25.4209 17.5966 25.4209 14.0703C25.4209 10.2757 22.2473 7.17102 18.3683 7.17102C14.4894 7.17102 11.3157 10.2757 11.3157 14.0703C11.3157 14.492 11.6683 14.8369 12.0993 14.8369C12.5303 14.8369 12.8829 14.492 12.8829 14.0703C12.8829 11.119 15.3513 8.7042 18.3683 8.7042C21.3853 8.7042 23.8537 11.119 23.8537 14.0703C23.8537 17.0217 21.3853 19.4365 18.3683 19.4365C17.9373 19.4365 17.5847 19.7814 17.5847 20.2031V24.036ZM19.9645 28.6374C19.9645 29.2947 19.4317 29.8275 18.7744 29.8275C18.1171 29.8275 17.5843 29.2947 17.5843 28.6374C17.5843 27.9801 18.1171 27.4472 18.7744 27.4472C19.4317 27.4472 19.9645 27.9801 19.9645 28.6374Z" fill="black"/>
</svg>
