<svg width="38" height="37" viewBox="0 0 38 37" fill="white" xmlns="http://www.w3.org/2000/svg">
<rect width="35.2632" height="35.2632" transform="matrix(-1 0 0 1 36.6316 1)"  stroke="black"/>
<path d="M25.827 6.90646C25.506 6.9618 25.1344 7.43017 25.1993 7.75591L25.6024 10.9243C21.9736 7.87881 16.7692 7.57133 12.9251 10.4782C8.4236 13.8823 7.64054 20.2843 11.1569 24.9344C14.6733 29.5844 21.0466 30.5748 25.5481 27.1707C25.8943 26.9089 25.9449 26.4958 25.6744 26.1381C25.4039 25.7804 24.9927 25.7166 24.6464 25.9784C20.8375 28.8588 15.2866 27.9962 12.3112 24.0615C9.33576 20.1269 10.0178 14.5509 13.8268 11.6706C17.2281 9.09847 22.0127 9.51875 25.1182 12.4374L21.2279 12.8207C20.7915 12.9633 20.5354 13.3444 20.6003 13.6701C20.7554 14.1151 21.1413 14.3855 21.4623 14.3302C21.9918 14.2866 22.5219 14.2448 23.0511 14.1962C23.9583 14.1137 24.8691 14.0629 25.7741 13.964C25.986 13.941 26.196 13.95 26.4093 13.9432C27.1022 13.92 27.2085 13.2496 27.2188 12.6856C27.2472 11.1348 26.9138 9.54803 26.7384 8.00518C26.7233 7.87193 26.7339 7.69597 26.689 7.56652C26.5339 7.12154 26.148 6.85112 25.827 6.90646Z" fill="black"/>
</svg>
