<svg width="28" height="28" viewBox="0 0 28 28" fill="none" xmlns="http://www.w3.org/2000/svg">
<path d="M6.19188 1.58562C6.37763 1.39992 6.59813 1.25262 6.84081 1.15214C7.08349 1.05165 7.34359 0.999958 7.60625 1H24.1112C24.4906 0.999918 24.8663 1.07458 25.2168 1.21973C25.5673 1.36487 25.8858 1.57765 26.1541 1.84591C26.4223 2.11417 26.6351 2.43266 26.7803 2.78318C26.9254 3.13369 27.0001 3.50937 27 3.88875V24.1112C27.0001 24.4906 26.9254 24.8663 26.7803 25.2168C26.6351 25.5673 26.4223 25.8858 26.1541 26.1541C25.8858 26.4223 25.5673 26.6351 25.2168 26.7803C24.8663 26.9254 24.4906 27.0001 24.1112 27H3.88875C3.12332 26.9977 2.38989 26.6926 1.84864 26.1514C1.3074 25.6101 1.00231 24.8767 1 24.1112V7.60625C0.999958 7.34359 1.05165 7.08349 1.15214 6.84081C1.25262 6.59813 1.39992 6.37763 1.58562 6.19188L6.19188 1.58562ZM14 24C14.7911 24 15.5645 23.7654 16.2223 23.3259C16.8801 22.8864 17.3928 22.2616 17.6955 21.5307C17.9983 20.7998 18.0775 19.9956 17.9231 19.2196C17.7688 18.4437 17.3878 17.731 16.8284 17.1716C16.269 16.6122 15.5563 16.2312 14.7804 16.0769C14.0044 15.9225 13.2002 16.0017 12.4693 16.3045C11.7384 16.6072 11.1136 17.1199 10.6741 17.7777C10.2346 18.4355 10 19.2089 10 20C9.99934 20.5255 10.1024 21.0459 10.3031 21.5315C10.5039 22.0171 10.7985 22.4583 11.1701 22.8299C11.5417 23.2015 11.9829 23.4961 12.4685 23.6969C12.9541 23.8976 13.4745 24.0007 14 24V24ZM11 10H23C23.2652 10 23.5196 9.89464 23.7071 9.70711C23.8946 9.51957 24 9.26522 24 9V5C24 4.73478 23.8946 4.48043 23.7071 4.29289C23.5196 4.10536 23.2652 4 23 4H11C10.7348 4 10.4804 4.10536 10.2929 4.29289C10.1054 4.48043 10 4.73478 10 5V9C10 9.26522 10.1054 9.51957 10.2929 9.70711C10.4804 9.89464 10.7348 10 11 10Z" stroke="white" stroke-linecap="round" stroke-linejoin="round"/>
</svg>
