<?xml version="1.0" encoding="utf-8"?>
<!-- Svg Vector Icons : http://www.onlinewebfonts.com/icon -->
<!DOCTYPE svg PUBLIC "-//W3C//DTD SVG 1.1//EN" "http://www.w3.org/Graphics/SVG/1.1/DTD/svg11.dtd">
<svg version="1.1" xmlns="http://www.w3.org/2000/svg" xmlns:xlink="http://www.w3.org/1999/xlink" x="0px" y="0px" viewBox="0 0 1000 1000" enable-background="new 0 0 1000 1000" xml:space="preserve">
<metadata> Svg Vector Icons : http://www.onlinewebfonts.com/icon </metadata>
<g><path d="M641.4,644.5c-13.7-151.2-132.6-272.5-283.6-287.1c-10.1-1-20.4-1.6-30.8-1.6c-18.5,0-36.6,2.2-54.5,5.3c-63.9,11.1-123,40.8-169.7,87.6C43,508.6,9.9,588.3,10,673c0,84.7,33,164.3,92.9,224.2c59.9,59.9,139.5,92.9,224.2,92.9c84.7,0,164.4-33,224.2-92.9c46.5-46.5,76.2-105,87.4-168.4c3.2-18.3,5.5-36.9,5.4-55.9C644.1,663.2,642.3,654,641.4,644.5z M327,932.4c-69.3,0-134.4-27-183.4-76c-49-49-76-114.1-76-183.4c0-69.3,27-134.4,76-183.4c1.2-1.1,2.5-1.8,3.6-2.9c41.8-40.4,94.8-64.2,151.9-70.3c9.3-1,18.5-2.7,28-2.7c143,0,259.4,116.4,259.4,259.4c0,10-1.8,19.6-2.9,29.4c-6.6,58.1-31.2,112.1-73.1,154.1c-2,2-4.5,3.5-6.6,5.4C455.7,907,393.5,932.4,327,932.4z"/><path d="M990,327C990,152.2,847.8,10,672.9,10c-84.7,0-164.3,33-224.2,92.9c0,0,0,0-0.1,0.1l0,0L102.8,448.8l40.8,40.8l217.8-217.8c-0.1,0.3-0.2,0.6-0.2,0.9l125.4-125.4c1.1-1.1,1.8-2.5,2.9-3.6c49.1-49.1,114.2-76,183.6-76C816,67.7,932.4,184,932.4,327c0,69.4-27,134.5-76,183.4c-2.1,2.1-4.6,3.5-6.6,5.5l0.6,0.6L510.5,856.5l0.3,0.3l40.5,40.5l345.9-345.9l0,0c0,0,0,0,0.1-0.1C957.1,491.4,990,411.7,990,327z"/><path d="M327.1,874.7c-111.3,0-201.8-90.5-201.8-201.8c0-111.3,90.5-201.8,201.8-201.8c111.3,0,201.8,90.5,201.8,201.8C528.9,784.2,438.3,874.7,327.1,874.7z M327.1,528.8C247.6,528.8,183,593.5,183,673c0,79.5,64.7,144.1,144.1,144.1c79.4,0,144.1-64.6,144.1-144.1C471.2,593.5,406.5,528.8,327.1,528.8z"/><path d="M743.7,31.6l40.8,40.8L438.4,418.4l-40.8-40.8L743.7,31.6L743.7,31.6z"/><path d="M818.7,108.7"/><path d="M472.6,454.7"/><path d="M925.5,238.1l40.8,40.8L620.2,624.9l-40.8-40.8L925.5,238.1z"/></g>
</svg>