<svg width="37" height="37" viewBox="0 0 37 37" fill="white"  xmlns="http://www.w3.org/2000/svg">
<rect x="1" y="1" width="35.2632" height="35.2632" stroke="black"/>
<path d="M11.8053 6.90646C12.1264 6.9618 12.4979 7.43017 12.433 7.75591L12.0299 10.9243C15.6587 7.87881 20.8631 7.57133 24.7072 10.4782C29.2087 13.8823 29.9918 20.2843 26.4754 24.9344C22.959 29.5844 16.5858 30.5748 12.0842 27.1707C11.738 26.9089 11.6875 26.4958 11.9579 26.1381C12.2284 25.7804 12.6396 25.7166 12.9859 25.9784C16.7949 28.8588 22.3457 27.9962 25.3212 24.0615C28.2966 20.1269 27.6145 14.5509 23.8056 11.6706C20.4043 9.09847 15.6197 9.51875 12.5141 12.4374L16.4044 12.8207C16.8408 12.9633 17.0969 13.3444 17.032 13.6701C16.877 14.1151 16.4911 14.3855 16.17 14.3302C15.6406 14.2866 15.1105 14.2448 14.5812 14.1962C13.674 14.1137 12.7632 14.0629 11.8583 13.964C11.6464 13.941 11.4363 13.95 11.223 13.9432C10.5301 13.92 10.4238 13.2496 10.4135 12.6856C10.3851 11.1348 10.7185 9.54803 10.8939 8.00518C10.9091 7.87193 10.8984 7.69597 10.9434 7.56652C11.0984 7.12154 11.4843 6.85112 11.8053 6.90646Z" fill="black"/>
</svg>
