<svg width="298" height="47" viewBox="0 0 298 47" fill="none" xmlns="http://www.w3.org/2000/svg">
<mask id="path-1-inside-1" fill="white">
<path fill-rule="evenodd" clip-rule="evenodd" d="M33.75 0L0 23.4856L33.75 46.9711V38.9856H298V8.98558H33.75V0Z"/>
</mask>
<path fill-rule="evenodd" clip-rule="evenodd" d="M33.75 0L0 23.4856L33.75 46.9711V38.9856H298V8.98558H33.75V0Z" fill="#231F20"/>
<path d="M0 23.4856L-0.571184 22.6648L-1.75075 23.4856L-0.571184 24.3064L0 23.4856ZM33.75 0H34.75V-1.91416L33.1788 -0.820822L33.75 0ZM33.75 46.9711L33.1788 47.792L34.75 48.8853V46.9711H33.75ZM33.75 38.9856V37.9856H32.75V38.9856H33.75ZM298 38.9856V39.9856H299V38.9856H298ZM298 8.98558H299V7.98558H298V8.98558ZM33.75 8.98558H32.75V9.98558H33.75V8.98558ZM0.571184 24.3064L34.3212 0.820822L33.1788 -0.820822L-0.571184 22.6648L0.571184 24.3064ZM34.3212 46.1503L0.571184 22.6648L-0.571184 24.3064L33.1788 47.792L34.3212 46.1503ZM32.75 38.9856V46.9711H34.75V38.9856H32.75ZM298 37.9856H33.75V39.9856H298V37.9856ZM297 8.98558V38.9856H299V8.98558H297ZM33.75 9.98558H298V7.98558H33.75V9.98558ZM32.75 0V8.98558H34.75V0H32.75Z" fill="white" mask="url(#path-1-inside-1)"/>
</svg>
